<?xml version="1.0" encoding="utf-8"?>
<!-- Generator: Adobe Illustrator 25.2.0, SVG Export Plug-In . SVG Version: 6.00 Build 0)  -->
<svg version="1.1" xmlns="http://www.w3.org/2000/svg" xmlns:xlink="http://www.w3.org/1999/xlink" x="0px" y="0px"
	 viewBox="0 0 1927.8 1746.5" style="enable-background:new 0 0 1927.8 1746.5;" xml:space="preserve">
<style type="text/css">
	.st0{fill:#F0F2F5;}
	.st1{fill:#FFFFFF;}
	.st2{fill:#E1E6EB;}
	.st3{fill:#303030;}
	.st4{fill:#8C24C7;}
	.st5{fill:#4F1972;}
	.st6{fill:#F9A21B;}
	.st7{fill:#1B1B2F;}
	.st8{fill:#FFC89F;}
	.st9{fill:#FF9A6C;}
	.st10{fill:#E43F5A;}
	.st11{fill:#112E4C;}
	.st12{opacity:0.4;}
	.st13{fill:#1F4168;}
	.st14{fill:#1B1A2E;}
</style>
<g id="BACK">
</g>
<g id="CHAIR">
</g>
<g id="CHARACTER">
</g>
<g id="HEADPHONE">
</g>
<g id="COMPUTER">
</g>
<g id="FRONT">
	<g>
		<g>
			<g>
				<g>
					<path class="st0" d="M1461.5,556.2c1.5,0.4,3,0.9,4.6,1.3c1.1,0.3,2.2,0.6,3.3,0.9c0.2,0.1,0.5,0.1,0.7,0.2
						c0.8,0.2,1.6,0.4,2.4,0.5c0.2,0.1,0.4,0.1,0.6,0.1c0.4,0.1,0.8,0.2,1.2,0.2c0,0,0,0,0,0c1.3,0.3,2.7,0.6,4,0.8
						c0.8,0.2,1.7,0.3,2.5,0.5c0,0,0,0,0,0c0,0,0,0,0,0c2.1,0.4,4.2,0.7,6.3,1c0.7,0.1,1.4,0.2,2.1,0.3l0.1,0
						c1.8,0.2,3.6,0.4,5.4,0.6c3.8,0.4,7.6,0.6,11.4,0.7c1.8,0.1,3.6,0.1,5.4,0.1c0,0,0.1,0,0.1,0c0.7,0,1.4,0,2.2,0
						c0.6,0,1.3,0,1.9-0.1c0.8,0,1.7,0,2.5-0.1c1.8-0.1,3.6-0.2,5.5-0.3c2.1-0.1,4.1-0.3,6.2-0.5c0,0,0,0,0,0l40.7,82.2l98-48.4
						l-39-78.9l0,0c0.3-0.3,0.7-0.6,1-0.9c0.7-0.7,1.4-1.4,2.1-2.1c0.7-0.6,1.3-1.3,1.9-2c0.8-0.8,1.7-1.6,2.4-2.5
						c0.3-0.4,0.7-0.7,1-1.1c0.1-0.1,0.2-0.1,0.2-0.2c1-1,1.9-2,2.8-3c0.2-0.2,0.4-0.5,0.7-0.7c0.7-0.8,1.4-1.6,2.1-2.4
						c0.5-0.6,1-1.2,1.5-1.8c0.1-0.1,0.1-0.1,0.2-0.2c0.4-0.4,0.7-0.8,1-1.2c0.7-0.9,1.4-1.8,2.2-2.7c0.1-0.2,0.3-0.4,0.4-0.6
						c0.1-0.1,0.2-0.2,0.3-0.3c0.7-0.9,1.4-1.8,2.1-2.8c0.2-0.3,0.4-0.5,0.6-0.8c0.7-0.9,1.3-1.9,2-2.8c0.3-0.3,0.5-0.6,0.7-1
						c0.8-1.1,1.5-2.2,2.2-3.3c1-1.5,2-3.1,3-4.7c0.7-1.2,1.4-2.3,2.1-3.5c0.1-0.1,0.2-0.3,0.3-0.5c0.2-0.3,0.4-0.6,0.5-0.8
						c0.8-1.4,1.6-2.8,2.3-4.2c0.9-1.7,1.8-3.4,2.6-5.2c0.9-1.8,1.8-3.7,2.6-5.6l91.5,5.9l7-109.1l-87.9-5.7c0-0.2-0.1-0.4-0.1-0.6
						c-0.5-2-1-4.1-1.5-6.1c-0.4-1.5-0.9-3-1.3-4.5c-0.1-0.5-0.3-0.9-0.4-1.4c0,0,0,0,0,0c-0.4-1.3-0.8-2.7-1.3-4
						c-0.4-1.4-0.9-2.7-1.4-4c0,0,0,0,0,0c-0.1-0.4-0.3-0.8-0.4-1.2c0-0.1-0.1-0.2-0.1-0.4c0,0,0,0,0,0c-0.4-1-0.7-1.9-1.1-2.8
						c-0.2-0.5-0.4-1.1-0.6-1.6c0,0,0,0,0,0c-0.2-0.4-0.3-0.8-0.5-1.2c-0.1-0.2-0.2-0.4-0.3-0.6c-0.2-0.5-0.5-1.1-0.7-1.6
						c0,0,0,0,0,0c-0.5-1.1-0.9-2.2-1.4-3.2c-0.4-1-0.9-2-1.4-3c0,0,0,0,0,0c-0.4-0.8-0.7-1.5-1.1-2.3c-0.4-0.8-0.8-1.7-1.2-2.5
						c-0.1-0.3-0.3-0.5-0.4-0.8c-0.4-0.7-0.8-1.5-1.1-2.1c-0.4-0.8-0.9-1.7-1.4-2.5c-0.3-0.5-0.5-0.9-0.8-1.4
						c-0.6-0.9-1.1-1.9-1.6-2.8c-0.4-0.7-0.8-1.4-1.3-2.1c-0.2-0.4-0.5-0.9-0.8-1.3c0-0.1,0-0.1-0.1-0.2c-0.4-0.7-0.8-1.3-1.3-2
						c-0.6-0.9-1.2-1.8-1.8-2.7c-0.2-0.3-0.3-0.5-0.6-0.8c-0.7-1.1-1.5-2.1-2.3-3.2c0-0.1,0-0.1-0.1-0.2c0-0.1-0.1-0.2-0.2-0.3
						c-0.1-0.1-0.1-0.2-0.2-0.3c0,0,0,0,0,0l50.9-76.3l-90.9-60.6l-48.9,73.3c0,0,0,0,0,0c-0.5-0.2-0.9-0.3-1.4-0.4
						c-9.1-2.8-18.4-4.7-27.7-5.9c-7.4-0.9-14.9-1.4-22.4-1.4c-1.3,0-2.6,0.1-4,0.1c-1,0-2,0-3,0.1c0,0,0,0,0,0c0,0,0,0,0,0
						c-1.3,0.1-2.6,0.1-3.9,0.2c-0.8,0-1.5,0.1-2.3,0.2c0,0,0,0,0,0c-0.7,0.1-1.4,0.1-2.1,0.2c-0.3,0-0.6,0.1-0.9,0.1
						c-0.7,0.1-1.3,0.1-2,0.2l-40.7-82.2l-98,48.5l39,79l0,0c-0.2,0.2-0.4,0.4-0.6,0.5c-0.9,0.8-1.8,1.7-2.7,2.6
						c-0.6,0.5-1.1,1-1.6,1.6c-0.3,0.3-0.6,0.6-0.9,0.9c-0.8,0.8-1.6,1.6-2.3,2.4c-0.2,0.2-0.4,0.4-0.6,0.6
						c-1.2,1.2-2.3,2.5-3.4,3.7c-0.9,1-1.7,2-2.5,3c0,0.1-0.1,0.1-0.2,0.2c-0.3,0.4-0.7,0.8-1,1.2c-0.3,0.4-0.7,0.9-1.1,1.3
						c-0.7,0.9-1.5,1.8-2.2,2.7c-0.2,0.2-0.4,0.5-0.5,0.7c-0.6,0.8-1.2,1.5-1.8,2.3c-0.6,0.8-1.2,1.6-1.7,2.3c0,0.1-0.1,0.1-0.1,0.1
						c-0.4,0.6-0.9,1.2-1.3,1.8c-0.3,0.4-0.5,0.8-0.8,1.2c-0.7,1-1.4,2.1-2.1,3.1c-1,1.6-2,3.1-3,4.7c-0.8,1.3-1.6,2.6-2.4,4
						c-0.9,1.6-1.8,3.2-2.7,4.8c-0.1,0.2-0.2,0.4-0.3,0.5c-0.1,0.1-0.1,0.3-0.2,0.4c-0.7,1.4-1.4,2.8-2.1,4.2
						c-0.1,0.3-0.3,0.6-0.4,0.9c-0.8,1.6-1.5,3.1-2.2,4.7c-0.1,0.1-0.1,0.2-0.2,0.3c0,0,0,0,0,0l-91.5-5.9l-7,109.1l87.9,5.7
						c0,0,0,0,0,0c0.1,0.7,0.3,1.3,0.5,2c0.3,1.6,0.7,3.1,1.2,4.6c0.4,1.6,0.9,3.3,1.4,4.9c0,0.1,0.1,0.3,0.1,0.4
						c0.4,1.4,0.9,2.8,1.4,4.2c0,0.1,0.1,0.3,0.1,0.4c0.4,1.3,0.9,2.7,1.4,4c0.2,0.5,0.3,0.9,0.5,1.4c0.2,0.7,0.4,1.3,0.7,1.9
						c0.4,1.1,0.8,2.2,1.3,3.2c0.2,0.5,0.3,0.9,0.6,1.4c0.4,1.1,0.9,2.2,1.4,3.2c0.2,0.5,0.4,1,0.6,1.4c0,0.1,0,0.1,0.1,0.2
						c0.8,1.8,1.6,3.6,2.5,5.3c0.5,1.1,1.1,2.2,1.7,3.3c0.3,0.7,0.7,1.3,1.1,2c0.3,0.7,0.6,1.3,1,1.9c0.6,1.1,1.2,2.2,1.8,3.2
						c0,0.1,0,0.1,0.1,0.2c0.7,1.2,1.4,2.5,2.2,3.6c0.3,0.5,0.6,1,0.9,1.5c0.3,0.5,0.6,0.9,0.9,1.3c0,0.1,0.1,0.1,0.1,0.2
						c0.7,1.1,1.4,2.2,2.1,3.3c1,1.6,2.1,3.1,3.3,4.6l-50.9,76.3l90.9,60.6l48.8-73.3C1460.6,555.9,1461.1,556,1461.5,556.2z
						 M1438.1,426.2c-20.1-40.6-3.4-89.7,37.1-109.8c40.6-20,89.7-3.4,109.8,37.1c20,40.5,3.4,89.7-37.1,109.7
						C1507.3,483.4,1458.2,466.8,1438.1,426.2z"/>
				</g>
			</g>
		</g>
		<g>
			<g>
				<g>
					<path class="st0" d="M1755.9,774.7c0.6,0.4,1.2,0.9,1.9,1.3c0.4,0.3,0.9,0.6,1.4,0.9c0.1,0.1,0.2,0.1,0.3,0.2
						c0.3,0.2,0.7,0.4,1,0.6c0.1,0.1,0.2,0.1,0.2,0.1c0.2,0.1,0.3,0.2,0.5,0.3c0,0,0,0,0,0c0.6,0.4,1.1,0.7,1.7,1
						c0.4,0.2,0.7,0.4,1.1,0.6c0,0,0,0,0,0c0,0,0,0,0,0c0.9,0.5,1.8,1,2.7,1.5c0.3,0.2,0.6,0.3,0.9,0.5l0.1,0
						c0.8,0.4,1.6,0.8,2.4,1.1c1.7,0.8,3.4,1.5,5.1,2.1c0.8,0.3,1.6,0.6,2.4,0.9c0,0,0,0,0.1,0c0.3,0.1,0.7,0.2,1,0.3
						c0.3,0.1,0.6,0.2,0.9,0.3c0.4,0.1,0.8,0.2,1.1,0.4c0.8,0.3,1.7,0.5,2.5,0.7c1,0.3,1.9,0.5,2.9,0.8c0,0,0,0,0,0l5.4,44l52.4-6.4
						l-5.2-42.2l0,0c0.2-0.1,0.4-0.2,0.6-0.3c0.4-0.2,0.9-0.4,1.3-0.6c0.4-0.2,0.8-0.4,1.2-0.6c0.5-0.2,1-0.5,1.5-0.8
						c0.2-0.1,0.4-0.2,0.6-0.3c0,0,0.1,0,0.1-0.1c0.6-0.3,1.2-0.6,1.8-0.9c0.1-0.1,0.3-0.1,0.4-0.2c0.4-0.3,0.9-0.5,1.4-0.8
						c0.3-0.2,0.7-0.4,1-0.6c0,0,0.1,0,0.1-0.1c0.2-0.1,0.4-0.3,0.6-0.4c0.5-0.3,0.9-0.6,1.4-0.9c0.1-0.1,0.2-0.1,0.3-0.2
						c0,0,0.1-0.1,0.2-0.1c0.5-0.3,0.9-0.6,1.4-0.9c0.1-0.1,0.3-0.2,0.4-0.3c0.5-0.3,0.9-0.6,1.4-1c0.2-0.1,0.3-0.2,0.5-0.3
						c0.5-0.4,1-0.8,1.6-1.2c0.7-0.5,1.4-1.1,2.1-1.7c0.5-0.4,1-0.8,1.5-1.3c0.1-0.1,0.1-0.1,0.2-0.2c0.1-0.1,0.3-0.2,0.4-0.3
						c0.6-0.5,1.2-1,1.7-1.6c0.7-0.6,1.4-1.3,2-1.9c0.7-0.7,1.4-1.4,2.1-2.1l40.8,17.3l20.6-48.6l-39.2-16.6c0-0.1,0-0.2,0-0.3
						c0.1-1,0.2-2,0.3-3c0-0.8,0.1-1.5,0.1-2.3c0-0.2,0-0.5,0-0.7c0,0,0,0,0,0c0-0.7,0-1.3,0.1-2c0-0.7,0-1.4,0-2.1c0,0,0,0,0,0
						c0-0.2,0-0.4,0-0.6c0-0.1,0-0.1,0-0.2c0,0,0,0,0,0c0-0.5,0-1,0-1.5c0-0.3,0-0.6,0-0.8c0,0,0,0,0,0c0-0.2,0-0.4,0-0.6
						c0-0.1,0-0.2,0-0.3c0-0.3,0-0.6-0.1-0.9c0,0,0,0,0,0c0-0.6-0.1-1.1-0.1-1.7c0-0.5-0.1-1.1-0.2-1.6c0,0,0,0,0,0
						c0-0.4-0.1-0.8-0.1-1.2c0-0.4-0.1-0.9-0.2-1.3c0-0.1,0-0.3-0.1-0.4c0-0.4-0.1-0.8-0.2-1.2c-0.1-0.5-0.1-0.9-0.2-1.4
						c0-0.2-0.1-0.5-0.1-0.7c-0.1-0.5-0.2-1-0.3-1.5c-0.1-0.4-0.2-0.8-0.2-1.1c0-0.2-0.1-0.5-0.2-0.7c0,0,0-0.1,0-0.1
						c-0.1-0.4-0.2-0.7-0.3-1.1c-0.1-0.5-0.2-1-0.4-1.5c0-0.1-0.1-0.3-0.1-0.5c-0.2-0.6-0.3-1.2-0.5-1.8c0,0,0-0.1,0-0.1
						c0,0,0-0.1,0-0.2c0,0,0-0.1-0.1-0.2c0,0,0,0,0,0l35.4-26.7l-31.8-42.2l-34,25.6c0,0,0,0,0,0c-0.2-0.2-0.4-0.3-0.6-0.4
						c-3.7-2.7-7.6-5.1-11.7-7.1c-3.2-1.6-6.6-3-10-4.2c-0.6-0.2-1.2-0.4-1.8-0.6c-0.5-0.2-0.9-0.3-1.4-0.4c0,0,0,0,0,0c0,0,0,0,0,0
						c-0.6-0.2-1.2-0.4-1.8-0.5c-0.4-0.1-0.7-0.2-1.1-0.3c0,0,0,0,0,0c-0.3-0.1-0.6-0.2-1-0.3c-0.1,0-0.3-0.1-0.4-0.1
						c-0.3-0.1-0.6-0.2-0.9-0.2l-5.4-44l-52.4,6.4l5.2,42.2l0,0c-0.1,0-0.2,0.1-0.3,0.1c-0.6,0.2-1.1,0.5-1.7,0.7
						c-0.3,0.1-0.7,0.3-1,0.5c-0.2,0.1-0.4,0.2-0.6,0.3c-0.5,0.2-1,0.5-1.4,0.7c-0.1,0.1-0.3,0.1-0.4,0.2c-0.7,0.4-1.5,0.7-2.1,1.1
						c-0.6,0.3-1.1,0.6-1.6,0.9c0,0-0.1,0-0.1,0.1c-0.2,0.1-0.4,0.3-0.7,0.4c-0.2,0.1-0.5,0.3-0.7,0.4c-0.5,0.3-1,0.6-1.4,0.9
						c-0.1,0.1-0.2,0.2-0.4,0.2c-0.4,0.3-0.8,0.5-1.2,0.8c-0.4,0.3-0.8,0.5-1.2,0.8c0,0,0,0-0.1,0c-0.3,0.2-0.6,0.4-0.9,0.6
						c-0.2,0.1-0.4,0.3-0.6,0.4c-0.5,0.4-1,0.7-1.5,1.1c-0.7,0.5-1.4,1.1-2.1,1.7c-0.6,0.5-1.2,0.9-1.7,1.4c-0.7,0.6-1.3,1.2-2,1.8
						c-0.1,0.1-0.1,0.1-0.2,0.2c-0.1,0.1-0.1,0.1-0.2,0.1c-0.6,0.5-1.1,1-1.6,1.6c-0.1,0.1-0.2,0.2-0.3,0.3
						c-0.6,0.6-1.2,1.2-1.8,1.8c0,0-0.1,0.1-0.1,0.1c0,0,0,0,0,0l-40.8-17.3l-20.6,48.6l39.2,16.6c0,0,0,0,0,0c0,0.3-0.1,0.6-0.1,1
						c-0.1,0.8-0.2,1.5-0.2,2.3c-0.1,0.8-0.1,1.6-0.2,2.4c0,0.1,0,0.1,0,0.2c0,0.7-0.1,1.4-0.1,2.2c0,0.1,0,0.1,0,0.2
						c0,0.7,0,1.4,0,2c0,0.2,0,0.5,0,0.7c0,0.3,0,0.7,0,1c0,0.6,0,1.1,0.1,1.7c0,0.2,0,0.5,0,0.7c0,0.6,0.1,1.1,0.1,1.7
						c0,0.3,0,0.5,0.1,0.7c0,0,0,0.1,0,0.1c0.1,0.9,0.2,1.9,0.3,2.8c0.1,0.6,0.1,1.2,0.2,1.8c0,0.4,0.1,0.7,0.2,1.1
						c0,0.4,0.1,0.7,0.2,1.1c0.1,0.6,0.2,1.2,0.3,1.8c0,0,0,0,0,0.1c0.1,0.7,0.3,1.4,0.4,2c0,0.3,0.1,0.5,0.2,0.8
						c0.1,0.3,0.1,0.5,0.2,0.8c0,0,0,0.1,0,0.1c0.1,0.6,0.3,1.2,0.5,1.8c0.2,0.9,0.5,1.8,0.8,2.6l-35.4,26.7l31.8,42.2l34-25.6
						C1755.5,774.4,1755.7,774.5,1755.9,774.7z M1766,711.7c-2.7-21.7,12.8-41.5,34.5-44.1c21.7-2.6,41.5,12.8,44.1,34.5
						c2.7,21.7-12.8,41.4-34.5,44.1C1788.4,748.8,1768.7,733.4,1766,711.7z"/>
				</g>
			</g>
		</g>
		<g>
			<g>
				<g>
					<path class="st0" d="M83.1,977.1c0.7,0.5,1.4,1,2.1,1.5c0.5,0.4,1,0.7,1.6,1.1c0.1,0.1,0.2,0.2,0.3,0.2
						c0.4,0.2,0.8,0.5,1.1,0.7c0.1,0.1,0.2,0.1,0.3,0.2c0.2,0.1,0.4,0.2,0.6,0.3c0,0,0,0,0,0c0.6,0.4,1.3,0.8,1.9,1.2
						c0.4,0.2,0.8,0.5,1.2,0.7c0,0,0,0,0,0c0,0,0,0,0,0c1,0.6,2,1.1,3.1,1.7c0.3,0.2,0.7,0.4,1,0.5l0.1,0c0.9,0.4,1.8,0.9,2.7,1.3
						c1.9,0.9,3.8,1.7,5.7,2.4c0.9,0.4,1.8,0.7,2.8,1c0,0,0.1,0,0.1,0c0.4,0.1,0.7,0.3,1.1,0.4c0.3,0.1,0.7,0.2,1,0.3
						c0.4,0.2,0.9,0.3,1.3,0.4c1,0.3,1.9,0.6,2.9,0.8c1.1,0.3,2.2,0.6,3.3,0.9c0,0,0,0,0,0l6.1,50l59.6-7.3l-5.9-48l0,0
						c0.2-0.1,0.4-0.2,0.7-0.3c0.5-0.2,1-0.4,1.5-0.7c0.5-0.2,0.9-0.4,1.4-0.7c0.6-0.3,1.2-0.6,1.7-0.9c0.2-0.1,0.5-0.2,0.7-0.4
						c0.1,0,0.1,0,0.1-0.1c0.7-0.3,1.3-0.7,2-1.1c0.2-0.1,0.3-0.2,0.5-0.3c0.5-0.3,1-0.6,1.5-0.9c0.4-0.2,0.8-0.4,1.1-0.7
						c0,0,0.1,0,0.1-0.1c0.3-0.1,0.5-0.3,0.7-0.4c0.5-0.3,1.1-0.7,1.6-1c0.1-0.1,0.2-0.1,0.3-0.2c0.1,0,0.1-0.1,0.2-0.1
						c0.5-0.3,1-0.7,1.6-1.1c0.1-0.1,0.3-0.2,0.5-0.3c0.5-0.4,1-0.7,1.5-1.1c0.2-0.1,0.4-0.3,0.5-0.4c0.6-0.4,1.2-0.9,1.8-1.3
						c0.8-0.6,1.6-1.3,2.4-1.9c0.6-0.5,1.2-1,1.7-1.5c0.1-0.1,0.1-0.1,0.2-0.2c0.2-0.1,0.3-0.2,0.4-0.3c0.7-0.6,1.3-1.2,2-1.8
						c0.8-0.7,1.6-1.4,2.3-2.2c0.8-0.8,1.6-1.6,2.4-2.4l46.4,19.7l23.5-55.3l-44.5-18.9c0-0.1,0-0.2,0-0.3c0.1-1.1,0.2-2.3,0.3-3.4
						c0.1-0.9,0.1-1.7,0.1-2.6c0-0.3,0-0.5,0-0.8c0,0,0,0,0,0c0-0.8,0.1-1.5,0.1-2.3c0-0.8,0-1.6,0-2.4c0,0,0,0,0,0
						c0-0.2,0-0.5,0-0.7c0-0.1,0-0.1,0-0.2c0,0,0,0,0,0c0-0.6,0-1.1,0-1.7c0-0.3,0-0.6,0-0.9c0,0,0,0,0,0c0-0.2,0-0.5,0-0.7
						c0-0.1,0-0.3,0-0.4c0-0.3-0.1-0.7-0.1-1c0,0,0,0,0,0c0-0.6-0.1-1.3-0.1-1.9c0-0.6-0.1-1.2-0.2-1.8c0,0,0,0,0,0
						c-0.1-0.5-0.1-0.9-0.1-1.4c0-0.5-0.1-1-0.2-1.5c0-0.2,0-0.3-0.1-0.5c-0.1-0.4-0.1-0.9-0.2-1.3c-0.1-0.5-0.2-1-0.3-1.6
						c-0.1-0.3-0.1-0.6-0.1-0.8c-0.1-0.6-0.2-1.2-0.3-1.7c-0.1-0.4-0.2-0.9-0.3-1.3c0-0.3-0.1-0.5-0.2-0.8c0,0,0-0.1,0-0.1
						c-0.1-0.4-0.2-0.8-0.3-1.3c-0.1-0.6-0.3-1.1-0.4-1.7c0-0.2-0.1-0.3-0.1-0.5c-0.2-0.7-0.4-1.4-0.6-2.1c0,0,0-0.1,0-0.1
						c0-0.1,0-0.1,0-0.2c0-0.1,0-0.1-0.1-0.2c0,0,0,0,0,0l40.2-30.3l-36.1-47.9L196,823.4c0,0,0,0,0,0c-0.2-0.2-0.4-0.3-0.7-0.5
						c-4.2-3.1-8.7-5.8-13.3-8.1c-3.7-1.8-7.5-3.4-11.3-4.8c-0.7-0.2-1.4-0.4-2.1-0.7c-0.5-0.2-1.1-0.3-1.6-0.5c0,0,0,0,0,0
						c0,0,0,0,0,0c-0.7-0.2-1.4-0.4-2.1-0.6c-0.4-0.1-0.8-0.2-1.2-0.3c0,0,0,0,0,0c-0.4-0.1-0.7-0.2-1.1-0.3c-0.2,0-0.3-0.1-0.5-0.1
						c-0.4-0.1-0.7-0.2-1.1-0.3l-6.1-50l-59.6,7.3l5.9,48l0,0c-0.1,0-0.3,0.1-0.4,0.2c-0.6,0.3-1.3,0.6-1.9,0.8
						c-0.4,0.2-0.8,0.3-1.1,0.5c-0.2,0.1-0.4,0.2-0.6,0.3c-0.6,0.3-1.1,0.5-1.6,0.8c-0.1,0.1-0.3,0.1-0.4,0.2
						c-0.8,0.4-1.6,0.8-2.4,1.3c-0.6,0.3-1.2,0.7-1.9,1.1c0,0-0.1,0-0.1,0.1c-0.3,0.2-0.5,0.3-0.8,0.4c-0.3,0.2-0.5,0.3-0.8,0.5
						c-0.5,0.3-1.1,0.7-1.6,1c-0.1,0.1-0.3,0.2-0.4,0.3c-0.5,0.3-0.9,0.6-1.3,0.9c-0.5,0.3-0.9,0.6-1.3,0.9c0,0,0,0-0.1,0.1
						c-0.3,0.2-0.7,0.5-1,0.7c-0.2,0.2-0.4,0.3-0.6,0.5c-0.6,0.4-1.1,0.8-1.7,1.2c-0.8,0.6-1.6,1.3-2.4,1.9c-0.7,0.5-1.3,1.1-2,1.6
						c-0.8,0.7-1.5,1.3-2.3,2c-0.1,0.1-0.2,0.2-0.2,0.2c-0.1,0.1-0.1,0.1-0.2,0.2c-0.6,0.6-1.2,1.2-1.8,1.8
						c-0.1,0.1-0.3,0.2-0.4,0.4c-0.7,0.7-1.3,1.3-2,2c-0.1,0-0.1,0.1-0.1,0.1c0,0,0,0,0,0L23.5,815L0,870.2l44.5,18.9c0,0,0,0,0,0
						c0,0.4-0.1,0.7-0.1,1.1c-0.1,0.9-0.2,1.7-0.2,2.6c-0.1,0.9-0.1,1.9-0.2,2.8c0,0.1,0,0.2,0,0.2c0,0.8-0.1,1.6-0.1,2.4
						c0,0.1,0,0.2,0,0.2c0,0.8,0,1.6,0,2.3c0,0.3,0,0.5,0,0.8c0,0.4,0,0.7,0,1.1c0,0.6,0,1.3,0.1,1.9c0,0.3,0,0.5,0.1,0.8
						c0,0.6,0.1,1.3,0.1,1.9c0,0.3,0,0.6,0.1,0.8c0,0.1,0,0.1,0,0.1c0.1,1.1,0.2,2.2,0.3,3.2c0.1,0.7,0.2,1.4,0.3,2
						c0.1,0.4,0.1,0.8,0.2,1.2c0,0.4,0.1,0.8,0.2,1.2c0.1,0.7,0.2,1.3,0.4,2c0,0,0,0.1,0,0.1c0.1,0.8,0.3,1.5,0.5,2.3
						c0,0.3,0.1,0.6,0.2,0.9c0.1,0.3,0.1,0.6,0.2,0.9c0,0,0,0.1,0,0.1c0.2,0.7,0.3,1.4,0.5,2.1c0.3,1,0.5,2,0.9,3L7.7,957.7
						l36.1,47.9l38.6-29.1C82.7,976.8,82.9,976.9,83.1,977.1z M94.6,905.5c-3-24.7,14.5-47.1,39.2-50.1c24.7-3,47.1,14.5,50.1,39.2
						c3,24.7-14.5,47.1-39.2,50.1C120,947.7,97.6,930.2,94.6,905.5z"/>
				</g>
			</g>
		</g>
		<g>
			<g>
				<g>
					<g>
						<g>
							<rect x="693" y="181.1" class="st0" width="31.6" height="95.4"/>
						</g>
					</g>
				</g>
			</g>
			<g>
				<g>
					<g>
						<g>
							<rect x="622.7" y="214.5" class="st0" width="31.6" height="61.9"/>
						</g>
					</g>
				</g>
			</g>
			<g>
				<g>
					<g>
						<g>
							<rect x="552.4" y="181.1" class="st0" width="31.6" height="95.4"/>
						</g>
					</g>
				</g>
			</g>
			<g>
				<g>
					<g>
						<g>
							<rect x="482.1" y="208.4" class="st0" width="31.6" height="68"/>
						</g>
					</g>
				</g>
			</g>
			<g>
				<g>
					<g>
						<g>
							<rect x="411.8" y="219.1" class="st0" width="31.6" height="57.4"/>
						</g>
					</g>
				</g>
			</g>
			<g>
				<g>
					<g>
						<g>
							<rect x="341.5" y="242.4" class="st0" width="31.6" height="34"/>
						</g>
					</g>
				</g>
			</g>
		</g>
		<g>
			<g>
				<g>
					<g>
						<path class="st0" d="M1881.7,1208.8c0,0-46,17.2-90,60.7c-41.7,41.3-64.6,80.5-64.6,80.5c33.7-10.1,65.6-27.8,93.3-53.1
							C1848,1271.7,1868.5,1241.4,1881.7,1208.8z"/>
					</g>
				</g>
			</g>
			<g>
				<g>
					<g>
						<path class="st0" d="M1769.2,1359.5c-25.4,1.2-49.3,8.1-70.3,19.5h0h0c0,0,0,0,0,0c22,9.3,46.3,13.9,71.8,12.7
							c25.4-1.2,49.3-8.1,70.3-19.4C1819,1363,1794.7,1358.3,1769.2,1359.5z"/>
					</g>
				</g>
			</g>
			<g>
				<g>
					<g>
						<path class="st0" d="M1676.8,1228.3c-5,23.3-5,48.1,0.9,72.9c5.9,24.8,17.2,46.9,32.3,65.4c5-23.3,5-48.1-0.9-72.9
							C1703.1,1268.9,1691.9,1246.8,1676.8,1228.3z"/>
					</g>
				</g>
			</g>
			<g>
				<g>
					<g>
						<path class="st0" d="M1765.1,1565.1c29.3-16.3,34.7-34.6,20.7-55.9c-14-21.3-32.1-38.3-52.5-50.6c0,0,2.1,35.3,25.6,68.3
							C1770.6,1543.3,1772.5,1555.5,1765.1,1565.1z"/>
					</g>
				</g>
			</g>
			<g>
				<g>
					<g>
						<path class="st0" d="M1750.4,1429.4c-0.7-0.2-1.4-0.4-2-0.6l-3.5-0.9c-1.2-0.3-2.3-0.6-3.5-0.8l-1.7-0.4l-1.8-0.4l-3.5-0.7
							c-4.7-0.9-9.4-1.7-14.2-2.4c-9.5-1.2-19.1-1.9-28.7-2.1c-9.5-0.1-19,0.2-28.4,1.4c0.2-0.3,0.4-0.6,0.6-0.9
							c6.4-8.5,13-16.8,19.8-24.9c6.8-8.1,13.9-16.1,21.1-23.9c3.6-3.9,7.3-7.7,11-11.5c3.7-3.8,7.5-7.5,11.4-11.2
							c-3.9,3.6-7.7,7.3-11.5,11.1c-3.7,3.8-7.4,7.6-11.1,11.5c-7.3,7.8-14.3,15.7-21.2,23.9c-6.8,8.1-13.5,16.4-19.9,24.9
							c-1.8,2.4-3.6,4.7-5.3,7.1c-0.4-3.2-0.9-6.4-1.7-9.5c-0.8-3.2-1.7-6.4-2.7-9.5c-1.1-3.1-2.2-6.2-3.5-9.3c-1.3-3-2.7-6.1-4.2-9
							c0.7,1.5,1.4,3,2,4.5c0.7,1.5,1.3,3,1.9,4.6c1.2,3.1,2.4,6.2,3.4,9.3c1.1,3.1,2,6.3,2.8,9.5l0.6,2.4c0.2,0.8,0.3,1.6,0.5,2.4
							c0.4,1.5,0.6,3.1,0.9,4.6c-4.6,6.2-9,12.4-13.3,18.8c-1.5,2.2-3,4.4-4.4,6.6c-1.4,2.2-2.9,4.4-4.3,6.7l-4.2,6.8l-4.1,6.8
							c-0.7,1.1-1.4,2.3-2,3.4l-2,3.5l-2,3.5c-0.7,1.2-1.3,2.3-2,3.5l-3.8,7l-0.9,1.8l-0.9,1.8l-1.8,3.5c-2.5,4.7-4.7,9.5-7,14.3
							c-1.1,2.4-2.2,4.8-3.3,7.3l-1.6,3.6c-0.5,1.2-1,2.4-1.5,3.7l-3,7.4l-2.8,7.5l-1.4,3.7l-1.3,3.8l-1.6,4.8h-0.3
							c0.2-6.5,0.4-13.1,0.7-19.6c0.7-16.8,1.5-33.6,2.5-50.3c1-16.8,2.3-33.5,3.7-50.3c0.9-10,1.8-19.9,2.8-29.9
							c3.2,2.1,6.5,3.8,9.9,5c22.1,7.6,46-1.4,46-1.4c-10.2-10-22.7-17.9-37.1-22.7c-5.4-1.8-10.9-3.2-16.3-4l1.1-9.6l1.5-12.5
							c0.1-1,0.2-1.9,0.4-2.9c20.6,21.8,42.6,31.3,42.6,31.3c0,0,0,0,0,0s0,0,0,0c0,0,0,0,0,0c-4.6-23.4-14.5-46.2-29.7-66.6
							c-2.2-2.9-4.5-5.4-6.8-7.5l0.7-4.2l1-6.2l1-6.2l1-6.2c0.4-2.1,0.7-4.1,1.1-6.2l2.3-12.4c0.4-2.1,0.8-4.1,1.2-6.2l1.2-6.2
							l1.2-6.2c0.4-2.1,0.9-4.1,1.3-6.2l0.2-1.1c1.4-0.4,34.8-9.3,62.2-38c14-14.6,25.5-18.7,36.3-13.3
							c-21.5-25.7-40.5-27.6-58.8-9.8c-18.2,17.7-31.4,38.5-39.6,60.7l2.3-10.9c2.2-10,4.6-19.9,7.1-29.8c0,0,0.1,0.1,0.1,0.1l0,0
							l0,0l0,0c0,0,0-0.1-0.1-0.3c1.6-6.3,3.3-12.6,5-18.9l0,0c0,0,29.3-34.7,54.2-87.9c26.2-56,27.1-105.1,27.1-105.1
							c-26.3,23.3-48,52.7-62.5,87.3c-14.6,34.6-20.5,70.6-18.8,105.7c-1.8,6.2-3.4,12.5-5,18.7c-1.1-3.7-9.5-31.2-28.2-62.5
							c-21.2-35.5-48.1-54.4-48.1-54.4c3,23.3,11.2,46.3,24.9,67.3c13.6,20.9,31.3,37.7,51.3,49.9c-2.6,9.9-5,19.8-7.3,29.8
							l-2.7,12.3c-0.4,2.1-0.9,4.1-1.3,6.2l-1.2,6.2l-1.2,6.2c-0.4,2.1-0.8,4.1-1.2,6.2l-2.3,12.4c-1.7,9.6-3.3,19.2-4.8,28.8
							c-14-12.4-31-10.4-52.5,8.3c11.5-3.7,22.3,2.2,33.8,18.8c4,5.8,8.3,10.9,12.6,15.6c-1.1,8.4-2.1,16.9-3.1,25.3
							c-8.9-1.4-17.9-1.5-26.6-0.4c-0.4-0.2,10.6,14.4,24.1,23.4c-1,10-1.9,20.1-2.8,30.1c-1.4,16.7-2.6,33.5-3.6,50.3
							c-1.4,23.3-2.5,46.6-3.1,69.9h-0.6l-0.3-5.9l-0.1-2.2l-0.1-1.1l-0.1-1.1l-0.4-4.3l-0.4-4.3l-0.2-2.2l-0.3-2.2l-1.1-8.6
							l-0.1-1.1l-0.2-1.1l-0.3-2.1l-0.7-4.3l-0.7-4.3l-0.8-4.3c-0.5-2.8-1-5.7-1.6-8.5l-1.8-8.5c-5-22.6-11.5-44.9-19.1-66.8
							c-3.8-10.9-7.9-21.8-12.3-32.5c-4.4-10.7-8.9-21.4-13.8-31.9c-6.4-14-13.1-27.8-20.3-41.3c19.5-13.7,36.3-31.8,48.7-54
							c12.5-22.2,19.2-46.1,20.7-69.9c-19.5,13.7-36.4,31.9-48.8,54.1c-12.4,22.1-19.1,45.8-20.7,69.5c-3.6-6.8-7.4-13.6-11.3-20.2
							c2.9,5,5.7,10.1,8.4,15.2c0.9,1.8,1.9,3.5,2.8,5.3c0,0,0,0.1,0,0.1v0v0v0c0,0,0,0,0.1,0c1.7,3.3,3.5,6.7,5.2,10
							c5.2,10.3,10.2,20.8,15,31.3c3.6,8,7.1,16.1,10.5,24.2c-8.8-3.6-17.9-6.4-27.1-8.7c-9.3-2.4-18.7-4.2-28.2-5.5
							c-4.8-0.6-9.5-1.1-14.3-1.5l-3.6-0.2l-1.8-0.1l-1.8-0.1c-1.2,0-2.4-0.1-3.6-0.1l-3.6,0c-1.2,0-2.4,0-3.6,0
							c-1.2,0-2.4,0-3.6,0.1c-2.4,0.1-4.8,0.1-7.2,0.3c-4.8,0.3-9.5,0.8-14.3,1.5c-22.5-8.1-47-11.4-72.4-8.8
							c-25.3,2.6-48.7,10.8-69.1,23.3c-1,0,41.1,22.7,72.3,19.7c39-3.8,69.1-34.2,69.1-34.2l0,0c4.8-0.5,9.5-1,14.3-1.2
							c2.4-0.2,4.8-0.2,7.2-0.3c1.2,0,2.4,0,3.6,0c1.2,0,2.4,0,3.6,0l3.6,0.1c1.2,0,2.4,0.1,3.6,0.1l1.8,0.1l1.8,0.1l3.6,0.2
							c4.8,0.4,9.5,0.9,14.3,1.5c9.5,1.3,18.9,3,28.2,5.3c4.6,1.2,9.3,2.4,13.8,3.8c4.5,1.4,9,2.9,13.3,4.6c1.1,2.6,2.1,5.1,3.2,7.7
							c4.3,10.7,8.4,21.6,12.2,32.5c7.7,21.8,14.2,44.1,19.3,66.7l1.8,8.5c0.6,2.8,1.1,5.7,1.6,8.5l0.8,4.3l0.7,4.3l0.7,4.3l0.3,2.1
							l0.2,1.1l0.1,1.1l1.1,8.6l0.3,2.2l0.2,2.2l0.4,4.3l0.4,4.3l0.1,1.1l0.1,1.1l0.1,2.2l0.4,5.9h-88.2v30.1h0v1.3h0v145.3H1676
							v-176.7h-87.4l1.7-4.8l1.3-3.8l1.4-3.7l2.9-7.4l3.1-7.3c0.5-1.2,1-2.5,1.6-3.7l1.6-3.6c1.1-2.4,2.2-4.9,3.3-7.3
							c2.3-4.8,4.6-9.6,7.1-14.3l1.8-3.5l0.9-1.8l1-1.7l3.8-7c0.6-1.2,1.3-2.3,2-3.5l2-3.5l2-3.5c0.7-1.1,1.4-2.3,2-3.4l4.1-6.8
							l4.3-6.7c1.4-2.3,2.9-4.5,4.3-6.7c1.5-2.2,2.9-4.4,4.4-6.6c5.7-8.5,11.7-16.8,17.9-25.1c4.7-0.5,9.4-0.8,14-1
							c4.8-0.2,9.6-0.2,14.4-0.1c5,0.1,10,0.4,14.9,0.8c2.7,2.5,5.3,5.1,7.8,7.9c1.8,2.1,3.6,4.2,5.3,6.4
							c-10,6.4-18.7,15.1-25.4,25.8c-6.7,10.8-10.6,22.6-11.9,34.4c10.1-6.4,18.9-15.1,25.6-25.9c6.7-10.7,10.5-22.4,11.9-34.1
							c0.6,0.8,1.2,1.5,1.7,2.3c0.6,0.8,1.1,1.5,1.7,2.3c0.5,0.8,1.1,1.6,1.6,2.4l1.6,2.4c0.3,0.4,0.5,0.8,0.8,1.2l0.7,1.2
							c2,3.3,3.8,6.7,5.5,10.1l-1.2-2.6c-0.4-0.9-0.8-1.7-1.3-2.6l-1.3-2.5c-0.4-0.9-1-1.7-1.4-2.5c-1.9-3.3-4.1-6.5-6.3-9.6
							c-2.3-3.1-4.7-6.1-7.3-8.9c-1.3-1.4-2.6-2.8-4-4.1c-1.3-1.2-2.6-2.4-4-3.5c4.6,0.4,9.1,0.9,13.7,1.5c4.7,0.6,9.5,1.4,14.2,2.3
							l3.5,0.7l1.8,0.4l1.7,0.4c1.2,0.3,2.3,0.5,3.5,0.8l3.5,0.9c0.6,0.2,1.3,0.3,1.9,0.5c8.9,7.9,19.6,13.9,31.7,17.4
							c12.2,3.5,24.6,4.1,36.4,2.1c-8.9-7.9-19.7-14-31.9-17.6C1774.3,1428,1762,1427.5,1750.4,1429.4z"/>
					</g>
				</g>
			</g>
			<g>
				<g>
					<g>
						<path class="st0" d="M1391.1,1121.1c3.8,34.9,15.3,69.6,35,101.5c19.8,31.9,45.7,57.6,75.4,76.5c0,0-11.4-44-40.3-95.1
							C1430.7,1150.2,1391.1,1121.1,1391.1,1121.1z"/>
					</g>
				</g>
			</g>
			<g>
				<g>
					<g>
						<path class="st0" d="M1520.1,1334.4c-17.1-16.6-38.2-29.8-62.3-37.8c-24.1-8.1-48.9-10.2-72.5-7.3
							c17.1,16.6,38.2,29.8,62.3,37.8C1471.7,1335.2,1496.4,1337.3,1520.1,1334.4z"/>
					</g>
				</g>
			</g>
			<g>
				<g>
					<g>
						<path class="st0" d="M1502.6,1416c-3.5-12.2-9.6-22.9-17.4-31.8c2.2-1.7,4.5-3.2,6.9-4.7c3.2-2.1,6.5-4,10-5.7
							c-1.8,0.7-3.5,1.6-5.2,2.5c-1.7,0.9-3.4,1.9-5,2.9c-3.3,2-6.4,4.2-9.5,6.6c-3,2.4-6,4.9-8.7,7.6c-0.7,0.7-1.4,1.3-2,2l-2,2.1
							c-0.7,0.7-1.3,1.4-1.9,2.2l-1.9,2.2c2.6-2.8,5.2-5.6,8.1-8.2l1.1-1c0.3-0.3,0.7-0.7,1.1-1l2.2-1.9c0.7-0.6,1.5-1.2,2.2-1.8
							c0.7-0.6,1.5-1.2,2.3-1.8c0.8-0.6,1.5-1.2,2.3-1.8c-1.9,11.7-1.4,23.9,2.1,36.1c3.5,12.2,9.6,23,17.6,31.9
							C1506.7,1440.6,1506.1,1428.2,1502.6,1416z"/>
					</g>
				</g>
			</g>
			<g>
				<g>
					<g>
						<path class="st0" d="M1406.3,1495.5c-4.5-11.2,0.6-22.4,16.4-35c31.5-25.3,43.2-58.7,43.2-58.7c-23,6.3-45,17.7-64.3,34.4
							C1382.3,1452.8,1382.5,1471.9,1406.3,1495.5z"/>
					</g>
				</g>
			</g>
		</g>
		<g>
			<g>
				<g>
					<path class="st0" d="M851.4,17.8h365.1c6.2,0,11.3,5.1,11.3,11.3v84.6c0,6.2-5.1,11.3-11.3,11.3h-16.4
						c-0.2,4.8,0.5,13.6,7.2,19.3c0,0-18.3-1.5-23.4-19.3H851.4c-6.2,0-11.3-5.1-11.3-11.3V29C840.1,22.8,845.1,17.8,851.4,17.8z"/>
				</g>
			</g>
		</g>
		<g>
			<g>
				<g>
					<path class="st0" d="M568.9,938h255.6c4.4,0,7.9,3.5,7.9,7.9v59.3c0,4.4-3.5,7.9-7.9,7.9h-11.5c-0.1,3.3,0.4,9.5,5,13.5
						c0,0-12.8-1-16.4-13.5H568.9c-4.4,0-7.9-3.5-7.9-7.9v-59.3C561,941.6,564.5,938,568.9,938z"/>
				</g>
			</g>
		</g>
		<g>
			<g>
				<g>
					<path class="st0" d="M429.1,69.9H285.4c-4.1,0-7.5,3.4-7.5,7.5v56.4c0,4.1,3.4,7.5,7.5,7.5h10.9c0.1,3.2-0.4,9.1-4.8,12.9
						c0,0,12.2-1,15.6-12.9h122c4.2,0,7.5-3.4,7.5-7.5V77.4C436.6,73.2,433.3,69.9,429.1,69.9z"/>
				</g>
			</g>
		</g>
		<g>
			<g>
				<g>
					<g>
						<g>
							<rect x="359.3" y="1670.7" class="st1" width="132.7" height="63.7"/>
						</g>
					</g>
				</g>
				<g>
					<g>
						<g>
							<rect x="192" y="1670.7" class="st0" width="167.3" height="63.7"/>
						</g>
					</g>
				</g>
				<g>
					<g>
						<g>
							<rect x="359.3" y="1670.7" class="st0" width="137" height="5.2"/>
						</g>
					</g>
				</g>
				<g>
					<g>
						<g>
							<rect x="432.6" y="1687.7" class="st0" width="61.4" height="1.3"/>
						</g>
					</g>
				</g>
				<g>
					<g>
						<g>
							<rect x="359.3" y="1729.1" class="st0" width="137" height="5.2"/>
						</g>
					</g>
				</g>
				<g>
					<g>
						<g>
							<rect x="208.8" y="1670.7" class="st1" width="12.3" height="63.7"/>
						</g>
					</g>
				</g>
				<g>
					<g>
						<g>
							<rect x="336.8" y="1670.7" class="st1" width="3.1" height="63.7"/>
						</g>
					</g>
				</g>
				<g>
					<g>
						<g>
							<rect x="326.4" y="1670.7" class="st1" width="3.1" height="63.7"/>
						</g>
					</g>
				</g>
				<g>
					<g>
						<g>
							<polygon class="st0" points="491,1712.2 477.2,1712.2 464.3,1689 478.1,1689 							"/>
						</g>
					</g>
				</g>
				<g>
					<g>
						<g>
							<g>
								<path class="st1" d="M246.1,1693v19h-4.9v-8h-1.5v8h-4.9v-19h4.9v6.8h1.5v-6.8H246.1z"/>
							</g>
						</g>
					</g>
					<g>
						<g>
							<g>
								<path class="st1" d="M253.1,1693v19h-4.9v-19H253.1z"/>
							</g>
						</g>
					</g>
					<g>
						<g>
							<g>
								<path class="st1" d="M265.5,1698.8h-4.6v-1.4c0-0.7-0.1-1.1-0.2-1.3c-0.1-0.2-0.3-0.3-0.6-0.3c-0.3,0-0.5,0.1-0.7,0.4
									c-0.2,0.2-0.2,0.6-0.2,1.1c0,0.6,0.1,1.1,0.3,1.4c0.2,0.3,0.6,0.7,1.4,1.2c2.2,1.3,3.6,2.4,4.2,3.2c0.6,0.8,0.9,2.2,0.9,4.1
									c0,1.4-0.2,2.4-0.5,3c-0.3,0.6-0.9,1.2-1.8,1.6c-0.9,0.4-2,0.7-3.2,0.7c-1.3,0-2.5-0.3-3.4-0.8c-0.9-0.5-1.5-1.1-1.8-1.9
									c-0.3-0.8-0.4-1.9-0.4-3.3v-1.2h4.6v2.3c0,0.7,0.1,1.2,0.2,1.4c0.1,0.2,0.4,0.3,0.7,0.3c0.3,0,0.6-0.1,0.7-0.4
									c0.2-0.3,0.2-0.6,0.2-1.2c0-1.1-0.2-1.9-0.5-2.2c-0.3-0.3-1.1-0.9-2.3-1.7c-1.2-0.8-2-1.4-2.4-1.8c-0.4-0.4-0.7-0.9-1-1.5
									c-0.3-0.6-0.4-1.5-0.4-2.5c0-1.5,0.2-2.5,0.6-3.2c0.4-0.7,1-1.2,1.8-1.6c0.8-0.4,1.8-0.6,3-0.6c1.3,0,2.4,0.2,3.3,0.6
									c0.9,0.4,1.5,0.9,1.8,1.6c0.3,0.6,0.4,1.7,0.4,3.2V1698.8z"/>
							</g>
						</g>
					</g>
					<g>
						<g>
							<g>
								<path class="st1" d="M277.4,1693v3.8h-2.9v15.2h-4.9v-15.2h-2.9v-3.8H277.4z"/>
							</g>
						</g>
					</g>
					<g>
						<g>
							<g>
								<path class="st1" d="M289.9,1704.1c0,1.9,0,3.3-0.1,4.1c-0.1,0.8-0.4,1.5-0.8,2.2c-0.5,0.7-1.1,1.2-1.9,1.5
									c-0.8,0.4-1.7,0.5-2.8,0.5c-1,0-1.9-0.2-2.7-0.5c-0.8-0.3-1.5-0.8-2-1.5c-0.5-0.7-0.8-1.4-0.9-2.2c-0.1-0.8-0.1-2.2-0.1-4.1
									v-3.3c0-1.9,0-3.3,0.1-4.1c0.1-0.8,0.4-1.5,0.8-2.2c0.5-0.7,1.1-1.2,1.9-1.5c0.8-0.4,1.7-0.5,2.8-0.5c1,0,1.9,0.2,2.7,0.5
									c0.8,0.3,1.5,0.8,2,1.5c0.5,0.7,0.8,1.4,0.9,2.2c0.1,0.8,0.1,2.2,0.1,4.1V1704.1z M284.9,1697.9c0-0.9,0-1.5-0.1-1.7
									c-0.1-0.2-0.3-0.4-0.6-0.4c-0.3,0-0.5,0.1-0.6,0.3c-0.1,0.2-0.2,0.8-0.2,1.8v8.9c0,1.1,0,1.8,0.1,2c0.1,0.3,0.3,0.4,0.6,0.4
									c0.3,0,0.6-0.1,0.6-0.4c0.1-0.3,0.1-1,0.1-2.1V1697.9z"/>
							</g>
						</g>
					</g>
					<g>
						<g>
							<g>
								<path class="st1" d="M291.7,1693h3.5c2.3,0,3.9,0.1,4.7,0.3c0.8,0.2,1.5,0.6,2,1.4c0.5,0.7,0.8,1.9,0.8,3.5
									c0,1.5-0.2,2.5-0.6,3c-0.4,0.5-1.1,0.8-2.2,0.9c1,0.2,1.6,0.6,2,1c0.3,0.4,0.5,0.8,0.6,1.1c0.1,0.3,0.1,1.3,0.1,2.8v5h-4.6
									v-6.3c0-1-0.1-1.6-0.2-1.9c-0.2-0.2-0.6-0.4-1.3-0.4v8.6h-4.9V1693z M296.7,1696.3v4.2c0.6,0,0.9-0.1,1.2-0.2
									c0.2-0.2,0.3-0.6,0.3-1.5v-1c0-0.6-0.1-1-0.3-1.2C297.6,1696.3,297.2,1696.3,296.7,1696.3z"/>
							</g>
						</g>
					</g>
					<g>
						<g>
							<g>
								<path class="st1" d="M315.2,1693l-3.6,12.1v6.9H307v-6.9l-3.5-12.1h4.5c0.7,3.7,1.1,6.2,1.2,7.5c0.3-2,0.7-4.5,1.4-7.5
									H315.2z"/>
							</g>
						</g>
					</g>
				</g>
			</g>
			<g>
				<g>
					<g>
						<g>
							<rect x="372.3" y="1571.3" class="st1" width="113.9" height="54.6"/>
						</g>
					</g>
				</g>
				<g>
					<g>
						<g>
							<rect x="228.7" y="1571.3" class="st0" width="143.6" height="54.6"/>
						</g>
					</g>
				</g>
				<g>
					<g>
						<g>
							<rect x="372.3" y="1571.3" class="st0" width="117.6" height="4.5"/>
						</g>
					</g>
				</g>
				<g>
					<g>
						<g>
							<rect x="435.2" y="1585.9" class="st0" width="52.7" height="1.1"/>
						</g>
					</g>
				</g>
				<g>
					<g>
						<g>
							<rect x="372.3" y="1621.4" class="st0" width="117.6" height="4.5"/>
						</g>
					</g>
				</g>
				<g>
					<g>
						<g>
							<rect x="243.1" y="1579.1" class="st1" width="10.6" height="38.9"/>
						</g>
					</g>
				</g>
				<g>
					<g>
						<g>
							<rect x="278.8" y="1579.1" class="st1" width="71" height="38.9"/>
						</g>
					</g>
				</g>
				<g>
					<g>
						<g>
							<polygon class="st0" points="485.4,1606.9 473.5,1606.9 462.4,1587 474.3,1587 							"/>
						</g>
					</g>
				</g>
			</g>
			<g>
				<g>
					<g>
						<g>
							<g>
								<path class="st2" d="M455,1670.7H270.3c-12.2,0-22.2-9.9-22.2-22.2v-0.4c0-12.2,9.9-22.2,22.2-22.2H455V1670.7z"/>
							</g>
						</g>
					</g>
				</g>
				<g>
					<g>
						<g>
							<g>
								<path class="st1" d="M458.9,1667h-74.6c-10.3,0-18.7-8.4-18.7-18.7v0c0-10.3,8.4-18.7,18.7-18.7h74.6V1667z"/>
							</g>
						</g>
					</g>
				</g>
				<g>
					<g>
						<g>
							<g>
								<rect x="365.7" y="1625.9" class="st2" width="96.3" height="3.7"/>
							</g>
						</g>
					</g>
				</g>
				<g>
					<g>
						<g>
							<g>
								<rect x="417.2" y="1637.9" class="st2" width="43.2" height="0.9"/>
							</g>
						</g>
					</g>
				</g>
				<g>
					<g>
						<g>
							<g>
								<rect x="365.7" y="1667" class="st2" width="96.3" height="3.7"/>
							</g>
						</g>
					</g>
				</g>
				<g>
					<g>
						<g>
							<g>
								<path class="st1" d="M351,1663.2h-79.6c-8.2,0-14.9-6.7-14.9-14.9c0-4.1,1.7-7.9,4.4-10.6c2.7-2.7,6.4-4.4,10.6-4.4H351
									c-0.7,0.5-1.3,1.1-2,1.7c-3.4,3.4-5.5,8.1-5.5,13.2C343.5,1654.4,346.5,1659.8,351,1663.2z"/>
							</g>
						</g>
					</g>
				</g>
				<g>
					<g>
						<g>
							<g>
								<path class="st2" d="M340.7,1665.5c-0.2,0-0.4-0.1-0.6-0.2c-5.4-4.1-8.5-10.2-8.5-17c0-5.7,2.2-11,6.2-15
									c0.7-0.7,1.4-1.3,2.2-1.9c0.4-0.3,1.1-0.2,1.4,0.2c0.3,0.4,0.2,1.1-0.2,1.4c-0.7,0.5-1.4,1.1-2,1.8
									c-3.6,3.6-5.6,8.5-5.6,13.6c0,6.1,2.8,11.7,7.7,15.4c0.4,0.3,0.5,1,0.2,1.4C341.3,1665.3,341,1665.5,340.7,1665.5z"/>
							</g>
						</g>
					</g>
				</g>
			</g>
		</g>
		<g>
			<g>
				<g>
					<path d="M1392.6,1184c-0.2-2-4.3-49.5,8.1-79.1l14.9,6.3c-10.8,25.9-6.9,70.9-6.9,71.3L1392.6,1184z"/>
				</g>
			</g>
			<g>
				<path class="st3" d="M1550.4,1734.8c0,0-27.4-222.3,43.6-457.1c10.6-35.2-9.6-72.2-45-82.1c-66.3-18.6-177-38.5-301.9-15.7
					c-29.7,5.4-51.9,30.3-53.7,60.4c-6.2,99.8-13,330.7,46.1,494.6L1550.4,1734.8z"/>
			</g>
			<g>
				<path class="st3" d="M1549.1,1036.2c-4,17.1-7.2,33.9-9.9,50.4c-4.2,25.8-28.2,43.5-54.1,40c-20.4-2.8-44.7-5.2-72.1-6h0
					c-13.2-0.4-27.1-0.5-41.6-0.1c-11.4,0.3-23.1,0.9-35.1,1.9c-1.1,0.1-2.2,0.2-3.3,0.3c-30.1,2.6-55.1-22.8-52.1-52.8
					c1.7-17.1,3.6-31.9,5.2-43.6c1.9-13.7,9.5-25.7,20.6-33.2c0,0,0.1-0.1,0.1-0.1c4.1-2.8,8.6-4.9,13.5-6.4
					c7.1-2.1,14.1-4,20.9-5.6c80.7-19.9,139-12.3,174.8-1.7C1540.4,986.5,1554.8,1011.5,1549.1,1036.2z"/>
			</g>
			<g>
				<path d="M1392.6,1184c0,0,147.3-12.4,150.8,136c3.6,148.3-16.7,241.5-16.7,241.5S1551.3,1221.1,1392.6,1184z"/>
			</g>
			<g>
				<path d="M1371.5,1120.5c-11.4,0.3-23.1,0.9-35.1,1.9c-1.1,0.1-2.2,0.2-3.3,0.3c-30.1,2.6-55.1-22.8-52.1-52.8
					c1.7-17.1,3.6-31.9,5.2-43.6c1.9-13.7,9.5-25.7,20.6-33.2c0,0,0.1-0.1,0.1-0.1c4.1-2.8,8.6-4.9,13.5-6.4
					c7.1-2.1,14.1-4,20.9-5.6C1369.1,1007.8,1371.3,1104.2,1371.5,1120.5z"/>
			</g>
			<g>
				<path d="M1413.1,1114c-17,0.1-33.9,0.3-50.8,0.9c-8.5,0.2-16.9,0.4-25.4,1l-3.2,0.2c-1.1,0-2.1,0.1-3.2,0.2c-1.1,0-2.1,0-3.2,0
					l-1.6-0.1l-1.6-0.2c-2.1-0.2-4.2-0.6-6.3-1.1c-2.1-0.5-4.1-1.1-6.1-2c-8-3.1-15.1-8.5-20.3-15.5c-2.6-3.5-4.7-7.3-6.2-11.3
					c-1.6-4-2.5-8.3-2.8-12.7c-0.4-4.3,0.1-8.7,0.6-12.9l1.6-12.6c1.1-8.4,2.4-16.8,3.9-25.2l0.2,0l-2.5,25.3l-1.2,12.7
					c-0.2,2.1-0.4,4.2-0.5,6.3c-0.1,1,0,2.1-0.1,3.1c0.1,1,0.1,2.1,0.2,3.1c0.7,8.3,3.6,16.3,8.5,23.1c4.9,6.7,11.5,12.2,19.2,15.6
					c3.8,1.7,7.9,2.9,12.1,3.4l1.6,0.2l1.6,0.1c1,0.1,2.1,0.1,3.2,0.1c2.1,0,4.2-0.2,6.3-0.4l12.7-1.1c4.2-0.3,8.5-0.7,12.7-0.9
					c8.5-0.5,17-0.6,25.5-0.5c8.5,0.1,17,0.4,25.4,1.1L1413.1,1114z"/>
			</g>
			<g>
				<path d="M1510.4,977.4c5.2,1.4,10.2,3.7,14.7,6.9c4.4,3.2,8.3,7.2,11.4,11.7c3,4.6,5.3,9.7,6.6,15c1.3,5.3,1.6,10.9,0.9,16.4
					c-0.4,2.7-1,5.4-1.6,8l-1.9,7.9l-1.8,7.9c-0.6,2.6-1.1,5.3-1.6,7.9c-1.1,5.3-2,10.6-2.9,15.9l-0.6,4l-0.3,2l-0.4,2
					c-0.4,2.7-1.3,5.3-2.2,7.9c-3.7,10.3-11.5,19.1-21.1,24.3c-4.8,2.7-10.1,4.5-15.6,5.3c-1.4,0.2-2.7,0.3-4.1,0.5l-4.1,0
					c-2.7-0.1-5.5-0.4-8.2-0.8c-21.4-2.9-42.8-4.9-64.4-6.3l0-0.2c21.6,0.1,43.2,1.6,64.6,4.4c2.7,0.4,5.3,0.6,7.9,0.8l4-0.1
					l3.9-0.4c5.2-0.8,10.3-2.4,15-4.9c9.3-5,17-13.2,21-23.1c2.1-4.9,2.9-10.3,3.8-15.6l2.9-15.9l3-15.9l1.6-7.9
					c0.6-2.7,1-5.3,1.4-7.9c0.1-1.3,0.2-2.6,0.3-4l-0.1-4l-0.4-3.9c-0.2-1.3-0.5-2.6-0.7-3.9c-1.2-5.2-3.3-10.1-6.2-14.6
					c-5.7-9-14.6-15.8-24.8-19.3L1510.4,977.4z"/>
			</g>
			<g>
				<path d="M1576.2,1285.3c1.2-4.5,2-9,2.3-13.7c0.3-4.6,0-9.2-0.7-13.8c-1.4-9.1-5-17.8-10.1-25.4c-5.1-7.6-12-14-19.9-18.6
					c-4-2.3-8.2-4.2-12.5-5.6c-2.2-0.7-4.4-1.3-6.7-1.9l-6.7-1.8l-13.5-3.5c-4.5-1.1-9-2.1-13.5-3.2c-4.5-1-9.1-2-13.6-2.9
					c-2.3-0.5-4.5-0.9-6.8-1.3l-6.8-1.2c-4.6-0.9-9.1-1.6-13.7-2.3c-4.6-0.7-9.2-1.4-13.8-1.9c-4.6-0.6-9.2-1.2-13.8-1.6l-13.9-1.3
					c-37-2.9-74.1-3.1-111.1,0.1c-4.6,0.4-9.2,0.8-13.8,1.2l-13.8,1.7l-6.9,0.8l-6.9,1.1l-13.7,2.1c-9.1,1.4-17.9,4.7-25.5,9.8
					c-7.7,5.1-14.2,11.9-19,19.8l-0.2-0.1c4.6-8.1,11-15.2,18.6-20.5c7.7-5.4,16.6-9,25.8-10.5l13.7-2.3l6.9-1.2l6.9-0.9l13.8-1.8
					c4.6-0.5,9.3-0.9,13.9-1.3c4.6-0.4,9.3-0.9,13.9-1.1l13.9-0.7c2.3-0.2,4.6-0.1,7-0.2l7-0.1c4.6-0.1,9.3-0.2,13.9-0.1l13.9,0.2
					c4.6,0.2,9.3,0.4,13.9,0.7c2.3,0.1,4.6,0.2,7,0.4l6.9,0.6l6.9,0.6c2.3,0.2,4.6,0.4,6.9,0.6c18.5,1.8,36.9,4.5,55.2,7.5
					c9.2,1.5,18.3,3.3,27.4,5.1c4.5,1,9.1,1.9,13.6,2.9c4.5,1.1,9,2.1,13.5,3.3l6.7,1.8c2.2,0.6,4.5,1.2,6.7,1.9
					c4.5,1.4,8.8,3.3,12.9,5.7c8.1,4.8,15.1,11.5,20.3,19.3c5.2,7.8,8.6,16.8,9.9,26.1c1.3,9.3,0.4,18.8-2.4,27.6L1576.2,1285.3z"/>
			</g>
			<g>
				<path d="M1534.5,1720.3c-2.4-18.2-3.7-36.5-4.6-54.8c-0.4-9.2-0.7-18.3-0.9-27.5c-0.1-4.6-0.2-9.2-0.2-13.7c0-4.6,0-9.2,0-13.7
					c0.6-36.7,2.7-73.2,5.7-109.8c3-36.5,7.9-72.9,14.8-108.9c0.4-2.3,0.8-4.5,1.3-6.7l1.4-6.7c0.9-4.5,1.8-9,2.8-13.5
					c2.1-8.9,4-17.9,6.3-26.8c4.4-17.8,9.6-35.4,15-52.9l0.2,0.1c-9.9,35.3-18.3,70.9-25.1,106.9l-2.4,13.5
					c-0.4,2.2-0.8,4.5-1.2,6.8l-1.1,6.8c-1.6,9-2.9,18.1-4.2,27.1c-2.5,18.1-4.9,36.3-6.7,54.5c-1.8,18.2-3.3,36.5-4.1,54.8
					l-0.5,13.7c-0.1,4.6-0.2,9.2-0.3,13.7c-0.2,9.2-0.2,18.3-0.2,27.5c0,36.6,1,73.2,4.2,109.7L1534.5,1720.3z"/>
			</g>
		</g>
		<g>
			<g>
				<path class="st4" d="M1511.7,1672.9c4,44.2-17.1,48.5-17.1,48.5c-7.4,12-16.4,13.4-16.4,13.4h-396.8l-8.2-194l-9.4-53
					l-53.6,91.5c-32.7,54-86.9,49.5-86.9,49.5c-13,4.3-30,14.3-30,14.3c-78.7-17-57-73.5-57-73.5c26.5-11.9,96.8-104.6,96.8-104.6
					l36.1-89.6c-11.2-29.2,13.5-37.8,13.5-37.8c30.8-69,42.8-132.2,60.7-128c12.2-22.2,58.5-19,80.4-30.2
					c-0.8-16.8,9.2-24.2,22.9-20.9c0.2,0,0.3,0.1,0.5,0.1c18.1,4.4,40.6,16.6,61.2,15.5c39.5-2,82.7-28,92.2-32.4
					c0.4-0.2,0.8-0.4,1.2-0.5c13.3-5,16.1,13.7,16.1,13.7c24.3,25.4,139.8,38.6,146.2,51.3v0c38.2,3.1,69.7,142.6,70.3,194.3
					C1536.2,1540.9,1511.7,1672.9,1511.7,1672.9z"/>
			</g>
			<g>
				<path class="st5" d="M1219.5,1289.8c0,0,1.9,20.6-3.3,32.8l22-7.7c0,0-2.8-29-12.2-34.2L1219.5,1289.8z"/>
			</g>
			<g>
				<path class="st5" d="M1132.4,1307.1c0,0,6.4-19.5,40.6-13.4l-11.9-22.9C1161.2,1270.9,1130.7,1273.4,1132.4,1307.1z"/>
			</g>
			<g>
				<path class="st5" d="M1117,1734.8c-36.7-15.8-30.2-54.9-37.5-92.5l13.3-4.1C1126.5,1659.2,1117,1734.8,1117,1734.8z"/>
			</g>
			<g>
				<path class="st1" d="M1160.3,1271.4c7,16.6,22.5,53.9,65.8,12.6c0,0-4.1-16.2-39.2,0C1186.9,1284,1171.1,1265.3,1160.3,1271.4z"
					/>
			</g>
			<g>
				
					<ellipse transform="matrix(4.637612e-02 -0.9989 0.9989 4.637612e-02 235.9372 2268.0381)" class="st6" cx="1305.9" cy="1010.4" rx="55.3" ry="41.9"/>
			</g>
			<g>
				
					<ellipse transform="matrix(4.637612e-02 -0.9989 0.9989 4.637612e-02 235.9372 2268.0381)" class="st6" cx="1305.9" cy="1010.4" rx="55.3" ry="41.9"/>
			</g>
			<g>
				<path class="st1" d="M1236.4,1321.6c0,0,6.1-62.6-49.5-37.6c0,0-45.6-28.9-54.5,23.2c0,0-3-75.2-8.5-127.7
					c-0.8-16.8,9.2-24.2,22.9-20.9c0.2,0,0.3,0.1,0.5,0.1c18,4.4,40.6,16.6,61.2,15.5c39.5-2,82.7-28,92.2-32.4
					c0.4-0.2,0.8-0.4,1.2-0.5c13.3-5,15.8,11.8,16.1,13.7c0,0.1,0,0.1,0,0.2C1318,1155.2,1335.2,1268.7,1236.4,1321.6z"/>
			</g>
			<g>
				<g>
					<path class="st7" d="M1068.8,961.5c0,0-7.4,31.8-1.1,47.9c6.3,16.1,14.6,10.5,14.6,10.5s-18.9-30.4-11.2-59L1068.8,961.5z"/>
				</g>
				<g>
					<path class="st7" d="M1293.3,1041.9l62.6-56.6c0,0,8.2,35.7-13.1,61.2c-13.3,15.9-5.3,31.8-5.3,31.8s-18.7-1.7-13.4-20
						c0,0,0,0,0,0.1c-0.7,1-7.1,6.5-7.4,24.5c0,0-6.9-0.3-8.9-5.9c-1.4-3.9,0.4-7.5,0.4-7.5c-4.8,3.5-11.5,5.4-16,2.9l7.4-9.2
						c-1.8,2.1-7.4,7.6-17.5,9.8c-14.4,3-22.4-3.5-22.4-3.5L1293.3,1041.9z"/>
				</g>
				<g>
					<g>
						<g>
							<path class="st8" d="M1288.9,1154.8l4.3-92l-141-6.5l-5.1,109.7c-0.2,3.8-3.9,6.5-7.6,5.3c-0.3-0.1-0.5-0.2-0.8-0.2l0,0
								c-1,21,6.7,46.6,13.1,60.8c11.9,26.6,35.1,52.2,35.1,52.2l71.8-56c22.7-15.1,36.9-40.1,38.2-67.4l0,0l-0.2,0.1
								C1292.8,1162,1288.7,1158.9,1288.9,1154.8z"/>
						</g>
						<g>
							<path class="st8" d="M1196.2,1157.1L1196.2,1157.1c51.9,2.4,95.8-37.7,98.3-89.5l5.3-114.7c2.4-51.9-37.7-95.8-89.5-98.3h0
								c-51.9-2.4-95.8,37.7-98.3,89.5l-5.3,114.7C1104.2,1110.7,1144.3,1154.7,1196.2,1157.1z"/>
						</g>
						<g>
							<path class="st9" d="M1148.3,1141.4l-0.9,19c9.8,0.5,32.1-0.1,49.8-14.3C1180.2,1148.3,1163.5,1146.5,1148.3,1141.4z"/>
						</g>
					</g>
					<g>
						<g>
							<g>
								<path class="st7" d="M1141.8,983.4c-0.2,4.7,3.4,8.6,8.1,8.8c4.7,0.2,8.6-3.4,8.8-8.1c0.2-4.7-3.4-8.6-8.1-8.8
									C1145.9,975.1,1142,978.7,1141.8,983.4z"/>
							</g>
							<g>
								<path class="st7" d="M1129.8,974.7c2.2-2.3,5-4,8.1-5.2c3-1.1,6.4-1.7,9.7-1.4c0.8,0,1.6,0.2,2.4,0.3l1.2,0.2
									c0.4,0.1,0.8,0.2,1.2,0.3c0.8,0.2,1.6,0.5,2.3,0.7c0.7,0.3,1.5,0.7,2.2,1l1.1,0.5l1,0.7l2,1.3c1.3,1,2.4,2.1,3.6,3.2
									c-1.5-0.7-2.8-1.5-4.2-2.2l-2.1-1l-1-0.5l-1.1-0.4c-0.7-0.2-1.4-0.5-2.2-0.8l-2.2-0.5c-0.4-0.1-0.7-0.2-1.1-0.3l-1.1-0.1
									c-0.8-0.1-1.5-0.3-2.2-0.2c-3-0.3-6,0.1-9,0.9C1135.4,971.9,1132.6,973.1,1129.8,974.7z"/>
							</g>
						</g>
						<g>
							<g>
								
									<ellipse transform="matrix(0.7391 -0.6736 0.6736 0.7391 -342.2212 1092.179)" class="st7" cx="1238.9" cy="987.9" rx="8.5" ry="8.5"/>
							</g>
							<g>
								<path class="st7" d="M1218.5,978.8c2.2-2.3,5-4,8.1-5.2c3.1-1.1,6.4-1.7,9.7-1.4c0.8,0,1.6,0.2,2.4,0.3l1.2,0.2
									c0.4,0.1,0.8,0.2,1.2,0.3c0.8,0.2,1.6,0.5,2.3,0.7c0.7,0.3,1.5,0.7,2.2,1l1.1,0.5l1,0.7l2,1.3c1.3,1,2.4,2.1,3.6,3.2
									c-1.5-0.7-2.8-1.5-4.2-2.2l-2.1-1l-1-0.5l-1.1-0.4c-0.7-0.2-1.4-0.5-2.2-0.8l-2.2-0.5c-0.4-0.1-0.7-0.2-1.1-0.3l-1.1-0.1
									c-0.7-0.1-1.5-0.3-2.2-0.2c-3-0.3-6,0.1-9,0.9C1224.1,976,1221.3,977.2,1218.5,978.8z"/>
							</g>
						</g>
						<g>
							<path class="st7" d="M1184.1,1052.1c-1.7-0.8-3.4-1.6-5.1-2.4c-1.7-1-3-2.5-3.8-4.2c-1.8-3.5-1.8-7.6-1-11.3
								c0.8-3.7,1.6-7.3,2.4-11c0.9-3.6,2-7.3,3.3-10.8c-0.5,1.8-0.9,3.6-1.4,5.5c-0.4,1.8-0.8,3.6-1.2,5.5c-0.7,3.7-1.5,7.3-2.2,11
								c-0.4,1.8-0.7,3.6-0.5,5.5c0.1,1.8,0.5,3.6,1.3,5.3c0.7,1.7,1.9,3.2,3.4,4.1C1180.9,1050.2,1182.5,1051.1,1184.1,1052.1z"/>
						</g>
						<g>
							<path class="st10" d="M1208.3,1066.1c-0.5,1.9-1.3,3.7-2.4,5.3c-2.2,3.3-5.7,6.1-10,7.4c-4.3,1.2-9,0.6-12.5-1.3
								c-3.6-1.9-6.3-4.8-7.7-8.6c1.7,0,3.3,0,4.8,0c2,0,3.7,0.1,5.3,0c0.7,0,1.4-0.1,2-0.1c0.6-0.1,1.2-0.1,1.8-0.2
								c1.2-0.2,2.2-0.4,3.3-0.7c2.1-0.6,4.3-1.5,6.8-2.8c1.5-0.7,3-1.6,4.6-2.5c1.3-0.7,2.7-1.5,4.2-2.4
								C1208.9,1062.2,1208.7,1064.2,1208.3,1066.1z"/>
						</g>
						<g>
							<path class="st1" d="M1204.3,1062.5c-0.2,1.7-0.9,3.2-1.7,4.7c-1.6,2.8-4.5,5.2-8.1,6.2c-3.6,1-7.5,0.4-10.3-1.3
								c-1.5-0.9-2.8-2-3.7-3.4c2,0,3.7,0.1,5.3,0c0.7,0,1.4-0.1,2-0.1c0.6-0.1,1.2-0.1,1.8-0.2c1.2-0.2,2.2-0.4,3.3-0.7
								c2.1-0.6,4.3-1.5,6.8-2.8C1201.2,1064.3,1202.7,1063.5,1204.3,1062.5z"/>
						</g>
						<g>
							<path class="st7" d="M1130.9,951.1c0.5-1.9,1.5-3.6,2.7-5c0.6-0.7,1.3-1.4,2-2c0.4-0.3,0.7-0.6,1.1-0.8
								c0.4-0.3,0.8-0.6,1.2-0.8c3.2-1.9,7.2-2.9,11-2.6c1,0,1.9,0.2,2.9,0.4l1.4,0.3c0.5,0.1,0.9,0.3,1.3,0.5
								c0.9,0.3,1.8,0.7,2.6,1.1c0.8,0.5,1.6,1,2.3,1.5c0.4,0.3,0.7,0.5,1.1,0.8c0.3,0.3,0.7,0.6,1,1c0.6,0.7,1.2,1.4,1.8,2.1
								c0.6,0.7,1,1.6,1.4,2.4c0.4,0.8,0.8,1.7,1,2.7c-2.1,0.1-3.7-0.2-5.3-0.3c-0.8-0.1-1.6-0.1-2.3-0.2c-0.4,0-0.7-0.1-1.1-0.2
								c-0.4,0-0.7,0-1.1-0.1c-0.7-0.1-1.4-0.1-2-0.3c-0.7,0-1.3-0.1-2-0.1c-0.3,0-0.6-0.1-0.9-0.1c-0.3,0-0.6,0-0.9,0l-0.9-0.1
								c-0.3-0.1-0.6-0.1-0.9-0.1c-2.4-0.2-4.9-0.2-7.7-0.3C1137.8,951,1134.8,951.1,1130.9,951.1z"/>
						</g>
						<g>
							<path class="st7" d="M1219.6,955.2c0.5-1.9,1.5-3.6,2.7-5c0.6-0.7,1.3-1.4,2-2c0.4-0.3,0.7-0.6,1.1-0.8
								c0.4-0.3,0.8-0.6,1.2-0.8c3.2-1.9,7.2-2.9,11-2.6c1,0,1.9,0.2,2.9,0.4l1.4,0.3c0.5,0.1,0.9,0.3,1.3,0.5
								c0.9,0.3,1.8,0.7,2.6,1.1c0.8,0.5,1.6,1,2.3,1.5c0.4,0.3,0.7,0.5,1.1,0.8c0.3,0.3,0.7,0.6,1,1c0.6,0.7,1.2,1.4,1.8,2.1
								c0.6,0.7,1,1.6,1.4,2.4c0.4,0.8,0.8,1.7,1,2.7c-2.1,0.1-3.7-0.2-5.3-0.3c-0.8-0.1-1.6-0.1-2.3-0.2c-0.4,0-0.7-0.1-1.1-0.2
								c-0.4,0-0.7,0-1.1-0.1c-0.7-0.1-1.4-0.1-2-0.3c-0.7,0-1.3-0.1-2-0.1c-0.3,0-0.6-0.1-0.9-0.1c-0.3,0-0.6,0-0.9,0l-0.9-0.1
								c-0.3-0.1-0.6-0.1-0.9-0.1c-2.4-0.2-4.9-0.2-7.7-0.3C1226.5,955.1,1223.5,955.2,1219.6,955.2z"/>
						</g>
					</g>
				</g>
				<g>
					<g>
						<path class="st7" d="M1256.9,897.9c-5-13.1-19.1-20.6-32.7-17c-10.2,2.7-22.8,10.6-36.3,29.3c-4.8,6.6-8.8,13.7-12.3,21.1
							c-6.3,13.3-25,45.4-62,55.5l-6.1,54.8l-1.3-0.7c-20.2-17.2-33.7-42.1-37.2-69.7c-0.3-2.1-0.5-4.2-0.7-6.4c0,0,0.7,7.2-5.4,12
							c-5.5,4.3-13.5,2-13.5,2s16-18.5,10.5-53.2c-4.9-31.3,9.3-50.6,38.2-64.7c0,0-20.6,1.7-23.4-17.5c0,0,44.1,21.9,76.6-13.1
							c39.9-43,88.2-33.8,97.3,7c0,0,11.4-22.5,28.3-8.2c16.8,14.3,33.2,37.2,61.1,50.6c27.9,13.5,3.4,88.7,45.7,107.7
							c0,0-23.6,9.2-30.1-16.8c0,0,21.4,57.8-59.2,92.2l8.3-54.5c0,0-32.3-7.8-36.4-47.1C1263,931.1,1262.8,913.2,1256.9,897.9z"/>
					</g>
					<g>
						<path class="st7" d="M1248.2,837.2c0.5-2,1.2-4,2.1-5.9c0.9-1.9,2-3.7,3.3-5.4c1.3-1.7,2.8-3.3,4.6-4.6c1.8-1.4,3.9-2.4,6.1-3
							c2.2-0.6,4.6-0.7,6.9-0.4c2.3,0.3,4.5,1,6.5,2c4,1.9,7.3,4.8,10.1,7.9c2.8,3.1,5.2,6.5,7.5,9.8c2.3,3.4,4.6,6.7,6.9,10.1
							c2.3,3.4,4.4,6.9,7.1,9.7c1.3,1.4,2.8,2.6,4.3,3.8c0.8,0.5,1.6,1.1,2.4,1.6c0.8,0.5,1.7,1,2.5,1.4c6.9,3.6,14.5,6.2,22,8.7
							c1.8,0.6,4,1.3,6,2.2c2,0.9,4,2.1,5.8,3.6c1.8,1.5,3.4,3.3,4.6,5.3c1.2,2,2,4.3,2.5,6.5c0.9,4.5,0.7,8.8,0.2,12.9
							c-0.5,4.1-1.2,8.1-2,12.1c-1.4,7.9-2.7,15.8-1.5,23.8l-0.5,0.1c-1.4-3.9-1.9-8-2.1-12.1c-0.2-4.1,0-8.2,0.4-12.3
							c0.3-4.1,0.8-8.1,0.9-12c0.2-3.9,0.1-7.8-0.8-11.2c-0.5-1.7-1.1-3.3-2-4.7c-0.9-1.4-2.1-2.7-3.4-3.7c-1.3-1.1-2.9-2-4.5-2.7
							c-1.7-0.8-3.4-1.3-5.4-2c-1.9-0.7-3.8-1.4-5.7-2.2l-2.9-1.2l-2.8-1.3c-3.8-1.7-7.5-3.5-11-5.9c-3.5-2.3-6.8-5.3-9.2-8.8
							c-2.4-3.5-4.2-7.2-6.3-10.6c-4.1-6.9-9.5-13.1-15.6-18c-3.1-2.5-6.2-4.6-9.5-6.2c-1.7-0.8-3.3-1.4-5-1.7
							c-1.7-0.3-3.4-0.3-5.1,0c-3.4,0.6-6.6,2.7-9.3,5.3c-2.7,2.7-5.2,5.9-7.2,9.3L1248.2,837.2z"/>
					</g>
					<g>
						<path class="st7" d="M1249.7,886.8c-4.2-2.4-9-3-13.6-2.6c-4.6,0.4-9.2,1.8-13.6,3.4c-4.4,1.7-8.9,3.7-12.8,6.4
							c-4,2.7-7.5,6.1-10.8,9.6l-2.4,2.7l-2.3,2.8c-1.6,1.8-3.1,3.7-4.6,5.6c-1.5,1.9-3,3.8-4.3,5.8l-2.1,2.9l-2.1,2.9
							c-5.7,7.8-11,15.9-16.6,23.9l-0.3-0.2c3.7-9.1,8.5-17.7,14-25.8c2.8-4,5.9-7.9,9.1-11.6c3.2-3.7,6.7-7.2,10.4-10.4
							c3.7-3.2,7.5-6.2,11.4-9.2c3.9-2.9,7.9-6,12.4-8.1c2.3-1.1,4.6-2,7.1-2.5c1.2-0.3,2.5-0.5,3.7-0.7c1.3-0.1,2.5-0.3,3.8-0.2
							c2.5,0,5.1,0.3,7.5,1.1c2.4,0.8,4.7,2.1,6.4,3.8L1249.7,886.8z"/>
					</g>
					<g>
						<path class="st7" d="M1304.6,1008.6c-6.4,0.4-12.9-0.5-19.1-2.5c-3.1-1-6.1-2.4-8.9-4.1c-2.8-1.7-5.5-3.7-7.7-6.1
							c-4.6-4.8-7.6-10.8-9.5-16.9c-2-6.1-3-12.5-3.4-19c-0.4-6.4,0-12.9,1.1-19.3c1.1-6.2,1.7-12.5,1.9-18.7
							c0.3-6.2-0.1-12.5-1.4-18.6c-0.7-3-1.6-6-2.8-8.8c-1.3-2.8-2.9-5.6-5.1-7.8l0.2-0.3c1.4,0.9,2.5,2.1,3.6,3.3
							c1.1,1.2,2,2.6,2.8,4c0.8,1.4,1.6,2.9,2.2,4.4c0.7,1.5,1.2,3,1.7,4.6c1.9,6.3,2.5,12.8,2.4,19.3c-0.2,6.5-1.1,12.9-2.5,19.2
							c-1.2,6.2-2.2,12.4-2.4,18.7c-0.2,6.3,0.5,12.7,2.6,18.6c1.1,2.9,2.6,5.8,4.3,8.3c1.8,2.6,3.9,4.9,6.1,7
							c2.2,2.1,4.7,3.9,7.3,5.6c2.6,1.6,5.4,3,8.3,4.2c5.8,2.3,11.9,3.7,18.2,4.6L1304.6,1008.6z"/>
					</g>
					<g>
						<path class="st7" d="M1060.9,930.2c-0.9-1.7-1.5-3.5-2.2-5.4c-0.6-1.8-1-3.7-1.4-5.6c-0.4-1.9-0.6-3.8-0.8-5.7
							c-0.2-1.9-0.1-3.9,0-5.8c0.5-3.9,1.6-7.6,2.5-11.3c0.8-3.7,1.6-7.4,2.6-11.2c0.3-0.9,0.5-1.9,0.9-2.8c0.3-0.9,0.6-1.9,1.1-2.8
							c0.4-0.9,0.9-1.8,1.4-2.6c0.5-0.8,1.1-1.7,1.6-2.5c2.3-3.3,5.2-6.3,8.6-8.5c3.4-2.2,7.1-3.8,11-4.7c3.9-0.9,7.8-1.3,11.7-0.6
							l0,0.6c-3.6,1.2-7,2.6-10.2,4.2c-3.2,1.6-6.2,3.4-9,5.5c-2.8,2-5.5,4.2-7.8,6.9l-1.7,2c-0.6,0.7-1,1.4-1.6,2.1
							c-1,1.5-2.1,2.9-3,4.5c-1,1.6-1.7,3.2-2.4,5c-0.5,1.8-1.1,3.5-1.3,5.4c-0.6,3.7,0.2,7.4,0.4,11.1c0.2,1.8,0.2,3.6,0.3,5.5
							c0.1,1.8,0.1,3.7,0.1,5.5c0.1,1.8,0,3.7,0,5.6c0,1.9,0,3.8-0.3,5.7L1060.9,930.2z"/>
					</g>
				</g>
				<g>
					<g>
						<path class="st8" d="M1303.8,1064.2l-4.9-0.2c-9.6-0.4-17.1-8.6-16.7-18.3l1.4-31.2c0.4-9.6,8.6-17.1,18.3-16.7l4.9,0.2
							c9.6,0.4,17.1,8.6,16.7,18.3l-1.4,31.2C1321.6,1057.2,1313.4,1064.7,1303.8,1064.2z"/>
					</g>
					<g>
						<g>
							<path class="st9" d="M1303.3,1016.5c2.1-0.1,4.3,0.8,5.9,2.3c0.8,0.8,1.5,1.7,2.1,2.6c0.6,1,1,2,1.3,3
								c1.3,4.2,1.1,8.9-0.7,13c-0.9,2-2.3,4-4.1,5.4c-0.9,0.7-1.8,1.3-3.1,1.8c-0.6,0.2-1.4,0.3-2.3,0.1c-0.9-0.2-1.6-0.9-1.9-1.5
								c-0.7-1.3-0.8-2.4-0.9-3.5c0-1.1,0-2.2,0.2-3.2c0.3-2.1,0.8-4.1,1.5-6c0,2.1-0.1,4.1,0.1,6.1c0.1,1,0.2,2,0.3,2.9
								c0.2,0.9,0.5,1.8,0.9,2.3c0.2,0.2,0.3,0.3,0.5,0.3c0.1,0,0.4,0,0.7-0.2c0.6-0.3,1.4-0.8,2.1-1.4c1.3-1.2,2.3-2.7,3-4.4
								c1.4-3.4,1.9-7.3,1.2-11c-0.3-1.8-1-3.6-2.1-5.2C1306.8,1018.4,1305.2,1017.2,1303.3,1016.5z"/>
						</g>
						<g>
							<path class="st9" d="M1298.6,1024.5c-0.9-1.1-1.4-2.3-1.7-3.6c-0.3-1.3-0.3-2.7,0.1-4.1c0.2-0.7,0.5-1.4,1-2.1
								c0.5-0.7,1.2-1.2,2-1.5c1.7-0.6,3.2-0.1,4.2,0.9c-1.3,0.4-2.4,0.8-2.9,1.4c-0.5,0.6-0.8,1.3-1,2.2c-0.3,0.9-0.5,2-0.7,3.1
								C1299.4,1022.1,1299.1,1023.2,1298.6,1024.5z"/>
						</g>
					</g>
				</g>
				<g>
					<path class="st7" d="M1353.9,969.5c2.4,2.7,4.1,5.8,5.5,9c0.7,1.6,1.3,3.3,1.7,5c0.5,1.7,0.9,3.4,1,5.2c0.3,3.5-0.1,7.1,0,10.5
						c0,3.5,0.4,6.9,0.7,10.4l0.1,2.7c0,0.9,0,1.8,0,2.7c0,0.9-0.1,1.8-0.3,2.7c-0.1,0.9-0.3,1.8-0.4,2.6c-0.3,1.8-0.8,3.5-1.3,5.3
						c-0.6,1.7-1.2,3.4-2.1,5c-0.8,1.6-1.8,3.1-2.8,4.6c-1.1,1.4-2.2,2.9-3.5,4.1c-0.6,0.6-1.3,1.3-1.9,1.9
						c-0.7,0.6-1.4,1.1-2.1,1.7c-0.7,0.6-1.4,1-2.2,1.5c-0.8,0.5-1.5,0.9-2.3,1.3l-0.4-0.4c3.9-5.9,7.3-11.3,9.9-17.3
						c0.7-1.4,1.3-2.9,1.9-4.4c0.6-1.5,1.2-3,1.7-4.6c0.3-0.8,0.5-1.5,0.7-2.3c0.2-0.8,0.5-1.6,0.7-2.4c0.2-0.8,0.4-1.6,0.7-2.4
						l0.6-2.4c0.8-3.3,1.1-6.7,0.6-10.1c-0.4-3.4-1.8-6.6-2.8-9.8c-0.5-1.6-0.9-3.2-1.3-4.8c-0.4-1.6-0.7-3.2-1.1-4.9
						c-0.7-3.3-1.4-6.6-1.8-10.1L1353.9,969.5z"/>
				</g>
				<g>
					<path class="st7" d="M1201,803c-4.1,1.1-8.1,2.2-12,3.4c-1.9,0.7-3.9,1.3-5.8,2c-0.5,0.2-1,0.3-1.4,0.5
						c-0.5,0.2-0.9,0.4-1.4,0.5c-0.9,0.4-1.9,0.6-2.9,1c-1.9,0.7-3.9,1.2-5.8,2c-1,0.4-1.9,0.7-2.9,1.2c-0.9,0.5-1.8,1-2.7,1.5
						c-0.4,0.3-0.9,0.5-1.3,0.8c-0.4,0.3-0.8,0.6-1.3,0.9c-0.8,0.6-1.6,1.3-2.4,1.9c-0.8,0.6-1.5,1.4-2.2,2.2
						c-0.7,0.7-1.4,1.5-2.1,2.3c-1.3,1.6-2.5,3.3-3.8,4.9c-1.3,1.6-2.8,3.3-4.3,4.9c-1.6,1.5-3.1,3.1-4.8,4.5
						c-1.7,1.4-3.5,2.7-5.5,3.8c-3.9,2.2-8.5,3.7-13.2,3.6c-4.6-0.1-9.4-1.6-12.3-5.1l0.4-0.4c3.8,1.7,7.9,1.8,11.6,1.1
						c1.9-0.4,3.7-1,5.4-1.7l0.7-0.3l0.6-0.3l1.3-0.7c0.4-0.2,0.9-0.4,1.3-0.7l1.2-0.8c1.7-0.9,3.3-2.1,4.9-3.2
						c0.8-0.5,1.6-1.2,2.4-1.8c0.8-0.6,1.6-1.2,2.4-1.9c1.5-1.4,3-2.7,4.6-4.1c0.8-0.7,1.7-1.4,2.5-2.1c0.9-0.7,1.7-1.4,2.6-2
						c1.8-1.2,3.5-2.5,5.3-3.7c0.9-0.6,1.8-1.2,2.6-1.8l1.3-1c0.4-0.3,0.9-0.6,1.3-0.9c0.9-0.6,1.7-1.3,2.6-1.9
						c0.8-0.7,1.7-1.3,2.6-1.9c1.7-1.4,3.6-2.5,5.4-3.6c0.9-0.5,2-1,3-1.4c0.5-0.2,1-0.4,1.5-0.6l1.6-0.5c2.1-0.7,4.2-1.1,6.3-1.5
						c2.2-0.3,4.3-0.5,6.5-0.5c2.2,0,4.4,0.2,6.5,0.8L1201,803z"/>
				</g>
				<g>
					<path class="st5" d="M1086.9,859.2c3,0.9,6,1.5,9,1.9c3,0.4,6.1,0.6,9.2,0.6c6.1-0.1,12.2-0.9,17.9-2.8c2.9-0.9,5.7-2,8.4-3.4
						c1.4-0.6,2.7-1.4,4-2.2l1.9-1.2c0.7-0.4,1.3-0.8,1.9-1.3c5-3.5,9.7-7.6,14-12c-3.6,5.1-7.9,9.7-12.9,13.5
						c-1.2,1-2.6,1.8-3.8,2.7c-1.4,0.8-2.7,1.7-4.1,2.4c-2.8,1.5-5.7,2.7-8.7,3.7c-6,1.9-12.4,2.7-18.7,2.4
						C1098.8,863.2,1092.5,861.9,1086.9,859.2z"/>
				</g>
				<g>
					<path class="st5" d="M1062.3,977.1c1.5-1.4,2.6-3,3.5-4.8c0.9-1.8,1.6-3.6,2.1-5.5c0.5-1.9,0.9-3.8,1.1-5.8l0.3-2.9l0.1-3
						c0.1-1,0-2,0-3l-0.1-3c-0.2-2-0.3-4-0.5-5.9c-0.3-2-0.5-4-0.8-5.9c-0.3-2-0.7-4-0.9-6c0.7,1.9,1.4,3.8,2,5.7
						c0.6,1.9,1,3.9,1.5,5.9c0.4,2,0.6,4,0.9,6l0.2,3.1c0.1,1,0.1,2,0.1,3.1c0,4.1-0.7,8.3-2.1,12.1c-0.7,2-1.7,3.8-2.8,5.5
						C1065.6,974.5,1064.1,976.1,1062.3,977.1z"/>
				</g>
				<g>
					<path class="st5" d="M1140.3,974.2c-3.3,3.3-7.1,6-11.1,8.4c-2,1.2-4.1,2.3-6.2,3.3c-2.1,1-4.3,1.8-6.6,2.5
						c-4.5,1.4-9.2,2.3-13.9,2.4c-4.7,0.1-9.4-0.7-13.8-2.3c4.6,0.7,9.1,1,13.7,0.6c2.3-0.2,4.5-0.5,6.7-1c2.2-0.5,4.4-1,6.6-1.7
						c4.3-1.4,8.5-3.1,12.6-5.2C1132.5,979,1136.4,976.7,1140.3,974.2z"/>
				</g>
				<g>
					<path class="st5" d="M1202.9,865.8c-8.4,3.8-15.1,10.2-20.2,17.5c-2.6,3.7-4.9,7.5-7,11.5c-2.1,4-4,8.1-5.8,12.2
						c-3.7,8.3-7,16.7-11.1,24.9c-2,4.1-4.3,8.1-6.9,11.9c-2.6,3.7-5.6,7.3-9.2,10.1c3.3-3.2,6-6.8,8.3-10.7c2.3-3.9,4.3-7.9,6.2-12
						c3.7-8.3,7-16.7,10.7-25.1c3.7-8.3,7.8-16.6,13.5-23.9c2.8-3.7,6-7,9.6-9.9C1194.6,869.6,1198.6,867.3,1202.9,865.8z"/>
				</g>
				<g>
					<path class="st5" d="M1202.9,865.8c2-1,4-1.8,6.1-2.7c2.1-0.6,4.3-1.4,6.5-1.8c1.1-0.2,2.2-0.4,3.3-0.5
						c0.6-0.1,1.1-0.2,1.7-0.2l1.7-0.1c1.1,0,2.3-0.1,3.4,0l3.4,0.3c0.6,0,1.1,0.2,1.7,0.3l1.7,0.4c1.1,0.2,2.2,0.7,3.2,1.1
						c0.5,0.2,1.1,0.4,1.6,0.6l1.5,0.8l1.5,0.8l1.4,1c3.7,2.6,6.8,6.1,8.7,10.1c-2.6-3.6-6-6.5-9.6-8.7c-3.7-2.2-7.8-3.6-12-4.3
						l-3.2-0.4c-1.1-0.1-2.1,0-3.2-0.1l-1.6,0c-0.5,0-1.1,0.1-1.6,0.1c-1.1,0.1-2.2,0.2-3.2,0.3c-1.1,0.1-2.1,0.4-3.2,0.6l-3.2,0.6
						C1207.2,864.8,1205.1,865.4,1202.9,865.8z"/>
				</g>
				<g>
					<path class="st5" d="M1357.5,1003.6c-0.1-4.4-0.3-8.8-1-13.1c-0.7-4.3-2-8.4-3.7-12.4c-0.8-2-1.7-4.1-2.5-6.2
						c-0.8-2.1-1.5-4.2-2.1-6.4c-1.2-4.3-1.8-8.8-2.1-13.2c1.2,4.3,2.3,8.5,3.8,12.7c1.5,4.1,3.3,8.1,5,12.2
						c0.8,2.1,1.6,4.2,2.2,6.4l0.4,1.6c0.1,0.6,0.2,1.1,0.3,1.7c0.1,0.6,0.2,1.1,0.3,1.7l0.2,1.7
						C1358.7,994.8,1358.3,999.3,1357.5,1003.6z"/>
				</g>
				<g>
					<path class="st5" d="M1319.8,998.7c-6.4-2.6-12.2-6.6-17.3-11.2c-5.2-4.6-9.7-10-13.3-15.9c-3.7-5.9-6.5-12.3-8.3-19
						c-1.9-6.7-2.8-13.6-2.9-20.4c1,6.8,2.5,13.5,4.6,19.9c1.1,3.2,2.3,6.4,3.8,9.4c0.7,1.5,1.5,3,2.2,4.5c0.8,1.5,1.6,3,2.6,4.4
						c3.5,5.8,7.8,11.1,12.6,15.8c2.4,2.4,4.9,4.6,7.6,6.7C1314,995.1,1316.8,997,1319.8,998.7z"/>
				</g>
				<g>
					<path class="st5" d="M1251.7,848.7c-0.6-3.3-0.6-6.8,0.3-10.2c0.4-1.7,1.2-3.4,2.4-4.8c1.2-1.5,3.1-2.4,5-2.6
						c1.9-0.2,3.7,0.3,5.4,0.9c1.6,0.7,3.2,1.5,4.6,2.5c2.8,1.9,5.3,4.3,7.5,6.8c-2.8-1.9-5.6-3.8-8.4-5.3c-2.8-1.5-5.9-2.9-8.8-2.6
						c-1.4,0.1-2.7,0.7-3.7,1.8c-1,1-1.7,2.5-2.3,3.9C1252.6,842.1,1252,845.4,1251.7,848.7z"/>
				</g>
				<g>
					<path class="st5" d="M1247.5,857c-1.5-3.3-3.5-6.4-5.9-9c-2.3-2.7-5-5.1-8-7.1c-5.8-4.1-12.6-6.7-19.6-8.1
						c-7-1.4-14.2-1.5-21.3-0.4c-3.5,0.6-7,1.5-10.4,2.7c-3.4,1.2-6.7,2.7-9.8,4.6c5.8-4.5,12.7-7.5,19.9-9c7.2-1.6,14.8-1.6,22-0.1
						c3.6,0.7,7.2,1.8,10.6,3.2c3.4,1.5,6.7,3.3,9.6,5.6C1240.6,843.9,1245.3,850,1247.5,857z"/>
				</g>
				<g>
					<g>
						<path class="st5" d="M1088.4,944.7c-2.9-1.6-5-4.6-6.2-7.8c-0.2-0.8-0.5-1.7-0.7-2.5l-0.3-2.6c0-1.7,0-3.4,0.3-5.1
							c0.1-0.8,0.2-1.7,0.5-2.5l0.7-2.4c0.3-0.8,0.6-1.6,0.9-2.3c0.3-0.8,0.6-1.6,1-2.3c0.8-1.5,1.6-2.9,2.5-4.3c1-1.4,1.9-2.7,3-4
							c-0.6,1.6-1.3,3-2,4.5c-0.7,1.5-1.2,3-1.8,4.5c-0.5,1.5-1,3-1.5,4.6c-0.3,1.6-0.9,3.1-1,4.7c-0.5,3.1-0.5,6.3,0.2,9.3
							C1084.6,939.4,1086,942.3,1088.4,944.7z"/>
					</g>
					<g>
						<path class="st5" d="M1099.7,946.7c-1.4,0.5-3,0.7-4.5,0.4c-1.5-0.3-3.1-1-4.3-2.1c-1.2-1.1-2.1-2.5-2.7-4
							c-0.3-0.7-0.5-1.5-0.7-2.3c-0.1-0.8-0.2-1.5-0.3-2.3l2-0.1c0,1.4-0.1,2.8-0.3,4.2c-0.1,1.4-0.3,2.8-0.6,4.2
							c-0.3-1.4-0.5-2.8-0.7-4.2c-0.2-1.4-0.3-2.8-0.4-4.2l2-0.1c0.2,0.7,0.3,1.4,0.4,2c0.2,0.6,0.4,1.3,0.6,1.9
							c0.5,1.3,1.2,2.4,2,3.4c0.9,0.9,2,1.7,3.2,2.2C1096.8,946.3,1098.2,946.6,1099.7,946.7z"/>
					</g>
					<g>
						<path class="st5" d="M1125,884.3c-4.6,3.9-8.7,8.2-12.5,12.9c-3.7,4.6-7,9.6-9.5,15c-1.3,2.7-2.3,5.4-3.1,8.3
							c-0.4,1.4-0.7,2.9-1,4.3c-0.2,1.5-0.5,2.9-0.6,4.4c-0.2,1.5-0.2,2.9-0.2,4.4c0.1,1.5,0,3,0.2,4.4c0.2,3,0.8,5.9,1.5,8.9
							c-1.1-2.8-2.1-5.7-2.6-8.7c-0.3-1.5-0.4-3-0.6-4.5c0-1.5-0.1-3.1,0-4.6c0.1-3.1,0.6-6.1,1.4-9.1c0.8-3,1.8-5.9,3.1-8.7
							c1.3-2.8,2.8-5.4,4.5-8c1.7-2.5,3.6-4.9,5.7-7.2C1115.3,891.5,1119.9,887.4,1125,884.3z"/>
					</g>
				</g>
				<g>
					<path class="st5" d="M1174.7,892.6c-3.8,8-8.3,15.6-13.3,22.9c-5,7.3-10.5,14.3-16.6,20.7c-3.1,3.2-6.3,6.2-9.8,9
						c-3.5,2.8-7.1,5.4-11.1,7.5c-3.9,2.2-8.1,3.9-12.4,4.9c-4.3,1-8.8,1.4-13.2,0.8c4.4,0.1,8.8-0.5,12.9-1.9
						c4.2-1.3,8.1-3.1,11.8-5.4c7.4-4.5,14.1-10.3,20.1-16.6c3.1-3.1,5.9-6.4,8.7-9.8c2.8-3.4,5.5-6.8,8.1-10.4
						c2.6-3.5,5.1-7.1,7.6-10.8C1170.1,900.1,1172.4,896.4,1174.7,892.6z"/>
				</g>
				<g>
					<path class="st5" d="M1333.6,1043.5c-1.2,2.2-2.6,4.1-3.9,6.1c-1.3,2-2.5,4-3.5,6.1c-1,2.1-1.7,4.2-2.1,6.5
						c-0.4,2.3-0.4,4.6-0.1,7c-1.2-2.2-1.7-4.7-1.7-7.2c0-2.5,0.8-5,1.8-7.3c1.1-2.3,2.5-4.3,4.2-6.2
						C1329.9,1046.7,1331.7,1045,1333.6,1043.5z"/>
				</g>
				<g>
					<path class="st5" d="M1339.2,926c-1.3,9.9-1.9,19.9-2,29.9c0,10,0.4,20,1.7,29.9c0.4,2.5,0.7,4.9,1.1,7.4
						c0.4,2.5,0.8,4.9,1.3,7.4c0.5,2.5,0.9,5,1.2,7.5c0.3,2.5,0.6,5,0.7,7.6c0.2,5.1,0,10.2-1.6,15.2c-1.5,5-4.7,9.1-8.1,12.7
						c1.4-2.1,2.9-4.1,4-6.3c1.2-2.2,2.1-4.5,2.6-6.9c1.2-4.8,1.2-9.7,0.9-14.6c-0.4-4.9-1.1-9.8-2-14.7l-1.3-7.4
						c-0.4-2.5-0.7-5-1-7.5c-1.1-10-1.4-20.1-1-30.1c0.1-2.5,0.3-5,0.4-7.5c0.2-2.5,0.4-5,0.7-7.5
						C1337.5,935.9,1338.2,930.9,1339.2,926z"/>
				</g>
				<g>
					<path class="st5" d="M1370.1,988.6c-2.3,0.2-4.6-0.4-6.8-1.4c-2.1-1-4.1-2.3-5.8-4c-1.6-1.7-3.1-3.6-4.1-5.6
						c-0.6-1-0.9-2.1-1.4-3.2c-0.3-1.1-0.6-2.2-0.8-3.3c0.7,0.9,1.2,1.9,1.8,2.9l0.9,1.4c0.3,0.5,0.6,0.9,0.9,1.4
						c1.3,1.8,2.7,3.4,4.2,5C1362.2,984.6,1365.8,987.1,1370.1,988.6z"/>
				</g>
				<g>
					<path class="st5" d="M1286.6,891.8c4.1,3.8,7.9,7.8,11.5,12.2c3.5,4.3,6.7,9,9.2,14.1c2.5,5,4.4,10.5,5.3,16
						c0.9,5.6,0.9,11.3-0.1,16.8c0-5.6-0.5-11.1-1.7-16.4c-1.2-5.3-3.1-10.5-5.6-15.4c-2.4-4.9-5.4-9.5-8.6-14
						C1293.5,900.5,1290,896.2,1286.6,891.8z"/>
				</g>
				<g>
					<path class="st5" d="M1252,862.8c0.4-3.1,1-6.1,2-9.1c0.5-1.5,1.1-2.9,1.9-4.3c0.8-1.3,1.8-2.8,3.4-3.5
						c0.8-0.4,1.8-0.5,2.6-0.3c0.9,0.2,1.6,0.6,2.3,1.1c1.3,1,2.5,2,3.6,3.3c2.1,2.5,3.5,5.5,4.4,8.5c0.9,3,1.5,6.1,2.2,9
						c0.4,1.5,0.8,2.9,1.3,4.4c0.4,1.4,1,2.9,1.6,4.3c2.3,5.6,5.6,10.8,9.4,15.7c-4.6-4.2-8.5-9.1-11.2-14.9
						c-1.4-2.8-2.4-5.8-3.2-8.9c-0.8-3-1.4-6.1-2.2-9c-0.8-2.9-1.9-5.7-3.6-8c-0.9-1.2-1.9-2.3-3-3.2c-1.1-0.9-2.5-1.3-3.7-0.8
						c-1.2,0.5-2.3,1.7-3.1,2.9c-0.8,1.3-1.5,2.6-2,4.1C1253.5,856.8,1252.6,859.8,1252,862.8z"/>
				</g>
				<g>
					<path class="st5" d="M1302.2,851.1c0.8,2,1.9,3.7,3.2,5.3c0.6,0.8,1.3,1.6,2,2.4c0.7,0.7,1.4,1.5,2.2,2.2
						c3,2.8,6.3,5.3,9.9,7.4c1.7,1.2,3.6,2.1,5.4,3.1c1.8,1,3.7,1.9,5.6,2.8l5.7,2.6c1.9,0.8,3.9,1.6,5.8,2.5
						c-2.1-0.4-4.1-0.9-6.2-1.5c-2-0.6-4-1.3-6-2c-2-0.8-3.9-1.6-5.9-2.5c-1.9-1-3.8-1.9-5.6-3.1c-0.9-0.6-1.8-1.1-2.7-1.8l-2.6-1.9
						c-1.6-1.4-3.2-2.8-4.7-4.4c-0.7-0.8-1.4-1.6-2.1-2.5c-0.6-0.9-1.2-1.8-1.8-2.7C1303.4,855.2,1302.5,853.2,1302.2,851.1z"/>
				</g>
			</g>
			<g>
				<path class="st5" d="M1361.4,1597.5c0,0,14.3-4.7,24.4-13c0,0-22.2-5.5-9.7-38.8c0,0-32.1-99.3-9.7-186.5
					C1366.3,1359.2,1335,1493.2,1361.4,1597.5z"/>
			</g>
			<g>
				<path class="st5" d="M1063.8,1487.8L1063.8,1487.8c-0.9-3.2-23.7-88.1-20.5-173c0,0-15.7,40.8,6.4,128c6.4,25.3,4.2,52.1-6.3,76
					l-6.3,14.6L1063.8,1487.8z"/>
			</g>
			<g>
				<path class="st5" d="M1391.9,1584.6c0,0,44.2-7.1,85.6,18.8C1477.5,1603.4,1420.4,1554.1,1391.9,1584.6z"/>
			</g>
			<g>
				<path class="st5" d="M1195.8,1669.3c0,0,8.4,33.4-6.2,65.5l-27.3,0C1175.7,1732.5,1203.6,1710.5,1195.8,1669.3z"/>
			</g>
			<g>
				<path class="st5" d="M1092.8,1638.3c0,0-9.2,6.7-15.5,0l-4.1-97.4L1092.8,1638.3z"/>
			</g>
			<g>
				<path class="st5" d="M999.5,1495.6c-4-3.6-8.4-6.8-12.9-9.7c-2.2-1.5-4.5-2.8-6.9-4.1l-3.5-1.9l-3.6-1.8
					c-1.2-0.6-2.4-1.1-3.6-1.7c-1.2-0.5-2.4-1.1-3.7-1.6l-3.7-1.5l-3.8-1.3c-2.5-0.9-5.1-1.6-7.7-2.4c-1.3-0.4-2.6-0.7-3.9-1
					c-1.3-0.3-2.6-0.7-3.9-1c1.3,0.2,2.7,0.3,4,0.5c1.3,0.2,2.7,0.3,4,0.6c2.6,0.6,5.3,1.1,7.9,1.9c5.3,1.4,10.3,3.5,15.2,5.8
					c4.9,2.4,9.6,5.2,14,8.3C991.9,1487.9,996.1,1491.4,999.5,1495.6z"/>
			</g>
			<g>
				<path class="st5" d="M881.8,1554.1c4.1-0.4,8.3,0.4,12.2,1.7c3.9,1.4,7.6,3.5,10.9,6.1c1.6,1.4,3.2,2.7,4.5,4.3
					c0.7,0.8,1.4,1.5,2.1,2.3c0.6,0.8,1.3,1.7,1.9,2.5c0.6,0.8,1.2,1.7,1.7,2.6l1.6,2.7c0.9,1.8,1.7,3.7,2.5,5.6
					c-1.2-1.7-2.2-3.4-3.4-5.1l-1.8-2.4c-0.6-0.8-1.2-1.7-1.8-2.4c-0.7-0.8-1.3-1.5-2-2.3c-0.6-0.8-1.4-1.4-2.1-2.2
					c-1.3-1.5-2.9-2.7-4.4-4c-3.1-2.5-6.6-4.6-10.2-6.2C889.7,1555.7,885.9,1554.5,881.8,1554.1z"/>
			</g>
			<g>
				<path class="st5" d="M840.7,1569.1c6.6-1.7,13.5-2.5,20.4-2.7c6.9-0.2,13.8,0.3,20.6,1.8c3.4,0.8,6.7,1.7,10,3
					c3.2,1.3,6.3,2.8,9.3,4.7c2.9,1.9,5.6,4.1,8,6.6l1.7,1.9c0.6,0.6,1.1,1.4,1.6,2c1.1,1.3,1.9,2.9,2.8,4.3
					c-2.1-2.7-4.3-5.3-6.8-7.6c-2.5-2.2-5.3-4.2-8.2-5.9c-2.9-1.7-6-3.1-9.1-4.3c-3.2-1.2-6.4-2.1-9.7-2.8c-3.3-0.8-6.6-1.2-10-1.6
					c-3.4-0.4-6.7-0.5-10.1-0.6c-3.4-0.1-6.8,0-10.2,0.2C847.5,1568.3,844.1,1568.6,840.7,1569.1z"/>
			</g>
			<g>
				<path class="st5" d="M1184.1,1633.2c4.4,7.6,7.8,15.8,10.5,24.3c2.6,8.4,4.4,17.2,5.2,26c0.4,4.4,0.5,8.9,0.3,13.3
					c-0.2,4.4-0.6,8.9-1.5,13.2c-1.6,8.7-4.7,17.2-8.9,24.9c1.7-4.1,3.4-8.1,4.5-12.4l0.5-1.6l0.4-1.6c0.3-1.1,0.5-2.1,0.8-3.2
					c0.4-2.1,0.9-4.3,1.2-6.4c0.4-2.2,0.6-4.3,0.8-6.5c0.1-2.2,0.3-4.3,0.4-6.5c0.2-4.4,0-8.7-0.4-13.1c-0.3-4.3-0.9-8.7-1.7-13
					c-0.8-4.3-1.8-8.6-2.9-12.8c-1.2-4.2-2.5-8.4-4-12.5C1187.6,1641.2,1186,1637.1,1184.1,1633.2z"/>
			</g>
			<g>
				<path class="st5" d="M1391.9,1584.6c11.8-1.8,23.8-1.9,35.7-0.5c5.9,0.7,11.8,1.8,17.6,3.4c5.8,1.6,11.4,3.7,16.9,6.3
					c1.3,0.7,2.7,1.3,4,2l3.9,2.2c2.5,1.6,5.1,3.3,7.4,5.2c4.7,3.7,9.1,7.9,12.8,12.6l1.4,1.7l1.3,1.9c0.8,1.2,1.8,2.4,2.5,3.7
					c1.5,2.6,3.1,5.2,4.3,7.9c2.6,5.4,4.4,11.1,6,16.8l-1.5-4.2c-0.5-1.4-0.9-2.8-1.6-4.2l-1.8-4.1c-0.3-0.7-0.6-1.3-1-2l-1-2
					c-1.3-2.7-2.9-5.1-4.5-7.6c-0.8-1.2-1.7-2.4-2.6-3.6l-1.3-1.8l-1.4-1.7c-3.7-4.6-8.1-8.6-12.8-12.1c-2.3-1.8-4.8-3.4-7.3-5
					l-3.8-2.2c-1.3-0.7-2.6-1.3-3.9-2c-10.6-5.1-22.1-8.2-33.8-9.9c-5.9-0.8-11.8-1.4-17.7-1.5
					C1403.7,1583.9,1397.8,1584,1391.9,1584.6z"/>
			</g>
			<g>
				<path class="st5" d="M1451.6,1636.2c-2.9-4.7-6.1-9.2-9.4-13.6c-3.3-4.4-6.9-8.5-10.7-12.4c-1.9-2-3.9-3.8-5.9-5.7
					c-2-1.8-4.2-3.5-6.4-5.1c-4.4-3.2-9.1-6-14.2-8.3c2.7,0.8,5.3,1.8,7.8,2.9c2.5,1.2,5,2.5,7.3,4.1c4.7,3,8.9,6.7,12.9,10.7
					c1.9,2,3.8,4.1,5.6,6.2c1.7,2.2,3.4,4.4,5,6.7C1446.6,1626.3,1449.4,1631.2,1451.6,1636.2z"/>
			</g>
			<g>
				<path class="st5" d="M1380.6,1537c3.6-8.4,8.3-16.4,13.7-23.8c5.4-7.5,11.5-14.4,18.4-20.6c3.4-3.1,7-6,10.8-8.6
					c1.9-1.3,3.9-2.5,5.8-3.8c2-1.1,4-2.3,6.1-3.3c8.2-4.2,17.1-7,26.2-8.3c-4.4,1.2-8.9,2.3-13.1,4c-0.5,0.2-1.1,0.4-1.6,0.6
					l-1.6,0.7c-1,0.5-2.1,0.9-3.1,1.4c-2,1-4.1,1.9-6.1,3.1c-2,1-3.9,2.3-5.9,3.4c-1.9,1.3-3.8,2.5-5.6,3.8
					c-1.9,1.3-3.6,2.7-5.4,4.1c-1.7,1.5-3.5,2.9-5.2,4.4c-6.8,6-12.9,12.8-18.5,20c-2.8,3.6-5.4,7.3-7.9,11.1
					C1385.1,1529,1382.8,1532.9,1380.6,1537z"/>
			</g>
			<g>
				<path class="st5" d="M1385.8,1584.5c-5.7,5-12.4,8.8-19.3,11.9c-7,3.1-14.3,5.3-21.8,6.5c-7.5,1.3-15.2,1.6-22.8,1.1
					c-7.6-0.6-15.1-2.1-22.3-4.4c7.4,1.6,14.9,2.5,22.4,2.8c3.7,0.1,7.5,0.1,11.2-0.2c1.9-0.1,3.7-0.3,5.6-0.5
					c1.9-0.3,3.7-0.5,5.5-0.8c7.4-1.2,14.6-3.3,21.6-6c3.5-1.4,6.9-2.9,10.2-4.6C1379.4,1588.6,1382.7,1586.7,1385.8,1584.5z"/>
			</g>
			<g>
				<path class="st5" d="M1304.1,1604.6c3.1,2.7,6.3,5.3,9.6,7.7c3.3,2.5,6.6,4.8,10,7.1c6.8,4.5,13.9,8.6,21.2,12.2
					c3.7,1.8,7.4,3.4,11.2,4.9c3.8,1.5,7.7,2.8,11.6,3.9c7.8,2.2,15.9,3.6,24.1,4c-2,0-4.1,0.2-6.2,0c-1,0-2.1-0.1-3.1-0.1l-3.1-0.3
					c-4.1-0.5-8.2-1.1-12.2-2.1c-8-1.9-15.8-4.9-23.2-8.5c-7.4-3.6-14.5-7.9-21.2-12.7C1316.2,1615.8,1309.8,1610.5,1304.1,1604.6z"
					/>
			</g>
			<g>
				<path class="st5" d="M1295.4,1598.7c-2.5-0.9-5.2-1.5-7.8-1.7c-2.6-0.2-5.3,0.1-7.8,0.9c-2.5,0.7-4.9,1.9-7.1,3.3
					c-0.5,0.4-1.1,0.7-1.6,1.1l-1.5,1.2l-3,2.7c-2.2,1.8-4.7,3.1-7.4,3.8c-2.7,0.7-5.5,0.8-8.2,0.5c-2.7-0.4-5.3-0.9-8-1.2
					c-2.7-0.3-5.4-0.6-8.1-0.8c-10.8-0.8-21.6-1.4-32.3-0.7c-5.3,0.3-10.7,1-15.7,2.7c-2.5,0.9-4.9,2.1-6.7,3.9l-0.7,0.7l-0.6,0.8
					c-0.4,0.5-0.7,1.1-1,1.7c-0.2,0.3-0.3,0.6-0.4,0.9l-0.3,0.9c-0.1,0.6-0.2,1.3-0.3,2h-0.2c-0.2-2.7,0.8-5.6,2.6-7.7
					c1.9-2.1,4.3-3.6,6.9-4.7c5.2-2.1,10.7-2.9,16.1-3.4c5.5-0.4,10.9-0.3,16.3,0.1c5.4,0.3,10.8,0.9,16.2,1.7
					c5.4,0.8,10.7,1.7,16.1,2.4c5.3,0.6,10.7-1.4,14.5-4.9c3.7-3.9,8.5-7.3,14-8.6c2.7-0.7,5.6-0.8,8.3-0.4c2.7,0.4,5.4,1.3,7.8,2.6
					L1295.4,1598.7z"/>
			</g>
			<g>
				<path class="st5" d="M1092.8,1638.3c7-1.5,14-3,21-4.4l21-4.2l21-4.1l21-4.2c-6.8,2.2-13.7,4-20.7,5.7c-7,1.7-14,3.1-21,4.5
					c-7,1.4-14.1,2.6-21.1,3.7C1107,1636.5,1099.9,1637.5,1092.8,1638.3z"/>
			</g>
			<g>
				<path class="st5" d="M1376,1545.7c-5-14.9-8.6-30.3-11.6-45.8c-1.5-7.7-2.7-15.5-3.7-23.4c-1-7.8-1.8-15.7-2.4-23.5
					c-0.3-3.9-0.4-7.9-0.6-11.8c-0.1-3.9-0.2-7.9-0.2-11.8c0-7.9,0.2-15.8,0.8-23.6c0.6-7.9,1.6-15.7,2.8-23.5l1.1-5.8
					c0.4-1.9,0.8-3.9,1.2-5.8c0.8-3.9,1.9-7.7,2.9-11.5c-3.4,15.4-5.6,31-6.4,46.6l-0.2,2.9l-0.1,2.9l-0.2,5.9
					c-0.1,3.9-0.1,7.8-0.1,11.8c0,3.9,0.2,7.8,0.3,11.8c0.2,3.9,0.4,7.8,0.7,11.8c1,15.7,3,31.3,5.6,46.8c1.3,7.7,2.8,15.5,4.5,23.1
					C1372.1,1530.5,1373.9,1538.1,1376,1545.7z"/>
			</g>
			<g>
				<path class="st5" d="M1385.8,1584.5c-1.9-0.3-3.7-1.1-5.3-2.1c-1.6-1-3.2-2.3-4.4-3.8c-1.3-1.5-2.3-3.2-3-5
					c-0.7-1.8-1.2-3.7-1.5-5.7c-0.5-3.9-0.2-7.8,0.7-11.5c0.8-3.7,2.1-7.3,3.8-10.7c-0.9,3.7-1.8,7.3-2.3,11
					c-0.1,0.9-0.2,1.8-0.3,2.8c0,0.9-0.1,1.8-0.2,2.8c-0.1,1.8,0,3.7,0.3,5.5c0.5,3.6,1.7,7.1,3.8,10c1,1.5,2.3,2.8,3.7,4
					C1382.4,1582.8,1384,1583.8,1385.8,1584.5z"/>
			</g>
			<g>
				<path class="st5" d="M1428,1237.9c-7.9,7.6-14.8,16.1-21.2,24.9c-3.2,4.4-6.2,9-9.1,13.6l-4.2,7c-1.3,2.4-2.6,4.8-3.9,7.2
					c-1.4,2.4-2.5,4.9-3.6,7.3l-1.8,3.7c-0.3,0.6-0.6,1.2-0.9,1.8l-0.8,1.9l-3.2,7.5c-0.6,1.2-1,2.5-1.4,3.8l-1.4,3.8
					c-2,5.1-3.4,10.4-5,15.6c-0.9,2.6-1.4,5.3-2,7.9c-0.6,2.7-1.3,5.3-1.9,8c0.5-2.7,0.9-5.4,1.4-8.1c0.5-2.7,0.9-5.4,1.6-8.1l2-8
					l0.5-2c0.2-0.7,0.4-1.3,0.6-2l1.3-3.9c3.2-10.5,7.7-20.6,12.7-30.3c5-9.8,11-19,17.7-27.8c3.3-4.4,6.9-8.6,10.6-12.6
					C1419.9,1245.3,1423.7,1241.4,1428,1237.9z"/>
			</g>
			<g>
				<path class="st5" d="M1063.8,1487.8c-2.1-7-3.8-14.1-5.6-21.1c-0.8-3.5-1.6-7.1-2.4-10.7l-2.2-10.7c-2.8-14.3-5-28.7-6.9-43.2
					c-1.8-14.5-3-29-3.7-43.6c-0.7-14.6-0.5-29.2,0.3-43.7c0,3.6,0.1,7.3,0.1,10.9l0,5.5l0.2,5.5l0.3,10.9l0.6,10.9
					c0.2,3.6,0.5,7.3,0.8,10.9c0.3,3.6,0.5,7.3,0.9,10.9l1.1,10.8c0.4,3.6,0.9,7.2,1.3,10.8c1.7,14.4,3.9,28.8,6.5,43.1l1.9,10.7
					l2.1,10.7C1060.6,1473.6,1062.2,1480.7,1063.8,1487.8z"/>
			</g>
			<g>
				<path class="st5" d="M1074.5,1502.7c3.7,6.7,7.8,13.1,12.1,19.4c4.3,6.3,8.9,12.4,13.7,18.2c4.9,5.8,9.8,11.6,15.2,17
					c5.3,5.4,11,10.5,16.8,15.3c11.7,9.6,24.7,17.8,38.6,23.7c13.9,6,29,9.4,44.2,10.2l-5.7-0.2c-1,0-1.9-0.1-2.9-0.1l-2.8-0.3
					c-1.9-0.2-3.8-0.4-5.7-0.6l-5.7-1c-1.9-0.3-3.7-0.8-5.6-1.3c-1.9-0.5-3.7-0.9-5.5-1.5l-5.5-1.7l-5.4-2c-1.8-0.6-3.5-1.5-5.3-2.2
					c-1.7-0.8-3.5-1.5-5.2-2.5l-5.1-2.7l-5-2.9c-6.5-4-12.8-8.4-18.8-13.2c-11.8-9.8-22.5-20.8-32-32.9c-4.7-6-9.2-12.2-13.3-18.7
					C1081.7,1516.2,1077.8,1509.6,1074.5,1502.7z"/>
			</g>
			<g>
				<path class="st5" d="M1082.2,1493.4c2.2,2.3,4.7,4.3,7.3,6l2,1.3c0.6,0.4,1.3,0.8,2,1.2c0.7,0.4,1.3,0.8,2,1.2l2.1,1.1
					c5.6,2.8,11.5,4.9,17.6,6.3l4.6,0.9l1.2,0.2l1.2,0.1l2.3,0.3l2.3,0.3c0.4,0,0.8,0.1,1.2,0.1l1.2,0.1l4.7,0.3
					c1.6,0.2,3.1,0,4.7,0l4.7,0c3.2-0.1,6.3-0.5,9.5-0.6c-1.6,0.3-3.1,0.6-4.7,0.8c-1.6,0.3-3.1,0.6-4.7,0.8l-4.8,0.4
					c-1.6,0.1-3.2,0.3-4.8,0.2c-3.2,0-6.4,0-9.6-0.4l-2.4-0.3l-1.2-0.1l-1.2-0.2l-4.7-0.9c-6.2-1.5-12.3-3.7-17.9-6.9
					C1091.2,1502.4,1086,1498.4,1082.2,1493.4z"/>
			</g>
			<g>
				<path class="st5" d="M1037.1,1466.4c-7.3-5.5-14.1-11.7-20.5-18.3c-6.4-6.5-12.4-13.5-18-20.8c-1.4-1.8-2.8-3.6-4.1-5.5
					l-3.9-5.7c-1.3-1.9-2.5-3.9-3.7-5.8l-1.8-2.9c-0.6-1-1.1-2-1.7-3l-3.3-6l-3-6.2l-1.5-3.1l-1.3-3.2c-0.9-2.1-1.7-4.3-2.5-6.4
					c1,2.1,2,4.1,3,6.2l1.5,3.1l1.7,3l3.3,6l3.5,5.9c4.8,7.8,9.9,15.3,15.5,22.5c5.5,7.2,11.4,14.2,17.6,20.9l4.7,5
					c1.6,1.6,3.2,3.3,4.8,4.9C1030.4,1460.2,1033.7,1463.3,1037.1,1466.4z"/>
			</g>
			<g>
				<path class="st5" d="M1009.2,1425.4c-4.9-5.6-9.3-11.6-13.2-17.9c-3.9-6.3-7.4-12.9-10.2-19.8c-1.4-3.5-2.6-7-3.7-10.6
					c-1-3.6-1.8-7.3-2.3-11c-0.5-3.7-0.7-7.5-0.4-11.2c0.3-3.7,1-7.4,2.1-10.9c-1.6,7.3-1.5,14.7-0.2,21.9c0.6,3.6,1.5,7.2,2.5,10.7
					c1,3.5,2.3,7,3.7,10.4c2.7,6.8,6.1,13.4,9.7,19.8c1.8,3.2,3.7,6.4,5.7,9.5C1005,1419.3,1007.1,1422.3,1009.2,1425.4z"/>
			</g>
			<g>
				<path class="st5" d="M1043,1307.4c-1-4.7-1.8-9.4-2.4-14.1c-0.6-4.7-1-9.5-1.2-14.2c-0.2-4.8-0.3-9.5-0.1-14.3
					c0.2-4.8,0.7-9.5,1.7-14.2c-0.2,4.8-0.2,9.5-0.2,14.2c0,1.2,0.1,2.4,0.1,3.5l0.1,3.5c0.1,2.4,0.2,4.7,0.3,7.1
					c0.2,4.7,0.5,9.5,0.8,14.2C1042.4,1297.9,1042.7,1302.7,1043,1307.4z"/>
			</g>
			<g>
				<g>
					<rect x="1236.9" y="1376.4" class="st1" width="76.4" height="6.2"/>
				</g>
				<g>
					<g>
						<rect x="1247.1" y="1387" class="st1" width="56" height="90.3"/>
					</g>
					<g>
						<rect x="1256.8" y="1450.6" class="st4" width="36.8" height="1.9"/>
					</g>
					<g>
						
							<ellipse transform="matrix(0.2298 -0.9732 0.9732 0.2298 -366.6008 2308.5098)" class="st4" cx="1275.2" cy="1385.9" rx="8.2" ry="8.2"/>
					</g>
					<g>
						<rect x="1265.1" y="1415.9" class="st4" width="20" height="23.1"/>
					</g>
					<g>
						<rect x="1261" y="1454.9" class="st4" width="28.4" height="1.9"/>
					</g>
					<g>
						<circle class="st1" cx="1275.2" cy="1385.9" r="3.4"/>
					</g>
				</g>
			</g>
			<g>
				<path class="st8" d="M1092.8,1638.3c0,0,29.5,12.9,25.2,84.4c0,0-13.9,2.2-25.6,7.3c-11.4,5-33.6,4.2-58.3-16.3
					c-28.3-23.4-46.3-32-46.3-32s-17.1-3.4-23.4-6.2c0,0-6.3,6.4-15.7,9.9c0,0,1.2,14.7-10.6,19.4c-1.6,0.6-3.3-0.4-3.6-2.1
					c-0.7-4.9-2.2-14.8-4.8-22.4c-1.1-3.2-0.3-6.7,2.1-9.1c3.1-3,7.3-7.4,10.2-11.3c0,0-6.2,1-14.1,1.2c0,0-3.8,6.4-14.4,13.4
					c0,0,5.3,27.8-18.1,28.8c-1.6,0.1-2.9-1.3-2.7-2.9c0.4-3.6,0.7-10.1-0.4-16.9c0,0-1.3,9.7-9.9,13.9c-1.6,0.8-3.6-0.3-3.7-2.1
					c-0.7-6.9-2.6-23.1-6.4-34.7c-1.2-3.9-0.6-8.1,1.8-11.3c5.7-7.7,16.2-22,22.8-33.1c3.2-5.3,8.3-9.2,14.3-10.6
					c15.8-3.9,46.8-12,66.1-20.4c7.2-3.1,15.4-2.4,22,1.9c0,0,54.3,36.3,72.6,48.1C1076.3,1638,1083.1,1642.1,1092.8,1638.3z"/>
			</g>
			<g>
				<path class="st8" d="M893.7,1621.4c0,0,1.1,16.9-14.1,24c0,0-9.3,2-4.6,12.6c0,0-1.2,10.8-12.9,9.8c-11.7-1-16.8-13.9-16.8-13.9
					s-6.3,1.4-11.7-0.8c0,0-18.4,5.1-41.1-0.7c0,0-4,20.3-22,17.2c-1.9-0.3-3.1-2.2-2.7-4c0.9-3.7,2.4-10.4,3.6-18.3
					c0,0-3.7-1.1-5.2-2.4c0,0,3.3,21.1-14.5,24.6c-1.7,0.3-3.3-0.7-3.8-2.4l-2.4-8.6c0,0-0.3,4.2-5.1,6.6c-1.8,0.9-3.9,0.1-4.6-1.8
					c-1.3-3.8-3.7-10.2-5.5-12.8c0,0,1.9,6.4-2.5,10.4c-1.7,1.5-4.4,0.9-5.2-1.2c-1.4-3.4-3.8-8.8-7.1-14c-1.5-2.4-2.2-5.2-1.8-8
					c0.6-5.2,1.4-13.9,0.9-21.2c-0.2-2.5,1.1-5,3.2-6.3l6.1-4c0,0,1.2-7.4,1.4-14.3c0.1-3.6,2.8-6.5,6.3-6.8l22.3-2.2l26-12.2
					c3-1.4,6.3-2,9.6-1.8l20.6,1.3v0c5.1-3.7,11.6-4.9,17.6-3l8.7,2.7c0,0,12,4,22.2,13.1c4.4,3.9,9,7.4,14.2,10.1
					C879.9,1596.7,890.2,1604.8,893.7,1621.4z"/>
			</g>
			<g>
				<path class="st9" d="M1004.6,1648.3c-1.3,0.5-2.7,0.7-4.1,0.8c-1.4,0.2-2.8,0.3-4.2,0.3c-2.8,0.1-5.6,0-8.4-0.2
					c-2.8-0.1-5.6-0.5-8.4-0.7c-2.8-0.2-5.6-0.4-8.4-0.5c-2.8-0.1-5.6-0.2-8.4-0.2c-1.4,0-2.7,0-4,0.2c-1.3,0.3-2.6,0.7-3.8,1.4
					c-1.2,0.6-2.2,1.5-3.3,2.4l-3.2,2.8c-2.2,1.8-4.3,3.6-6.5,5.4c2-2,4-4,6-5.9l3-2.9c1-1,2.1-2,3.3-2.7c1.2-0.8,2.6-1.3,4.1-1.6
					c1.4-0.3,2.9-0.4,4.3-0.4c2.8,0,5.6,0,8.4,0.1c2.8,0.1,5.6,0.3,8.4,0.6c2.8,0.3,5.6,0.6,8.3,0.9c2.8,0.3,5.6,0.5,8.3,0.6
					C999,1648.8,1001.8,1648.8,1004.6,1648.3z"/>
			</g>
			<g>
				<path class="st9" d="M984,1615.5c-2.6,1.2-5.3,1.8-8.1,2.4c-2.8,0.5-5.5,0.9-8.3,1.2c-5.6,0.5-11.2,0.6-16.8,0.4
					c-5.6-0.2-11.1-0.5-16.7-0.7c-5.5,0-11,2.6-14.4,6.8c-6.5,9-13.1,18.1-19.8,27l-2.5,3.3c-0.9,1.1-1.6,2.2-2.3,3.4
					c-1.3,2.4-2,5-2.3,7.7c-0.6,5.5-0.8,11.1-0.5,16.7l-0.1,0c-0.7-5.5-0.8-11.2-0.5-16.8c0.1-2.8,0.9-5.7,2.2-8.3
					c0.6-1.3,1.5-2.5,2.3-3.6l2.5-3.4c3.3-4.5,6.7-8.9,10.1-13.3l5.1-6.6l2.6-3.3c0.9-1.1,1.7-2.2,2.7-3.3c3.8-4.2,9.4-6.7,15.1-6.8
					c5.6,0,11.2-0.1,16.8-0.1c5.6,0.1,11.1,0.1,16.7-0.3c2.8-0.2,5.5-0.4,8.3-0.8c2.7-0.4,5.5-0.8,8.1-1.7L984,1615.5z"/>
			</g>
			<g>
				<path class="st9" d="M974,1592.9c-3.1,2.5-7,3.8-10.9,4.3c-3.9,0.6-7.8,0.8-11.7,1.1c-3.9,0.3-7.8,0.6-11.6,1
					c-3.9,0.5-7.7,1.1-11.6,1.9c3.7-1.3,7.5-2.4,11.4-3.1c3.9-0.7,7.8-1.1,11.7-1.4c3.9-0.3,7.8-0.4,11.7-0.8
					C966.7,1595.7,970.6,1594.9,974,1592.9z"/>
			</g>
			<g>
				<path class="st9" d="M779.1,1601.6c-0.8,4.1-1.6,8.1-2.6,12.2c-0.5,2-1,4-1.4,6.1c-0.5,2-1.1,4-1.5,6c-0.4,2-0.7,4-0.9,6
					c-0.1,1-0.1,2-0.1,3.1c0,1,0,2.1-0.1,3.1c-0.2,4.2-0.6,8.4-1.7,12.4c0.3-2.1,0.5-4.1,0.5-6.2c0.1-2.1,0.1-4.1,0.1-6.2l-0.1-3.1
					c0-1.1,0-2.1,0-3.2c0.1-2.1,0.4-4.2,0.8-6.3c1-4.1,2.1-8,3.3-12C776.5,1609.5,777.8,1605.5,779.1,1601.6z"/>
			</g>
			<g>
				<path class="st9" d="M810,1570.1c-1.1,1.5-2.2,2.9-3.5,4.3c-1.2,1.4-2.5,2.7-3.8,4c-1.4,1.2-2.8,2.4-4.1,3.7
					c-1.3,1.3-2.5,2.7-3.7,4.1c-1.2,1.4-2.4,2.8-3.7,4.1c-1.3,1.4-2.5,2.7-3.8,4c-2.6,2.6-5.4,5-8.3,7.3l-0.1-0.1
					c2.3-2.9,4.8-5.7,7.3-8.3c1.3-1.3,2.6-2.6,3.9-3.9c1.3-1.3,2.7-2.5,4.1-3.7c1.4-1.2,2.7-2.5,4-3.8c1.2-1.4,2.4-2.8,3.6-4.2
					c1.2-1.4,2.5-2.7,3.9-3.9c1.3-1.3,2.7-2.5,4.2-3.6L810,1570.1z"/>
			</g>
			<g>
				<path class="st9" d="M766.1,1644.8c-0.3-3-0.7-6-1.2-8.9c-0.2-1.5-0.5-3-0.7-4.5c-0.2-1.5-0.3-3-0.5-4.5l0-0.1l0.1-0.1
					c1.9-3.2,3.2-6.6,4.2-10.1c0.5-1.8,1-3.5,1.4-5.3c0.4-1.8,0.7-3.5,0.7-5.3l0-0.6l0.6-0.2c1.2-0.3,2.4-0.7,3.6-1.3
					c1.2-0.5,2.3-1.1,3.4-1.8c1.1-0.7,2.1-1.4,3.1-2.3c1-0.8,1.9-1.8,2.8-2.7l0.1,0.1c-0.7,1.1-1.4,2.3-2.4,3.2
					c-0.9,1-1.9,1.9-3,2.7c-1.1,0.8-2.2,1.5-3.5,2.1c-1.2,0.6-2.5,1.1-3.9,1.4l0.6-0.8c0,2-0.5,3.8-0.9,5.6
					c-0.5,1.8-1.1,3.5-1.9,5.2c-0.7,1.7-1.5,3.4-2.2,5.1c-0.7,1.7-1.5,3.4-2.2,5.1l0-0.2c0.4,1.5,0.7,2.9,1,4.4
					c0.3,1.5,0.5,3,0.7,4.5c0.4,3,0.5,6.1,0.1,9.1L766.1,1644.8z"/>
			</g>
			<g>
				<path class="st9" d="M753.8,1582.8c-1.5,0.9-3,1.7-4.5,2.6c-1.5,0.8-2.8,1.9-4,3.1c-2.4,2.4-3.9,5.5-4.5,8.7
					c-0.2,0.8-0.3,1.6-0.3,2.5l-0.1,2.6c-0.1,1.7-0.2,3.5-0.3,5.2c-0.1,3.5-0.1,6.9-0.2,10.4c0,1.7-0.1,3.5-0.2,5.2
					c-0.1,0.9-0.1,1.7-0.2,2.6c-0.1,0.9-0.3,1.8-0.4,2.5c-0.1,1.6,0.1,3.2,0.7,4.8c0.6,1.6,1.1,3.3,1.7,4.9c2,6.7,3.6,13.5,4.1,20.4
					l-0.1,0c-1.5-6.8-3.4-13.4-5.5-20l-1.6-4.9c-0.6-1.7-0.9-3.6-0.7-5.4c0.1-1,0.3-1.7,0.4-2.6c0.1-0.8,0.3-1.7,0.4-2.5
					c0.2-1.7,0.4-3.4,0.6-5.1c0.3-3.4,0.5-6.9,0.6-10.4c0-1.7,0-3.5-0.1-5.2l-0.1-2.6c0-0.9,0-1.8,0.1-2.7c0.5-3.6,2.3-6.9,4.9-9.4
					c1.3-1.2,2.8-2.2,4.5-2.9c1.6-0.7,3.2-1.4,4.8-2L753.8,1582.8z"/>
			</g>
			<g>
				<path class="st9" d="M723.8,1606.1c0.2,3.9,0.2,7.8,0,11.6c-0.2,3.9-0.5,7.8-1,11.6c-0.1,1-0.3,1.9-0.3,2.8
					c0,0.9,0.1,1.8,0.4,2.7c0.2,0.9,0.6,1.7,1.1,2.5c0.5,0.8,1,1.7,1.5,2.5c1.9,3.4,3.6,6.9,4.9,10.6c-1.8-3.4-3.8-6.7-5.9-10
					l-1.6-2.4c-0.6-0.9-1-1.8-1.3-2.8c-0.3-1-0.5-2-0.5-3c0-1,0.1-2.1,0.3-3c0.6-3.8,0.9-7.6,1.3-11.5L723.8,1606.1z"/>
			</g>
			<g>
				<path class="st9" d="M833.7,1608.9c1.2,5,2.6,9.9,4.6,14.6l0.8,1.7l0.9,1.7c0.3,0.6,0.6,1.1,0.9,1.7c0.3,0.5,0.6,1.1,1,1.6
					c1.3,2.2,2.9,4.1,4.6,6.1c-2.1-1.5-4-3.3-5.6-5.4c-1.6-2.1-2.9-4.4-3.9-6.8c-1-2.4-1.8-4.9-2.4-7.5
					C834,1614.1,833.6,1611.5,833.7,1608.9z"/>
			</g>
			<g>
				<path class="st9" d="M830.9,1597.2c-2.2,2.4-4.5,4.7-6.9,6.9c-2.4,2.2-4.9,4.3-7.5,6.3c-2.6,2-5.3,3.9-8,5.6
					c-2.7,1.8-5.6,3.4-8.5,4.9l0.4-0.6c-0.2,2.8-0.5,5.5-0.9,8.3c-0.4,2.7-0.9,5.5-1.6,8.1c-0.6,2.7-1.4,5.3-2.3,8
					c-0.9,2.6-1.9,5.2-3.1,7.6c0.9-2.6,1.8-5.2,2.4-7.9c0.7-2.6,1.4-5.3,1.8-8c0.5-2.7,1-5.4,1.3-8.1c0.4-2.7,0.7-5.4,0.8-8.1l0-0.4
					l0.4-0.2c2.9-1.5,5.7-3,8.4-4.8c1.4-0.8,2.7-1.7,4.1-2.6c1.3-0.9,2.7-1.8,4-2.8c2.6-1.9,5.2-3.8,7.7-5.9
					C826.1,1601.5,828.5,1599.4,830.9,1597.2z"/>
			</g>
			<g>
				<path class="st9" d="M847.2,1635.1c-1.4,2.8-1.9,5.9-2,8.9c-0.1,3,0.4,6.1,1.1,9c0.4,1.5,0.8,3,1.4,4.4c0.6,1.4,1.4,2.7,2.5,3.9
					c2,2.3,4.8,3.9,7.7,4.8c2.9,0.9,6,1,8.9,0.3c2.9-0.7,5.4-2.4,7-4.9c0.8-1.2,1.4-2.6,1.6-4c0.2-1.4,0-2.9-0.4-4.3
					c-0.8-2.9-2.6-5.7-3-8.8l0.1,0c0.9,3,2.8,5.5,4,8.5c0.6,1.5,0.9,3.2,0.7,4.9c-0.2,1.7-0.8,3.3-1.7,4.7c-0.9,1.4-2,2.7-3.4,3.6
					c-1.4,0.9-3,1.5-4.6,1.9c-3.2,0.7-6.6,0.3-9.5-0.9c-3-1.2-5.6-3-7.8-5.3c-1.1-1.2-2-2.4-2.8-3.8c-0.8-1.4-1.3-2.9-1.9-4.4
					c-1-3-1.4-6.3-1.1-9.5c0.3-3.2,1.2-6.3,3.1-8.9L847.2,1635.1z"/>
			</g>
			<g>
				<path class="st9" d="M884.8,1606c2.1,3.1,3,6.9,2.6,10.7c-0.2,1.9-0.8,3.8-1.7,5.4c-0.4,0.9-1,1.6-1.5,2.4
					c-0.5,0.8-1.1,1.5-1.6,2.2c-2,3-3.8,6.2-5.3,9.5c-1.5,3.3-2.9,6.7-4.2,10.2c0.7-3.6,1.7-7.2,3.1-10.7c1.3-3.5,3.1-6.8,5.2-9.9
					c0.5-0.8,1.1-1.5,1.7-2.3c0.5-0.7,1.1-1.4,1.4-2.2c0.5-0.8,0.8-1.6,1.1-2.4c0.3-0.8,0.5-1.7,0.7-2.6c0.3-1.7,0.3-3.5,0.1-5.3
					C886.1,1609.4,885.6,1607.7,884.8,1606z"/>
			</g>
			<g>
				<path class="st9" d="M896.9,1616.3c-1.7,3.2-3.4,6.3-5.3,9.4c-1.8,3.1-3.8,6-5.5,9.2c-1.8,3.1-3.4,6.3-4.9,9.5
					c-1.6,3.2-3.3,6.4-5.4,9.3c1.6-3.2,3-6.5,4.4-9.8c1.4-3.3,2.9-6.6,4.7-9.7c0.9-1.6,1.8-3.1,2.8-4.6l3-4.5
					C892.6,1622.1,894.7,1619.1,896.9,1616.3z"/>
			</g>
		</g>
		<g>
			<g>
				
					<ellipse transform="matrix(4.637356e-02 -0.9989 0.9989 4.637356e-02 221.2196 2268.7986)" cx="1298.9" cy="1018.5" rx="42.9" ry="27.3"/>
			</g>
			<g>
				<polygon points="1296.9,1061.4 1307.5,1061.7 1311.5,975.9 1299.9,975.6 				"/>
			</g>
			<g>
				
					<ellipse transform="matrix(4.637349e-02 -0.9989 0.9989 4.637349e-02 231.0567 2279.5825)" class="st4" cx="1309.5" cy="1018.8" rx="42.9" ry="32.5"/>
			</g>
			<g>
				<path d="M1308.6,977.3c0,0-0.1,0-0.1,0c-0.8-0.1-1.4-0.8-1.3-1.6c0.1-0.9,8.2-89.5-24.5-124.7c-9.1-9.8-20.7-14.6-34.4-14.3
					c-0.8,0.1-1.5-0.6-1.5-1.5c0-0.8,0.6-1.5,1.5-1.5c14.6-0.3,27,4.8,36.7,15.2c33.6,36.2,25.6,123.3,25.2,127
					C1310,976.7,1309.3,977.3,1308.6,977.3z"/>
			</g>
			<g>
				<path d="M1315.5,977.9c0,0-0.1,0-0.1,0c-0.8-0.1-1.4-0.8-1.4-1.6c0.1-0.9,8.3-92.9-26.8-127.2c-10.2-10-23.3-14.2-38.9-12.4
					c-0.8,0.1-1.6-0.5-1.7-1.3c-0.1-0.8,0.5-1.6,1.3-1.7c16.5-1.9,30.5,2.5,41.4,13.2c36,35.3,28,125.8,27.6,129.6
					C1316.9,977.3,1316.3,977.9,1315.5,977.9z"/>
			</g>
			<g>
				<path class="st1" d="M1314.4,1052.9c-0.3,0-0.6,0-0.9,0c-6.9-0.3-13.2-4.2-17.8-10.8c-4.5-6.6-6.8-15.2-6.4-24.2
					c0.4-9,3.5-17.3,8.6-23.5c5.2-6.2,11.8-9.4,18.7-9.1c6.9,0.3,13.2,4.2,17.8,10.8c4.5,6.6,6.8,15.2,6.4,24.2l0,0
					c-0.4,9-3.5,17.3-8.6,23.5C1327.3,1049.7,1321,1052.9,1314.4,1052.9z M1315.7,986.3c-6.3,0-12.3,3.1-17,8.8
					c-5,6-8,14.1-8.4,22.9c-0.4,8.8,1.8,17.2,6.2,23.6c4.4,6.4,10.4,10.1,17,10.4c6.6,0.3,12.9-2.8,17.9-8.7c5-6,7.9-14.1,8.4-22.9
					c0.4-8.8-1.8-17.2-6.2-23.6c-4.4-6.4-10.4-10.1-17-10.4C1316.3,986.3,1316,986.3,1315.7,986.3z"/>
			</g>
			<g>
				<path d="M1231.2,1081.5c-3.8,0-7.7-0.2-11.8-0.7l0.3-3c46.4,5.2,75.8-22.4,76.1-22.6l2.1,2.2
					C1297.6,1057.7,1272.1,1081.5,1231.2,1081.5z"/>
			</g>
			<g>
				<path d="M1231.4,1087.1c-4.2,0-8.4-0.2-12.6-0.7c-3.8-0.4-6.6-3.9-6.2-7.7c0.4-3.8,3.9-6.6,7.7-6.2c6.5,0.7,13,0.8,19.4,0.3
					c3.8-0.3,7.2,2.5,7.6,6.4c0.3,3.9-2.5,7.2-6.4,7.6C1237.8,1086.9,1234.6,1087.1,1231.4,1087.1z"/>
			</g>
			<g>
				
					<ellipse transform="matrix(4.637040e-02 -0.9989 0.9989 4.637040e-02 236.1957 2286.2424)" cx="1315.5" cy="1019.4" rx="24.7" ry="18.7"/>
			</g>
			<g>
				<polygon class="st11" points="1316.7,994.7 1322.7,994.7 1321.6,1044.1 1314.4,1044.1 				"/>
			</g>
			<g>
				
					<ellipse transform="matrix(4.637894e-02 -0.9989 0.9989 4.637894e-02 241.9552 2292.2776)" class="st3" cx="1321.6" cy="1019.4" rx="24.7" ry="18.7"/>
			</g>
			<g>
				<path class="st1" d="M1323.1,1036.9c-0.2,0-0.3,0-0.5,0c-7.3-0.3-12.9-8.4-12.5-18c0.2-4.6,1.8-8.9,4.4-12.1
					c2.7-3.2,6.1-4.9,9.7-4.7c7.3,0.3,12.9,8.4,12.5,18C1336.3,1029.5,1330.2,1036.9,1323.1,1036.9z M1323.8,1003.1
					c-3.1,0-6.1,1.5-8.4,4.4c-2.5,3-4,7.1-4.2,11.5c-0.4,9,4.8,16.7,11.5,17c6.8,0.3,12.6-6.8,13-15.8c0.4-9-4.8-16.7-11.5-17
					C1324.1,1003.1,1323.9,1003.1,1323.8,1003.1z"/>
			</g>
		</g>
		<g>
			<g>
				<rect x="680.8" y="1710.5" class="st1" width="341.7" height="24.3"/>
			</g>
			<g>
				<path class="st3" d="M805.2,1598.3l-11.2-0.5h0l-604-25c-16.3-0.7-29.6-14.5-31-32.4l-33.4-408.1c-1.7-20.3,12.5-37.9,31-38.7
					l599.9-25l11.1-0.5c17.2-0.7,31.9,13.5,33.4,32.4l37.5,459C840.4,1581,824.7,1599.1,805.2,1598.3z"/>
			</g>
			<g>
				<path class="st3" d="M505.3,1657l32.4-266.3H402.2l-34.6,284.4c-3.8,31.4,18.4,59.4,47.3,59.4h81h127.8v-4.1
					c0,0-57-5.3-74.1-10.3C521.8,1711.9,501.5,1688.5,505.3,1657z"/>
			</g>
			<g>
				<path d="M805.2,1598.3l-11.2-0.5c19.5,0.8,35.1-16.4,33.4-37.8l-37.5-459c-1.5-18.8-16.2-33.1-33.4-32.3l0.1,0l11.1-0.5
					c17.2-0.7,31.9,13.5,33.4,32.4l37.5,459C840.4,1581,824.7,1599.1,805.2,1598.3z"/>
			</g>
			<g class="st12">
				<polygon class="st13" points="533,1417.8 535.7,1587.2 513.9,1586.3 				"/>
			</g>
			<g>
				
					<ellipse transform="matrix(0.2278 -0.9737 0.9737 0.2278 -1056.379 1566.7052)" class="st0" cx="459.6" cy="1449.4" rx="19.8" ry="19.8"/>
			</g>
			<g class="st12">
				<rect x="880.1" y="1710.5" class="st13" width="142.5" height="24.3"/>
			</g>
			<g>
				<path d="M431.3,1390.8c-3.2,0.1-6.3,0.7-9.3,1.6c-3,0.9-5.8,2.4-8.4,4.1c-1.3,0.8-2.5,1.9-3.7,2.9l-1.7,1.7
					c-0.6,0.5-1,1.2-1.5,1.8c-2,2.4-3.6,5.1-4.8,7.9c-1.2,2.9-2,5.9-2.4,9l-1.1,9.5c-0.7,6.3-1.6,12.6-2.4,18.9l-2.6,18.9l-1.3,9.4
					l-1.2,9.5c-1.6,12.6-3,25.2-4.4,37.9c-1.3,12.6-2.7,25.3-4.2,37.9c-1.5,12.6-2.9,25.2-4.5,37.9c-3.1,25.2-6.5,50.4-10.1,75.6
					l-0.2,0c2.5-25.3,5.2-50.6,8.3-75.8c1.5-12.6,3.1-25.2,4.7-37.8c1.6-12.6,3.3-25.2,5-37.8c1.7-12.6,3.4-25.2,4.8-37.8l1.1-9.5
					l1-9.5l2-19c0.8-6.3,1.4-12.6,2.3-18.9l1.2-9.5c0.5-3.2,1.3-6.4,2.6-9.4c1.3-3,3.1-5.7,5.2-8.2c0.6-0.6,1-1.2,1.6-1.8l1.8-1.7
					c1.3-1,2.5-2,3.9-2.9c2.7-1.7,5.7-3.1,8.8-3.9c3.1-0.8,6.3-1.2,9.5-1.2V1390.8z"/>
			</g>
			<g>
				<path d="M505.2,1657c1.4-14.8,3.1-29.5,4.7-44.3l2.6-22.1c0.8-7.4,1.8-14.7,2.7-22.1l3-22.1l1.5-11l1.4-11
					c1.9-14.7,3.5-29.5,5.2-44.2c1.6-14.8,3.3-29.5,5-44.2l0.6-5.5l0.3-2.8c0.1-0.9,0.1-1.8,0.2-2.7c0.1-3.6-0.2-7.2-1.4-10.6
					c-1.1-3.4-2.7-6.7-4.8-9.6c-2.1-2.9-4.8-5.4-7.7-7.4c-1.5-1.1-3.1-1.9-4.7-2.7l-2.5-1c-0.4-0.2-0.8-0.3-1.3-0.4l-1.3-0.4
					c-0.4-0.1-0.9-0.3-1.3-0.4l-1.3-0.2l-1.3-0.2l-0.7-0.1l-0.7,0l-2.7-0.2l-2.8,0l-22.3-0.2c-14.8-0.1-29.7-0.4-44.5-0.7v-0.2
					c14.8-0.3,29.7-0.5,44.5-0.7l22.3-0.2c7.4-0.4,15.4,1.4,21.7,5.8c3.1,2.2,6,4.8,8.2,7.9c2.2,3.1,4,6.6,5.1,10.2
					c1.2,3.7,1.5,7.5,1.3,11.3c-0.1,0.9-0.1,1.9-0.2,2.8l-0.3,2.8l-0.7,5.5c-1.9,14.7-3.8,29.4-5.8,44.1c-2,14.7-3.9,29.4-5.6,44.2
					l-1.3,11.1l-1.2,11.1l-2.4,22.1c-0.9,7.4-1.7,14.7-2.6,22.1l-2.8,22.1c-1.9,14.7-3.9,29.4-6,44.1L505.2,1657z"/>
			</g>
			<g>
				<path d="M459.6,1429.6c5.2,0,10.4,2.1,14.1,5.7c3.8,3.6,6.1,8.8,6.2,14.1c0.1,5.3-1.9,10.7-5.7,14.6c-1.9,1.9-4.2,3.5-6.7,4.6
					c-2.5,1.1-5.2,1.6-8,1.6c-2.7,0-5.4-0.6-8-1.6c-2.5-1.1-4.8-2.6-6.7-4.6c-3.8-3.9-5.8-9.3-5.7-14.6c0.1-5.3,2.4-10.5,6.2-14.1
					C449.2,1431.6,454.4,1429.5,459.6,1429.6z M459.6,1429.6c-2.6,0-5.2,0.5-7.6,1.5c-2.4,1-4.5,2.5-6.3,4.4
					c-3.6,3.7-5.5,8.9-5.4,13.9c0.1,5.1,2.3,10,5.9,13.4c3.6,3.5,8.5,5.4,13.4,5.4c4.9,0,9.8-2,13.4-5.4c3.6-3.4,5.8-8.3,5.9-13.4
					c0.1-5.1-1.8-10.2-5.4-13.9c-1.8-1.8-4-3.4-6.3-4.4C464.8,1430.1,462.2,1429.6,459.6,1429.6z"/>
			</g>
			<g>
				<path class="st14" d="M756.5,1068.7c5.9-0.3,11.9,1.3,17,4.4c5.1,3.1,9.3,7.6,12.2,12.8c1.5,2.6,2.5,5.4,3.3,8.3
					c0.8,2.9,1.2,5.9,1.4,8.8l1.5,17.7l3,35.4c1,11.8,1.9,23.6,2.8,35.5l5.6,70.9c0.9,11.8,1.9,23.6,2.9,35.4l3,35.4l6,70.9
					l5.8,70.9c2,23.6,3.8,47.3,5.7,70.9l0.7,8.9c0.2,3,0.6,5.9,0.5,8.9c-0.1,6-1.6,11.9-4.5,17.2c-2.8,5.2-7.1,9.7-12.3,12.7
					c-2.6,1.5-5.4,2.6-8.2,3.3c-2.9,0.7-5.9,1-8.8,0.8l0-0.1c3,0.1,5.9-0.2,8.8-0.9c2.9-0.8,5.6-1.9,8.1-3.4c5.1-3,9.2-7.5,12-12.7
					c2.8-5.2,4.2-11.1,4.3-16.9c0-2.9-0.4-5.9-0.6-8.8l-0.8-8.9c-2-23.6-4-47.3-5.9-70.9l-5.8-70.9l-5.6-70.9l-2.8-35.5
					c-0.9-11.8-1.9-23.6-2.9-35.4l-6-70.9c-1-11.8-2-23.6-3-35.4l-2.8-35.5l-1.4-17.7c-0.2-3-0.5-5.9-1.3-8.7
					c-0.8-2.8-1.8-5.6-3.2-8.2c-2.8-5.2-6.9-9.7-11.9-12.8C768.3,1070.2,762.4,1068.5,756.5,1068.7L756.5,1068.7z"/>
			</g>
			<g>
				<rect x="294.7" y="1428.4" transform="matrix(4.883586e-03 -1 1 4.883586e-03 -1220.255 1802.7738)" width="2" height="172.2"/>
			</g>
			<g>
				<g>
					<g>
						
							<rect x="365.9" y="1485.6" transform="matrix(4.882567e-03 -1 1 4.882567e-03 -1126.4625 1854.4026)" class="st0" width="5.3" height="15.1"/>
					</g>
				</g>
				<g>
					<g>
						<path class="st0" d="M334.8,1495.7l-26.1-0.1l0-5.3l26.1,0.1L334.8,1495.7z M282.6,1495.4l-26.1-0.1l0-5.3l26.1,0.1
							L282.6,1495.4z"/>
					</g>
				</g>
				<g>
					<g>
						
							<rect x="220.2" y="1484.9" transform="matrix(4.882697e-03 -1 1 4.882697e-03 -1270.7117 1708.0239)" class="st0" width="5.3" height="15.1"/>
					</g>
				</g>
			</g>
			<g>
				<rect x="649.4" y="1391.2" transform="matrix(4.882133e-03 -1 1 4.882133e-03 -869.0356 2159.1775)" width="2" height="250"/>
			</g>
		</g>
		<g>
			<g>
				<g>
					<path class="st0" d="M984.6,373.4v28.9H200.8v-28.9c0-19.3,15.6-34.9,34.9-34.9h714C969,338.5,984.6,354.1,984.6,373.4z"/>
				</g>
				<g>
					<g>
						<g>
							<g>
								<g>
									
										<ellipse transform="matrix(0.7071 -0.7071 0.7071 0.7071 -276.6699 605.6096)" class="st4" cx="592.7" cy="636.8" rx="85.1" ry="85.1"/>
								</g>
							</g>
						</g>
					</g>
					<g>
						<g>
							<polygon class="st1" points="578.5,677.9 542.5,644.6 554.2,632 578.1,654 631,601.5 643.1,613.7 							"/>
						</g>
					</g>
				</g>
				<g>
					<path class="st1" d="M985.1,402.8H200.3v-29.4c0-19.5,15.9-35.4,35.4-35.4h714c19.5,0,35.4,15.9,35.4,35.4V402.8z M201.3,401.8
						h782.8v-28.4c0-19-15.4-34.4-34.4-34.4h-714c-19,0-34.4,15.4-34.4,34.4V401.8z"/>
				</g>
				<g>
					<path class="st1" d="M949.7,875.1h-714c-19.5,0-35.4-15.9-35.4-35.4V401.8h784.8v437.9C985.1,859.2,969.2,875.1,949.7,875.1z
						 M201.3,402.8v436.9c0,19,15.4,34.4,34.4,34.4h714c19,0,34.4-15.4,34.4-34.4V402.8H201.3z"/>
				</g>
				<g>
					
						<ellipse transform="matrix(0.9229 -0.3849 0.3849 0.9229 -124.046 121.0683)" class="st4" cx="240.4" cy="370.4" rx="9.6" ry="9.6"/>
				</g>
				<g>
					
						<ellipse transform="matrix(0.9229 -0.3849 0.3849 0.9229 -120.8077 137.2451)" class="st4" cx="282.4" cy="370.4" rx="9.6" ry="9.6"/>
				</g>
				<g>
					
						<ellipse transform="matrix(0.7071 -0.7071 0.7071 0.7071 -166.8699 337.8833)" class="st4" cx="324.4" cy="370.4" rx="9.6" ry="9.6"/>
				</g>
			</g>
			<g>
				<g>
					<g>
						
							<ellipse transform="matrix(0.7071 -0.7071 0.7071 0.7071 -21.268 826.5959)" class="st1" cx="987.2" cy="439" rx="240.8" ry="240.8"/>
					</g>
				</g>
				<g>
					<g>
						<path class="st4" d="M987.2,214.6c30.3,0,59.7,5.9,87.3,17.6c26.7,11.3,50.7,27.5,71.3,48.1c20.6,20.6,36.8,44.6,48.1,71.3
							c11.7,27.7,17.6,57,17.6,87.3c0,30.3-5.9,59.7-17.6,87.3c-11.3,26.7-27.5,50.7-48.1,71.3c-20.6,20.6-44.6,36.8-71.3,48.1
							c-27.7,11.7-57,17.6-87.3,17.6c-30.3,0-59.7-5.9-87.3-17.6c-26.7-11.3-50.7-27.5-71.3-48.1c-20.6-20.6-36.8-44.6-48.1-71.3
							c-11.7-27.7-17.6-57-17.6-87.3c0-30.3,5.9-59.7,17.6-87.3c11.3-26.7,27.5-50.7,48.1-71.3c20.6-20.6,44.6-36.8,71.3-48.1
							C927.5,220.5,956.9,214.6,987.2,214.6 M987.2,198.2c-133,0-240.8,107.8-240.8,240.8s107.8,240.8,240.8,240.8
							S1227.9,572,1227.9,439S1120.1,198.2,987.2,198.2L987.2,198.2z"/>
					</g>
				</g>
				<g>
					<g>
						<g>
							<g>
								<path class="st4" d="M987.2,268.7c-2.3,0-4.1-1.8-4.1-4.1v-39.5c0-2.3,1.8-4.1,4.1-4.1s4.1,1.8,4.1,4.1v39.5
									C991.3,266.8,989.4,268.7,987.2,268.7z"/>
							</g>
						</g>
						<g>
							<g>
								<path class="st4" d="M987.2,656.4c-2.3,0-4.1-1.8-4.1-4.1v-39.5c0-2.3,1.8-4.1,4.1-4.1s4.1,1.8,4.1,4.1v39.5
									C991.3,654.6,989.4,656.4,987.2,656.4z"/>
							</g>
						</g>
					</g>
					<g>
						<g>
							<g>
								<path class="st4" d="M1200.8,442.8h-39.5c-2.3,0-4.1-1.8-4.1-4.1c0-2.3,1.8-4.1,4.1-4.1h39.5c2.3,0,4.1,1.8,4.1,4.1
									C1204.9,441,1203,442.8,1200.8,442.8z"/>
							</g>
						</g>
						<g>
							<g>
								<path class="st4" d="M813,442.8h-39.5c-2.3,0-4.1-1.8-4.1-4.1c0-2.3,1.8-4.1,4.1-4.1H813c2.3,0,4.1,1.8,4.1,4.1
									C817.1,441,815.3,442.8,813,442.8z"/>
							</g>
						</g>
					</g>
				</g>
				<g>
					<g>
						<path class="st4" d="M987.2,224.6c28.9,0,57,5.7,83.5,16.8c25.5,10.8,48.5,26.3,68.2,45.9c19.7,19.7,35.2,42.6,45.9,68.2
							c11.2,26.4,16.8,54.5,16.8,83.5s-5.7,57-16.8,83.5c-10.8,25.5-26.3,48.5-45.9,68.2c-19.7,19.7-42.6,35.2-68.2,45.9
							c-26.4,11.2-54.5,16.8-83.5,16.8c-28.9,0-57-5.7-83.5-16.8c-25.5-10.8-48.5-26.3-68.2-45.9c-19.7-19.7-35.2-42.6-45.9-68.2
							c-11.2-26.4-16.8-54.5-16.8-83.5s5.7-57,16.8-83.5c10.8-25.5,26.3-48.5,45.9-68.2c19.7-19.7,42.6-35.2,68.2-45.9
							C930.1,230.2,958.2,224.6,987.2,224.6 M987.2,220.5c-120.7,0-218.5,97.8-218.5,218.5s97.8,218.5,218.5,218.5
							s218.5-97.8,218.5-218.5S1107.8,220.5,987.2,220.5L987.2,220.5z"/>
					</g>
				</g>
				<g>
					<g>
						<g>
							<g>
								<path class="st4" d="M1125,304c-0.5,0-1.1-0.2-1.5-0.6c-0.8-0.8-0.8-2.1,0-2.9l14-14c0.8-0.8,2.1-0.8,2.9,0
									c0.8,0.8,0.8,2.1,0,2.9l-14,14C1126,303.8,1125.5,304,1125,304z"/>
							</g>
						</g>
						<g>
							<g>
								<path class="st4" d="M835.4,593.6c-0.5,0-1.1-0.2-1.5-0.6c-0.8-0.8-0.8-2.1,0-2.9l14-13.9c0.8-0.8,2.1-0.8,2.9,0
									c0.8,0.8,0.8,2.1,0,2.9l-14,13.9C836.4,593.4,835.9,593.6,835.4,593.6z"/>
							</g>
						</g>
					</g>
					<g>
						<g>
							<g>
								<path class="st4" d="M1138.9,593.6c-0.5,0-1.1-0.2-1.5-0.6l-14-13.9c-0.8-0.8-0.8-2.1,0-2.9c0.8-0.8,2.1-0.8,2.9,0l14,13.9
									c0.8,0.8,0.8,2.1,0,2.9C1140,593.4,1139.5,593.6,1138.9,593.6z"/>
							</g>
						</g>
						<g>
							<g>
								<path class="st4" d="M849.3,304c-0.5,0-1.1-0.2-1.5-0.6l-14-14c-0.8-0.8-0.8-2.1,0-2.9c0.8-0.8,2.1-0.8,2.9,0l14,14
									c0.8,0.8,0.8,2.1,0,2.9C850.4,303.8,849.9,304,849.3,304z"/>
							</g>
						</g>
					</g>
				</g>
			</g>
			<g>
				<g>
					<g>
						<path class="st4" d="M337.5,623.3H39.1c-9.7,0-17.6,7.9-17.6,17.6v132c0,9.7,7.9,17.6,17.6,17.6h25.5
							c0.3,7.4-0.8,21.2-11.2,30.1c0,0,28.5-2.3,36.4-30.1h247.6c9.7,0,17.6-7.9,17.6-17.6v-132
							C355.1,631.2,347.2,623.3,337.5,623.3z"/>
					</g>
				</g>
				<g>
					<g>
						<g>
							
								<ellipse transform="matrix(0.6657 -0.7462 0.7462 0.6657 -497.3474 303.6293)" class="st1" cx="90.2" cy="706.9" rx="11.5" ry="11.5"/>
						</g>
					</g>
					<g>
						<g>
							
								<ellipse transform="matrix(0.6816 -0.7317 0.7317 0.6816 -467.6634 338.8878)" class="st1" cx="155.6" cy="706.9" rx="11.5" ry="11.5"/>
						</g>
					</g>
					<g>
						<g>
							
								<ellipse transform="matrix(0.1608 -0.987 0.987 0.1608 -512.1762 811.3891)" class="st1" cx="221" cy="706.9" rx="11.5" ry="11.5"/>
						</g>
					</g>
					<g>
						<g>
							
								<ellipse transform="matrix(0.7071 -0.7071 0.7071 0.7071 -415.9308 409.5889)" class="st1" cx="286.5" cy="706.9" rx="11.5" ry="11.5"/>
						</g>
					</g>
				</g>
			</g>
			<g>
				<g>
					<g>
						<path class="st4" d="M1601.8,449.9h-298.4c-9.7,0-17.6,7.9-17.6,17.6v132c0,9.7,7.9,17.6,17.6,17.6h25.5
							c0.3,7.4-0.8,21.2-11.2,30.1c0,0,28.5-2.3,36.4-30.1h247.6c9.7,0,17.6-7.9,17.6-17.6v-132
							C1619.4,457.8,1611.5,449.9,1601.8,449.9z"/>
					</g>
				</g>
				<g>
					<g>
						<g>
							
								<ellipse transform="matrix(0.6657 -0.7462 0.7462 0.6657 54.7574 1189.1575)" class="st1" cx="1354.5" cy="533.5" rx="11.5" ry="11.5"/>
						</g>
					</g>
					<g>
						<g>
							
								<ellipse transform="matrix(0.6816 -0.7317 0.7317 0.6816 61.7108 1208.7682)" class="st1" cx="1419.9" cy="533.5" rx="11.5" ry="11.5"/>
						</g>
					</g>
					<g>
						<g>
							
								<ellipse transform="matrix(0.1608 -0.987 0.987 0.1608 720.0452 1913.7463)" class="st1" cx="1485.4" cy="533.5" rx="11.5" ry="11.5"/>
						</g>
					</g>
					<g>
						<g>
							
								<ellipse transform="matrix(0.7071 -0.7071 0.7071 0.7071 76.9932 1252.8143)" class="st1" cx="1550.8" cy="533.5" rx="11.5" ry="11.5"/>
						</g>
					</g>
				</g>
			</g>
			<g>
				<g>
					<path class="st1" d="M269,965.2c0,0,18.2-1.5,23.3-19.2h158c6.2,0,11.2-5,11.2-11.2v-84.2c0-6.2-5-11.2-11.2-11.2H259.9
						c-6.2,0-11.2,5-11.2,11.2v84.2c0,6.2,5,11.2,11.2,11.2h16.3C276.3,950.8,275.6,959.6,269,965.2z"/>
				</g>
				<g>
					<path class="st1" d="M269,965.2c1.3-0.3,2.6-0.6,3.9-1c1.3-0.4,2.5-0.9,3.7-1.4c2.4-1.1,4.7-2.4,6.7-4.1c1.1-0.8,2-1.7,2.9-2.6
						c0.8-1,1.7-2,2.4-3.1c1.6-2.1,2.6-4.6,3.6-7c-0.2,0.6-0.3,1.3-0.5,1.9c-0.2,0.6-0.3,1.3-0.6,1.9l-0.8,1.8
						c-0.3,0.6-0.7,1.2-1,1.8c-0.6,1.2-1.6,2.2-2.4,3.3c-1,1-1.9,2-3,2.8c-2.1,1.7-4.5,3.1-7,4C274.3,964.5,271.7,965.1,269,965.2z"
						/>
				</g>
				<g>
					<path class="st1" d="M276.2,946c0.5,3.5,0.2,7.2-0.9,10.6c-0.6,1.7-1.4,3.3-2.4,4.8c-1,1.5-2.3,2.8-3.8,3.8
						c2.4-2.6,4.2-5.6,5.3-8.9C275.4,953,275.9,949.6,276.2,946z"/>
				</g>
				<g>
					<path class="st1" d="M292.3,946l75.5-0.2l75.5-0.1l4.7,0c1.6,0,3.2,0.1,4.6-0.2c3-0.6,5.7-2.6,7.2-5.2c0.8-1.3,1.2-2.8,1.4-4.3
						l0.1-1.1l0-1.2l0-2.4l0-9.4l0-37.7l0-18.9l0-9.4l0-4.7c0-1.5-0.2-3-0.8-4.4c-1.1-2.8-3.5-5.1-6.3-6.1c-1.4-0.5-2.9-0.7-4.5-0.7
						l-4.7,0l-18.9,0L275,839.7l-9.4,0l-4.7,0c-1.6,0-3.1,0.1-4.5,0.6c-2.9,1-5.3,3.2-6.5,6.1c-0.6,1.4-0.9,2.9-0.9,4.5l0,4.7
						l0,37.7l-0.1,37.7c0,1.6-0.1,3.2,0,4.7c0.1,1.6,0.6,3.1,1.3,4.5c1.5,2.7,4.2,4.8,7.2,5.5c1.5,0.4,3.1,0.3,4.7,0.3l4.7,0l9.4,0
						l-9.4,0l-4.7,0c-1.6,0-3.2,0.1-4.7-0.3c-3.1-0.7-5.8-2.8-7.4-5.6c-0.8-1.4-1.2-2.9-1.4-4.5c-0.1-1.6,0-3.1-0.1-4.7l-0.1-37.7
						l0-37.7l0-4.7c0-1.6,0.3-3.2,0.9-4.7c1.3-3,3.8-5.4,6.9-6.4c0.8-0.3,1.6-0.4,2.4-0.5c0.8-0.1,1.6-0.1,2.4-0.1l4.7,0l9.4,0
						l150.9-0.2l18.9,0l4.7,0c1.6,0,3.3,0.1,4.8,0.7c3.1,1.1,5.6,3.6,6.8,6.7c0.6,1.5,0.8,3.2,0.8,4.8l0,4.7l0,9.4l0,18.9l0,37.7
						l0,9.4l0,2.4l0,1.2l-0.1,1.2c-0.2,1.6-0.7,3.2-1.5,4.6c-1.6,2.8-4.5,4.9-7.6,5.5l-1.2,0.2l-1.2,0.1l-2.4,0l-4.7,0l-75.5-0.1
						L292.3,946z"/>
				</g>
				<g>
					<g>
						
							<ellipse transform="matrix(0.1598 -0.9871 0.9871 0.1598 -635.52 1038.7227)" class="st4" cx="292.4" cy="892.7" rx="7.3" ry="7.3"/>
					</g>
					<g>
						
							<ellipse transform="matrix(0.1598 -0.9871 0.9871 0.1598 -600.439 1079.9399)" class="st4" cx="334.2" cy="892.7" rx="7.3" ry="7.3"/>
					</g>
					<g>
						
							<ellipse transform="matrix(0.1598 -0.9871 0.9871 0.1598 -565.3581 1121.1572)" class="st4" cx="376" cy="892.7" rx="7.3" ry="7.3"/>
					</g>
					<g>
						
							<ellipse transform="matrix(0.1598 -0.9871 0.9871 0.1598 -530.2771 1162.3746)" class="st4" cx="417.7" cy="892.7" rx="7.3" ry="7.3"/>
					</g>
				</g>
			</g>
			<g>
				<g>
					<path class="st1" d="M1504.4,896.4c0,0,18.2-1.5,23.3-19.2h158c6.2,0,11.2-5,11.2-11.2v-84.2c0-6.2-5-11.2-11.2-11.2h-190.4
						c-6.2,0-11.2,5-11.2,11.2v84.2c0,6.2,5,11.2,11.2,11.2h16.3C1511.7,881.9,1511,890.7,1504.4,896.4z"/>
				</g>
				<g>
					<path class="st1" d="M1504.4,896.4c1.3-0.3,2.6-0.6,3.9-1c1.3-0.4,2.5-0.9,3.7-1.4c2.4-1.1,4.7-2.4,6.7-4.1
						c1.1-0.8,2-1.7,2.9-2.6c0.8-1,1.7-2,2.4-3.1c1.6-2.1,2.6-4.6,3.6-7c-0.2,0.6-0.3,1.3-0.5,1.9c-0.2,0.6-0.3,1.3-0.6,1.9
						l-0.8,1.8c-0.3,0.6-0.7,1.2-1,1.8c-0.6,1.2-1.6,2.2-2.4,3.3c-1,1-1.9,2-3,2.8c-2.1,1.7-4.5,3.1-7,4
						C1509.7,895.6,1507,896.3,1504.4,896.4z"/>
				</g>
				<g>
					<path class="st1" d="M1511.5,877.2c0.5,3.5,0.2,7.2-0.9,10.6c-0.6,1.7-1.4,3.3-2.4,4.8c-1,1.5-2.3,2.8-3.8,3.8
						c2.4-2.6,4.2-5.6,5.3-8.9C1510.8,884.2,1511.2,880.7,1511.5,877.2z"/>
				</g>
				<g>
					<path class="st1" d="M1527.6,877.2l75.5-0.2l75.5-0.1l4.7,0c1.6,0,3.2,0.1,4.6-0.2c3-0.6,5.7-2.6,7.2-5.2
						c0.8-1.3,1.2-2.8,1.4-4.3l0.1-1.1l0-1.2l0-2.4l0-9.4l0-37.7l0-18.9l0-9.4l0-4.7c0-1.5-0.2-3-0.8-4.4c-1.1-2.8-3.5-5.1-6.3-6.1
						c-1.4-0.5-2.9-0.7-4.5-0.7l-4.7,0l-18.9,0l-150.9-0.2l-9.4,0l-4.7,0c-1.6,0-3.1,0.1-4.5,0.6c-2.9,1-5.3,3.2-6.5,6.1
						c-0.6,1.4-0.9,2.9-0.9,4.5l0,4.7l0,37.7l-0.1,37.7c0,1.6-0.1,3.2,0,4.7c0.1,1.6,0.6,3.1,1.3,4.5c1.5,2.7,4.2,4.8,7.2,5.5
						c1.5,0.4,3.1,0.3,4.7,0.3l4.7,0l9.4,0l-9.4,0l-4.7,0c-1.6,0-3.2,0.1-4.7-0.3c-3.1-0.7-5.8-2.8-7.4-5.6
						c-0.8-1.4-1.2-2.9-1.4-4.5c-0.1-1.6,0-3.1-0.1-4.7l-0.1-37.7l0-37.7l0-4.7c0-1.6,0.3-3.2,0.9-4.7c1.3-3,3.8-5.4,6.9-6.4
						c0.8-0.3,1.6-0.4,2.4-0.5c0.8-0.1,1.6-0.1,2.4-0.1l4.7,0l9.4,0l150.9-0.2l18.9,0l4.7,0c1.6,0,3.3,0.1,4.8,0.7
						c3.1,1.1,5.6,3.6,6.8,6.7c0.6,1.5,0.8,3.2,0.8,4.8l0,4.7l0,9.4l0,18.9l0,37.7l0,9.4l0,2.4l0,1.2l-0.1,1.2
						c-0.2,1.6-0.7,3.2-1.5,4.6c-1.6,2.8-4.5,4.9-7.6,5.5l-1.2,0.2l-1.2,0.1l-2.4,0l-4.7,0l-75.5-0.1L1527.6,877.2z"/>
				</g>
				<g>
					<g>
						
							<ellipse transform="matrix(0.1602 -0.9871 0.9871 0.1602 469.8892 2199.9333)" class="st1" cx="1527.8" cy="823.8" rx="7.3" ry="7.3"/>
					</g>
					<g>
						
							<ellipse transform="matrix(0.1602 -0.9871 0.9871 0.1602 504.955 2241.1482)" class="st1" cx="1569.6" cy="823.8" rx="7.3" ry="7.3"/>
					</g>
					<g>
						
							<ellipse transform="matrix(0.1602 -0.9871 0.9871 0.1602 540.0207 2282.363)" class="st1" cx="1611.3" cy="823.8" rx="7.3" ry="7.3"/>
					</g>
					<g>
						
							<ellipse transform="matrix(0.1602 -0.9871 0.9871 0.1602 575.0865 2323.5779)" class="st1" cx="1653.1" cy="823.8" rx="7.3" ry="7.3"/>
					</g>
				</g>
			</g>
			<g>
				<g>
					<g>
						<path class="st4" d="M895.3,525.2c-2.2-1.5-3.3-3.6-3.3-6.4c0-0.3,0-0.7,0.1-1.2h8.1c-0.1,1.2,0.2,2.1,0.8,2.7
							c0.6,0.7,1.6,1,2.9,1c1.2,0,2.1-0.3,2.8-0.8c0.7-0.5,1-1.2,1-2.2c0-1-0.4-1.8-1.3-2.4c-0.9-0.6-2.2-1.3-4-2.1
							c-1.8-0.7-3.2-1.4-4.3-2.1c-1.1-0.7-2.1-1.5-2.9-2.7c-0.8-1.1-1.2-2.5-1.2-4.2c0-2.1,0.5-3.9,1.6-5.5c1.1-1.6,2.5-2.7,4.4-3.6
							c1.9-0.8,4-1.2,6.5-1.2c2.2,0,4.1,0.3,5.8,1c1.7,0.7,3,1.7,4,3c0.9,1.3,1.4,2.8,1.4,4.6c0,0.5,0,0.8,0,1h-8.3
							c0-0.1,0-0.3,0-0.5c0-0.9-0.3-1.5-0.9-2.1c-0.6-0.5-1.4-0.8-2.4-0.8c-1.1,0-2,0.3-2.7,0.8c-0.7,0.5-1,1.3-1,2.2
							s0.4,1.7,1.3,2.3c0.9,0.6,2.2,1.3,4,2.2c1.8,0.8,3.3,1.6,4.4,2.3c1.1,0.7,2.1,1.6,2.9,2.8c0.8,1.2,1.2,2.6,1.2,4.3
							c0,1.9-0.5,3.6-1.5,5.1c-1,1.5-2.4,2.7-4.3,3.5c-1.9,0.8-4.1,1.3-6.6,1.3C900.2,527.5,897.4,526.7,895.3,525.2z"/>
					</g>
					<g>
						<path class="st4" d="M931.7,501.3l-1.1,6.7H941l-1,5.9h-10.4l-1.3,7.2h11.8l-1.1,6.2h-19.6l5.7-32h19.6l-1.1,6.2H931.7z"/>
					</g>
					<g>
						<path class="st4" d="M970.4,497.4c1.7,1.5,2.6,3.5,2.6,5.9c0,0.7-0.1,1.4-0.2,2c-0.4,2.1-1.3,4-2.8,5.7
							c-1.5,1.7-3.5,2.9-6,3.6l5.2,12.7h-8.8l-4.5-12.1H954l-2.1,12.1h-7.8l5.7-32h13.1C966.1,495.1,968.6,495.9,970.4,497.4z
							 M964.9,504.6c0-1-0.3-1.7-0.9-2.3c-0.6-0.5-1.5-0.8-2.8-0.8h-4.8l-1.4,8h4.8c1.4,0,2.6-0.3,3.4-1c0.8-0.7,1.4-1.7,1.6-3
							C964.9,505.1,964.9,504.7,964.9,504.6z"/>
					</g>
					<g>
						<path class="st4" d="M985.3,495.1l3.7,24.2l12.2-24.2h8.3l-17,32h-9.8l-5.7-32H985.3z"/>
					</g>
					<g>
						<path class="st4" d="M1020.6,495.1l-5.7,32h-7.8l5.7-32H1020.6z"/>
					</g>
					<g>
						<path class="st4" d="M1025.7,502.7c1.8-2.5,4.1-4.4,6.7-5.8c2.7-1.4,5.6-2.1,8.7-2.1c3.8,0,6.9,1,9.2,3c2.4,2,3.7,4.7,4,8.2
							h-8.6c-0.4-1.3-1.1-2.3-2.2-3c-1-0.7-2.3-1-3.9-1c-2.4,0-4.5,0.8-6.3,2.5c-1.8,1.7-2.9,3.9-3.4,6.6c-0.2,0.9-0.2,1.6-0.2,2.2
							c0,2.1,0.6,3.8,1.8,5.1c1.2,1.2,2.8,1.9,4.9,1.9c1.5,0,2.9-0.3,4.2-1c1.3-0.7,2.4-1.7,3.3-3h8.6c-1.5,3.5-3.8,6.2-6.9,8.2
							c-3.1,2-6.5,3-10.3,3c-2.7,0-5.1-0.5-7.2-1.6c-2-1.1-3.6-2.6-4.7-4.5c-1.1-1.9-1.6-4.2-1.6-6.8c0-1.2,0.1-2.3,0.3-3.4
							C1022.7,508,1023.9,505.1,1025.7,502.7z"/>
					</g>
					<g>
						<path class="st4" d="M1067.7,501.3l-1.1,6.7h10.4l-1,5.9h-10.5l-1.3,7.2h11.8l-1.1,6.2h-19.6l5.7-32h19.6l-1.1,6.2H1067.7z"/>
					</g>
				</g>
				<g>
					<g>
						<g>
							<path class="st4" d="M956.9,450.2v20.1H892l0-16.9c19.2-31.4,30.6-50.9,34.3-58.4c3.6-7.5,5.4-13.3,5.4-17.5
								c0-3.2-0.5-5.6-1.6-7.2c-1.1-1.6-2.8-2.4-5-2.4c-2.2,0-3.9,0.9-5,2.6c-1.1,1.8-1.6,5.2-1.6,10.4v11.2H892v-4.3
								c0-6.6,0.3-11.8,1-15.7c0.7-3.8,2.4-7.6,5-11.3c2.7-3.7,6.2-6.5,10.4-8.4c4.3-1.9,9.4-2.8,15.4-2.8c11.7,0,20.6,2.9,26.6,8.7
								c6,5.8,9,13.2,9,22.1c0,6.8-1.7,13.9-5.1,21.5c-3.4,7.5-13.3,23.6-29.9,48H956.9z"/>
						</g>
						<g>
							<path class="st4" d="M1025.5,352.2v77.2h8.4v20.1h-8.4v20.8H996v-20.8h-35v-20.1l25.5-77.2H1025.5z M996,429.4v-50.3
								l-13,50.3H996z"/>
						</g>
					</g>
					<g>
						<g>
							<path class="st4" d="M1086.8,429.4v8.9l-6.5,32h-10.2l7.3-33.6h-10.1v-7.4H1086.8z"/>
						</g>
					</g>
					<g>
						<g>
							<polygon class="st4" points="1040.9,470.4 1038.1,470.4 1066.4,408.2 1069.3,408.2 							"/>
						</g>
					</g>
				</g>
			</g>
		</g>
		<g>
			<path class="st1" d="M1732.8,1746.5H124.6c-3.6,0-6.6-2.9-6.6-6.6l0,0c0-3.6,2.9-6.6,6.6-6.6h1608.3c3.6,0,6.6,2.9,6.6,6.6l0,0
				C1739.4,1743.6,1736.5,1746.5,1732.8,1746.5z"/>
		</g>
		<g>
			<g>
				<g>
					<g>
						<g>
							<path class="st1" d="M929.8,940.8c23.1-19.7,57.7-16.9,77.4,6.2c14.8,17.4,16.9,41.3,7.2,60.4l15.7,19.2l-29.1-2.3
								c-23.1,19.7-57.7,16.9-77.4-6.2C903.9,995.1,906.7,960.4,929.8,940.8z"/>
						</g>
					</g>
					<g>
						<g>
							<g>
								<path class="st1" d="M1030,1026.6c-1.2-1.7-2.5-3.3-3.8-4.9c-1.3-1.6-2.6-3.2-3.9-4.8c-1.3-1.6-2.6-3.2-4-4.8
									c-1.3-1.6-2.7-3.1-4.1-4.7c1.2,1.7,2.5,3.3,3.8,4.9c1.3,1.6,2.6,3.2,3.9,4.8c1.3,1.6,2.6,3.2,4,4.8
									C1027.3,1023.5,1028.6,1025.1,1030,1026.6z"/>
							</g>
						</g>
						<g>
							<g>
								<path class="st1" d="M1001,1024.3c2.4,0.3,4.8,0.5,7.3,0.8c2.4,0.2,4.8,0.4,7.3,0.6c2.4,0.2,4.8,0.4,7.3,0.5
									c2.4,0.2,4.9,0.3,7.3,0.4c-2.4-0.3-4.8-0.5-7.3-0.8c-2.4-0.2-4.8-0.4-7.3-0.6c-2.4-0.2-4.8-0.4-7.3-0.5
									C1005.8,1024.5,1003.4,1024.4,1001,1024.3z"/>
							</g>
						</g>
						<g>
							<g>
								<path class="st1" d="M1014.3,1007.4c1.5-3,2.8-6.1,3.8-9.4c0.9-3.2,1.6-6.5,2-9.9c0.7-6.7,0.2-13.5-1.6-20.1
									c-1.7-6.5-4.7-12.7-8.7-18.2c-4-5.4-9-10.2-14.7-13.8c-2.8-1.8-5.9-3.4-9-4.7c-3.1-1.3-6.4-2.2-9.7-2.9
									c-6.6-1.4-13.5-1.5-20.2-0.4c-6.7,1.1-13.2,3.5-19,6.9c-2.9,1.7-5.7,3.7-8.2,6c-2.6,2.2-4.9,4.7-7,7.3
									c-4.2,5.3-7.4,11.4-9.4,17.9c-2,6.5-2.8,13.3-2.3,20.1c0.4,6.8,2.2,13.4,5.1,19.6c2.9,6.1,6.9,11.7,11.8,16.4
									c4.9,4.7,10.6,8.4,16.9,11c6.2,2.6,13,4,19.7,4.2c6.8,0.2,13.5-0.9,19.9-3.2c6.4-2.3,12.3-5.7,17.4-10.1
									c-5.2,4.3-11.1,7.7-17.4,9.9c-6.3,2.2-13.1,3.2-19.8,3c-6.7-0.2-13.4-1.7-19.5-4.3c-6.2-2.6-11.8-6.4-16.7-11
									c-2.4-2.3-4.6-4.9-6.5-7.6c-1.9-2.7-3.6-5.6-5.1-8.7c-2.8-6.1-4.5-12.6-5-19.3c-0.4-6.7,0.3-13.4,2.3-19.8
									c2-6.4,5.1-12.4,9.3-17.7c2.1-2.6,4.4-5.1,6.9-7.3c2.5-2.2,5.2-4.2,8.1-5.9c5.7-3.4,12.1-5.8,18.7-6.9
									c6.6-1.1,13.4-1,20,0.3c6.6,1.3,12.9,3.8,18.5,7.4c5.7,3.6,10.6,8.3,14.6,13.6c4,5.4,7,11.5,8.8,18c1.8,6.5,2.4,13.3,1.7,20
									c-0.3,3.3-1,6.7-1.9,9.9C1017,1001.2,1015.8,1004.4,1014.3,1007.4z"/>
							</g>
						</g>
					</g>
				</g>
			</g>
			<g>
				<g>
					<g>
						<polygon class="st1" points="961.2,996.7 948.1,983.6 952.1,979.6 961.2,988.7 981.9,967.9 986,971.9 						"/>
					</g>
				</g>
			</g>
		</g>
	</g>
</g>
</svg>
