<svg id="Layer_1" data-name="Layer 1" xmlns="http://www.w3.org/2000/svg" viewBox="0 0 200 209.51"><defs><style>.cls-1,.cls-3{fill:#8c24c7;}.cls-1{fill-rule:evenodd;}.cls-2{fill:#fff;}</style></defs><path class="cls-1" d="M182.44,62.28l-25,41.54a3.61,3.61,0,0,1-6.26-3.6l26.08-43.36a3.73,3.73,0,0,1,3.15-1.81h16a3.62,3.62,0,1,1,0,7.23Zm0,0" transform="translate(0 -0.01)"/><path class="cls-2" d="M93.52,195.56a8.16,8.16,0,1,1-2.4,5.78,8.15,8.15,0,0,1,2.4-5.78Zm0,0" transform="translate(0 -0.01)"/><path class="cls-2" d="M46.66,195.56a8.18,8.18,0,1,1-2.39,5.78,8.17,8.17,0,0,1,2.39-5.78Zm0,0" transform="translate(0 -0.01)"/><path class="cls-1" d="M126,174.16c0,.53,0,1.07,0,1.6-.05,4-.72,6.29-3.35,9.42a16.43,16.43,0,0,1-5.87,4.37,17.84,17.84,0,0,1-7.27,1.54H29a3.1,3.1,0,1,1,0-6.2h80.45a11.59,11.59,0,0,0,4.75-1,10.18,10.18,0,0,0,3.66-2.7,7.49,7.49,0,0,0,1.9-5.5c0-.51,0-1,0-1.54a3.1,3.1,0,0,1,6.2,0Zm0,0" transform="translate(0 -0.01)"/><path class="cls-2" d="M102.43,145.76l2.87.24a.65.65,0,0,1-.1,1.29l-2.89-.23a.65.65,0,0,1,.12-1.3Z" transform="translate(0 -0.01)"/><path class="cls-2" d="M97.24,145.25l2.87.3a.63.63,0,0,1,.57.7.65.65,0,0,1-.7.59l-2.88-.3a.65.65,0,0,1,.14-1.29Z" transform="translate(0 -0.01)"/><path class="cls-2" d="M92.06,144.62l2.86.36a.65.65,0,1,1-.15,1.29l-2.88-.36a.65.65,0,0,1-.55-.73A.64.64,0,0,1,92.06,144.62Z" transform="translate(0 -0.01)"/><path class="cls-2" d="M86.9,143.9l2.85.41a.65.65,0,0,1,.55.73.64.64,0,0,1-.73.55l-2.86-.41a.65.65,0,1,1,.19-1.28Z" transform="translate(0 -0.01)"/><path class="cls-2" d="M81.75,143.07l2.84.47a.65.65,0,0,1-.2,1.28l-2.86-.47a.65.65,0,1,1,.22-1.28Z" transform="translate(0 -0.01)"/><path class="cls-2" d="M76.62,142.13l2.83.53a.65.65,0,0,1,.52.76.64.64,0,0,1-.75.52l-2.84-.53a.65.65,0,0,1-.52-.76A.66.66,0,0,1,76.62,142.13Z" transform="translate(0 -0.01)"/><path class="cls-2" d="M71.52,141.09l2.81.59a.65.65,0,0,1,.51.77.64.64,0,0,1-.77.5l-2.83-.59a.65.65,0,0,1-.49-.78A.64.64,0,0,1,71.52,141.09Z" transform="translate(0 -0.01)"/><path class="cls-2" d="M66.44,139.92l2.8.66a.66.66,0,0,1,.49.78.65.65,0,0,1-.78.49l-2.82-.67a.65.65,0,0,1,.31-1.26Z" transform="translate(0 -0.01)"/><path class="cls-2" d="M61.39,138.62l2.79.73a.65.65,0,0,1-.33,1.26l-2.8-.74a.64.64,0,0,1-.45-.8A.65.65,0,0,1,61.39,138.62Z" transform="translate(0 -0.01)"/><path class="cls-2" d="M56.39,137.17l2.76.82a.65.65,0,0,1-.36,1.25L56,138.41a.65.65,0,0,1,.38-1.24Z" transform="translate(0 -0.01)"/><path class="cls-2" d="M51.44,135.56l2.73.91a.65.65,0,0,1-.4,1.24L51,136.79a.65.65,0,0,1-.4-.83A.64.64,0,0,1,51.44,135.56Z" transform="translate(0 -0.01)"/><path class="cls-2" d="M46.56,133.76c.89.36,1.79.68,2.69,1A.65.65,0,1,1,48.8,136c-.9-.34-1.81-.67-2.71-1a.65.65,0,0,1,.47-1.21Z" transform="translate(0 -0.01)"/><path class="cls-2" d="M41.77,131.75c.87.4,1.75.77,2.64,1.14a.65.65,0,0,1,.34.85.64.64,0,0,1-.84.35c-.9-.37-1.79-.75-2.67-1.16a.63.63,0,0,1-.32-.85A.65.65,0,0,1,41.77,131.75Z" transform="translate(0 -0.01)"/><path class="cls-2" d="M37.1,129.5c.85.43,1.7.87,2.57,1.27a.67.67,0,0,1,.3.87.65.65,0,0,1-.86.31c-.88-.41-1.75-.86-2.61-1.3a.64.64,0,0,1-.28-.87A.66.66,0,0,1,37.1,129.5Z" transform="translate(0 -0.01)"/><path class="cls-2" d="M32.58,127c.82.49,1.64,1,2.47,1.44a.65.65,0,0,1,.26.88.67.67,0,0,1-.89.26c-.85-.47-1.68-1-2.52-1.47a.65.65,0,0,1,.68-1.11Z" transform="translate(0 -0.01)"/><path class="cls-2" d="M28.28,124.09c.76.58,1.56,1.1,2.34,1.63a.67.67,0,0,1,.19.9.65.65,0,0,1-.9.19c-.81-.55-1.62-1.08-2.4-1.67a.65.65,0,0,1-.14-.91A.67.67,0,0,1,28.28,124.09Z" transform="translate(0 -0.01)"/><path class="cls-2" d="M24.27,120.84c.72.62,1.42,1.27,2.18,1.85a.65.65,0,1,1-.82,1c-.77-.59-1.49-1.26-2.23-1.89a.65.65,0,0,1,.87-1Z" transform="translate(0 -0.01)"/><path class="cls-2" d="M20.7,117.15c.6.74,1.26,1.41,1.91,2.1a.66.66,0,0,1,0,.91.64.64,0,0,1-.92,0c-.67-.71-1.36-1.41-2-2.17a.63.63,0,0,1,.08-.91A.65.65,0,0,1,20.7,117.15Z" transform="translate(0 -0.01)"/><path class="cls-2" d="M17.7,113c.5.8,1,1.6,1.58,2.35a.65.65,0,0,1-1.05.77c-.59-.78-1.12-1.61-1.64-2.45a.65.65,0,0,1,.24-.89A.63.63,0,0,1,17.7,113Z" transform="translate(0 -0.01)"/><path class="cls-2" d="M15.48,108.41c.35.88.7,1.75,1.13,2.59a.67.67,0,0,1-.3.87.63.63,0,0,1-.86-.3,26.9,26.9,0,0,1-1.18-2.7.64.64,0,0,1,.39-.84A.65.65,0,0,1,15.48,108.41Z" transform="translate(0 -0.01)"/><path class="cls-2" d="M14.2,103.49c.12.93.37,1.84.58,2.75a.65.65,0,0,1-1.25.35,28.73,28.73,0,0,1-.61-2.9.63.63,0,0,1,.54-.74A.66.66,0,0,1,14.2,103.49Z" transform="translate(0 -0.01)"/><path class="cls-2" d="M13.88,98.4a26.49,26.49,0,0,0,.06,2.82.65.65,0,1,1-1.29.09,29,29,0,0,1-.07-3,.66.66,0,0,1,.69-.62A.64.64,0,0,1,13.88,98.4Z" transform="translate(0 -0.01)"/><path class="cls-2" d="M14.47,93.32c-.21.92-.3,1.87-.43,2.8a.67.67,0,0,1-.71.57.62.62,0,0,1-.58-.71c.13-1,.23-2,.45-2.91a.65.65,0,0,1,.76-.51A.66.66,0,0,1,14.47,93.32Z" transform="translate(0 -0.01)"/><path class="cls-2" d="M15.77,88.35c-.29.9-.51,1.82-.78,2.73a.66.66,0,0,1-.8.46.61.61,0,0,1-.45-.78c.27-.94.5-1.89.8-2.82a.67.67,0,0,1,.84-.4A.62.62,0,0,1,15.77,88.35Z" transform="translate(0 -0.01)"/><path class="cls-2" d="M17.71,83.59a26.23,26.23,0,0,0-1.14,2.6.64.64,0,0,1-.83.37.68.68,0,0,1-.38-.85A25.6,25.6,0,0,1,16.55,83a.64.64,0,0,1,.86-.3A.67.67,0,0,1,17.71,83.59Z" transform="translate(0 -0.01)"/><path class="cls-2" d="M20.27,79.15c-.58.75-1,1.61-1.49,2.41a.67.67,0,0,1-.89.24.62.62,0,0,1-.24-.88,26.7,26.7,0,0,1,1.55-2.5.65.65,0,0,1,.91-.16A.63.63,0,0,1,20.27,79.15Z" transform="translate(0 -0.01)"/><path class="cls-2" d="M23.46,75.15l-1.85,2.14a.63.63,0,0,1-.89.12.66.66,0,0,1-.13-.92l1.93-2.23a.65.65,0,0,1,.93,0A.63.63,0,0,1,23.46,75.15Z" transform="translate(0 -0.01)"/><path class="cls-2" d="M27.27,71.72l-1.1.89a9.49,9.49,0,0,0-1.06.94.65.65,0,0,1-.88-1,10.26,10.26,0,0,1,1.1-1l1.14-.93a.63.63,0,0,1,.9.11A.67.67,0,0,1,27.27,71.72Z" transform="translate(0 -0.01)"/><path class="cls-2" d="M31.54,68.87l-1.24.71c-.4.25-.78.53-1.17.8a.66.66,0,0,1-.9-.18.64.64,0,0,1,.17-.9c.41-.27.8-.56,1.22-.82l1.27-.73a.62.62,0,0,1,.88.24A.65.65,0,0,1,31.54,68.87Z" transform="translate(0 -0.01)"/><path class="cls-2" d="M36.15,66.6c-.89.33-1.73.78-2.59,1.19a.68.68,0,0,1-.87-.3.64.64,0,0,1,.29-.87c.89-.42,1.75-.88,2.67-1.22a.66.66,0,0,1,.85.36A.65.65,0,0,1,36.15,66.6Z" transform="translate(0 -0.01)"/><path class="cls-2" d="M41,64.87c-.91.27-1.8.59-2.71.89a.66.66,0,0,1-.82-.39.63.63,0,0,1,.38-.83c.93-.31,1.85-.64,2.78-.92a.67.67,0,0,1,.81.45A.64.64,0,0,1,41,64.87Z" transform="translate(0 -0.01)"/><path class="cls-2" d="M46,63.63c-.93.21-1.87.39-2.79.63a.64.64,0,0,1-.78-.46.65.65,0,0,1,.46-.8c1-.25,1.9-.43,2.85-.65a.63.63,0,0,1,.76.51A.66.66,0,0,1,46,63.63Z" transform="translate(0 -0.01)"/><path class="cls-2" d="M51.13,62.81c-1,.12-1.9.23-2.83.41a.65.65,0,0,1-.21-1.29c.95-.18,1.92-.29,2.88-.41a.63.63,0,0,1,.72.56A.66.66,0,0,1,51.13,62.81Z" transform="translate(0 -0.01)"/><path class="cls-2" d="M56.29,62.34c-.95,0-1.9.13-2.86.21a.65.65,0,0,1-.7-.58.64.64,0,0,1,.58-.71c1-.08,1.94-.18,2.91-.22a.65.65,0,0,1,.07,1.3Z" transform="translate(0 -0.01)"/><path class="cls-2" d="M61.48,62.17l-2.87,0a.65.65,0,0,1-.67-.62.64.64,0,0,1,.63-.67l2.91-.06a.65.65,0,0,1,.64.66A.63.63,0,0,1,61.48,62.17Z" transform="translate(0 -0.01)"/><path class="cls-2" d="M66.67,62.29c-1,0-1.91-.08-2.87-.1a.64.64,0,0,1-.63-.65.66.66,0,0,1,.66-.65c1,0,1.93.07,2.9.1a.64.64,0,0,1,.62.68A.66.66,0,0,1,66.67,62.29Z" transform="translate(0 -0.01)"/><path class="cls-2" d="M71.86,62.64c-1-.08-1.91-.17-2.86-.22a.65.65,0,0,1,.08-1.3c1,.05,1.93.15,2.9.23a.64.64,0,0,1,.58.7A.66.66,0,0,1,71.86,62.64Z" transform="translate(0 -0.01)"/><path class="cls-2" d="M77,63.2c-1-.12-1.9-.24-2.85-.33a.65.65,0,0,1,.13-1.3c1,.1,1.93.22,2.89.34A.65.65,0,1,1,77,63.2Z" transform="translate(0 -0.01)"/><path class="cls-2" d="M82.18,64c-.94-.15-1.89-.31-2.84-.44a.65.65,0,0,1-.55-.73.64.64,0,0,1,.73-.55c1,.13,1.92.28,2.87.44a.64.64,0,0,1,.54.74A.67.67,0,0,1,82.18,64Z" transform="translate(0 -0.01)"/><path class="cls-2" d="M87.31,64.87l-2.83-.53a.64.64,0,0,1-.52-.75.65.65,0,0,1,.75-.53l2.85.54a.65.65,0,1,1-.25,1.27Z" transform="translate(0 -0.01)"/><path class="cls-2" d="M92.39,66c-.93-.22-1.86-.43-2.8-.63a.65.65,0,0,1,.27-1.27c.94.2,1.88.42,2.83.64a.63.63,0,0,1,.48.77A.66.66,0,0,1,92.39,66Z" transform="translate(0 -0.01)"/><path class="cls-2" d="M97.36,67.4c-.91-.28-1.81-.6-2.74-.84a.65.65,0,0,1-.44-.8.64.64,0,0,1,.8-.45c.94.24,1.86.57,2.79.86a.65.65,0,0,1,.41.82A.67.67,0,0,1,97.36,67.4Z" transform="translate(0 -0.01)"/><path class="cls-2" d="M102.21,69.22c-.89-.35-1.77-.73-2.67-1a.65.65,0,0,1-.38-.83A.64.64,0,0,1,100,67c.92.31,1.81.71,2.72,1.06a.64.64,0,0,1,.34.85A.66.66,0,0,1,102.21,69.22Z" transform="translate(0 -0.01)"/><path class="cls-2" d="M106.93,71.36c-.87-.41-1.72-.84-2.6-1.22a.65.65,0,0,1-.32-.85h0a.64.64,0,0,1,.86-.33c.89.39,1.75.82,2.63,1.24a.65.65,0,0,1-.57,1.16Z" transform="translate(0 -0.01)"/><path class="cls-2" d="M111.49,73.81c-.82-.47-1.66-.94-2.5-1.39a.65.65,0,0,1-.27-.87.66.66,0,0,1,.88-.28c.85.46,1.7.93,2.55,1.42a.65.65,0,0,1-.66,1.12Z" transform="translate(0 -0.01)"/><path class="cls-2" d="M115.86,76.58c-.77-.56-1.58-1-2.38-1.57a.65.65,0,0,1,.69-1.11c.81.54,1.64,1,2.43,1.61a.65.65,0,0,1-.74,1.07Z" transform="translate(0 -0.01)"/><path class="cls-2" d="M119.94,79.73c-.73-.61-1.44-1.23-2.21-1.79a.66.66,0,0,1-.12-.91.64.64,0,0,1,.91-.12c.79.57,1.53,1.22,2.28,1.84a.66.66,0,0,1,0,.93A.63.63,0,0,1,119.94,79.73Z" transform="translate(0 -0.01)"/><path class="cls-2" d="M123.35,83.47a21.48,21.48,0,0,0-1.78-2.16.68.68,0,0,1,0-.91.63.63,0,0,1,.92,0,22.12,22.12,0,0,1,1.89,2.31.65.65,0,0,1-.18.91A.63.63,0,0,1,123.35,83.47Z" transform="translate(0 -0.01)"/><path class="cls-2" d="M125.77,87.94a25.85,25.85,0,0,0-1.23-2.54.68.68,0,0,1,.25-.88.62.62,0,0,1,.88.25A24.14,24.14,0,0,1,127,87.43a.63.63,0,0,1-.34.85A.66.66,0,0,1,125.77,87.94Z" transform="translate(0 -0.01)"/><path class="cls-2" d="M127.37,92.79c-.26-.91-.45-1.83-.79-2.72a.65.65,0,0,1,.41-.81.63.63,0,0,1,.82.4,28.5,28.5,0,0,1,.82,2.83.63.63,0,0,1-.49.78A.66.66,0,0,1,127.37,92.79Z" transform="translate(0 -0.01)"/><path class="cls-2" d="M128.1,97.84C128,96.91,128,96,127.81,95a.63.63,0,0,1,.52-.73.67.67,0,0,1,.76.54c.15,1,.23,2,.31,2.93a.66.66,0,0,1-.64.68A.63.63,0,0,1,128.1,97.84Z" transform="translate(0 -0.01)"/><path class="cls-2" d="M127.85,102.92c.19-.92.18-1.87.28-2.8a.64.64,0,0,1,.65-.62.66.66,0,0,1,.65.67c-.11,1-.1,2-.3,3a.64.64,0,0,1-.76.53A.63.63,0,0,1,127.85,102.92Z" transform="translate(0 -0.01)"/><path class="cls-2" d="M126.48,107.78a18.7,18.7,0,0,0,.91-2.64.68.68,0,0,1,.8-.46.61.61,0,0,1,.45.79,18.28,18.28,0,0,1-1,2.81.63.63,0,0,1-.85.34A.64.64,0,0,1,126.48,107.78Z" transform="translate(0 -0.01)"/><path class="cls-2" d="M123.92,112.11c.27-.37.6-.71.84-1.11l.72-1.2a.7.7,0,0,1,.9-.23.63.63,0,0,1,.23.88l-.77,1.28c-.26.42-.61.79-.9,1.18a.65.65,0,0,1-.92.11A.66.66,0,0,1,123.92,112.11Z" transform="translate(0 -0.01)"/><path class="cls-2" d="M120.3,115.63a16.08,16.08,0,0,0,2.11-1.84.69.69,0,0,1,.93,0,.62.62,0,0,1,0,.91,18,18,0,0,1-2.24,2,.63.63,0,0,1-.91-.12A.67.67,0,0,1,120.3,115.63Z" transform="translate(0 -0.01)"/><path class="cls-2" d="M116,118.35c.42-.22.85-.41,1.25-.65l1.2-.75a.67.67,0,0,1,.9.2.63.63,0,0,1-.2.89l-1.25.78c-.42.25-.87.46-1.31.69a.64.64,0,0,1-.87-.28A.67.67,0,0,1,116,118.35Z" transform="translate(0 -0.01)"/><path class="cls-2" d="M111.26,120.3l1.35-.44,1.31-.54a.67.67,0,0,1,.85.35.64.64,0,0,1-.35.85l-1.36.56-1.4.46a.63.63,0,0,1-.81-.42A.66.66,0,0,1,111.26,120.3Z" transform="translate(0 -0.01)"/><path class="cls-2" d="M106.28,121.54l1.4-.26,1.38-.34a.66.66,0,0,1,.78.47.63.63,0,0,1-.46.79l-1.43.35-1.44.27a.64.64,0,0,1-.75-.53A.65.65,0,0,1,106.28,121.54Z" transform="translate(0 -0.01)"/><path class="cls-2" d="M101.17,122.14c1,0,1.89-.14,2.83-.26a.67.67,0,0,1,.73.57.64.64,0,0,1-.57.72c-1,.12-1.94.23-2.91.27a.65.65,0,0,1-.69-.62A.66.66,0,0,1,101.17,122.14Z" transform="translate(0 -0.01)"/><path class="cls-2" d="M96,122.19c.95.06,1.9,0,2.85,0a.66.66,0,0,1,.66.64.63.63,0,0,1-.64.65c-1,0-1.95,0-2.92,0a.65.65,0,1,1,.05-1.29Z" transform="translate(0 -0.01)"/><path class="cls-2" d="M90.86,121.75c.94.15,1.9.19,2.84.3a.66.66,0,0,1,.59.7.62.62,0,0,1-.69.59c-1-.1-1.95-.15-2.91-.31a.65.65,0,0,1-.55-.73A.63.63,0,0,1,90.86,121.75Z" transform="translate(0 -0.01)"/><path class="cls-2" d="M85.76,120.88l2.81.53a.65.65,0,0,1-.21,1.28l-2.87-.54a.66.66,0,0,1-.49-.78A.63.63,0,0,1,85.76,120.88Z" transform="translate(0 -0.01)"/><path class="cls-2" d="M80.74,119.6c.93.25,1.84.52,2.77.75a.65.65,0,0,1,.47.78.66.66,0,0,1-.79.48c-.94-.23-1.87-.51-2.81-.76a.65.65,0,0,1,.36-1.25Z" transform="translate(0 -0.01)"/><path class="cls-2" d="M75.84,117.94c.9.32,1.78.69,2.7,1a.65.65,0,0,1-.41,1.23c-.93-.28-1.83-.65-2.75-1a.64.64,0,0,1-.38-.83A.66.66,0,0,1,75.84,117.94Z" transform="translate(0 -0.01)"/><path class="cls-2" d="M71.08,115.92c.86.4,1.72.81,2.61,1.16a.65.65,0,1,1-.5,1.2c-.91-.36-1.78-.78-2.67-1.19a.65.65,0,0,1-.31-.86A.67.67,0,0,1,71.08,115.92Z" transform="translate(0 -0.01)"/><path class="cls-2" d="M66.5,113.52c.82.48,1.65,1,2.5,1.37a.65.65,0,0,1,.28.87.64.64,0,0,1-.87.28c-.87-.43-1.72-.91-2.56-1.4a.63.63,0,0,1-.24-.88A.66.66,0,0,1,66.5,113.52Z" transform="translate(0 -0.01)"/><path class="cls-2" d="M62.16,110.72c.77.56,1.55,1.1,2.36,1.6a.65.65,0,0,1,.2.89.63.63,0,0,1-.89.2c-.84-.5-1.63-1.06-2.43-1.63a.64.64,0,0,1-.15-.9A.67.67,0,0,1,62.16,110.72Z" transform="translate(0 -0.01)"/><path class="cls-2" d="M58.15,107.49c.72.63,1.41,1.27,2.17,1.84a.65.65,0,0,1-.81,1c-.78-.59-1.5-1.26-2.23-1.9a.63.63,0,0,1,0-.92A.67.67,0,0,1,58.15,107.49Z" transform="translate(0 -0.01)"/><path class="cls-2" d="M54.64,103.77c.61.72,1.21,1.44,1.87,2.12a.65.65,0,0,1,0,.91.66.66,0,0,1-.93,0c-.68-.7-1.31-1.46-1.94-2.22a.65.65,0,0,1,.12-.92A.63.63,0,0,1,54.64,103.77Z" transform="translate(0 -0.01)"/><path class="cls-2" d="M51.93,99.48c.22.42.4.84.64,1.25l.74,1.19a.67.67,0,0,1-.19.89.62.62,0,0,1-.9-.18l-.78-1.26c-.25-.43-.45-.89-.68-1.33a.63.63,0,0,1,.3-.86A.68.68,0,0,1,51.93,99.48Z" transform="translate(0 -0.01)"/><path class="cls-2" d="M50.4,94.68a10.44,10.44,0,0,0,.3,1.37c.13.45.21.92.38,1.35a.64.64,0,0,1-.39.81.66.66,0,0,1-.84-.41,13.78,13.78,0,0,1-.41-1.43,12.11,12.11,0,0,1-.32-1.45.65.65,0,0,1,1.28-.24Z" transform="translate(0 -0.01)"/><path class="cls-2" d="M49.89,89.59c0,1,.06,1.9.18,2.83a.65.65,0,0,1-.58.71.63.63,0,0,1-.71-.57c-.12-1-.16-2-.19-2.94a.63.63,0,0,1,.63-.66A.68.68,0,0,1,49.89,89.59Z" transform="translate(0 -0.01)"/><path class="cls-2" d="M50.06,84.44c-.05,1-.16,1.9-.16,2.85a.65.65,0,0,1-1.3,0c0-1,.12-2,.17-2.92a.65.65,0,1,1,1.29.11Z" transform="translate(0 -0.01)"/><path class="cls-2" d="M50.74,79.32c-.14.94-.31,1.88-.42,2.83a.64.64,0,0,1-.72.56A.66.66,0,0,1,49,82c.12-1,.29-1.92.43-2.88a.65.65,0,1,1,1.28.22Z" transform="translate(0 -0.01)"/><path class="cls-2" d="M51.81,74.25c-.21.93-.46,1.85-.63,2.79a.65.65,0,0,1-1.27-.26c.17-1,.43-1.89.64-2.84a.64.64,0,0,1,.78-.48A.67.67,0,0,1,51.81,74.25Z" transform="translate(0 -0.01)"/><path class="cls-2" d="M53.19,69.24c-.28.92-.56,1.83-.8,2.76a.65.65,0,0,1-1.25-.34c.24-.94.52-1.87.81-2.8a.64.64,0,0,1,.8-.43A.66.66,0,0,1,53.19,69.24Z" transform="translate(0 -0.01)"/><path class="cls-2" d="M54.83,64.31c-.35.9-.63,1.81-.94,2.72a.66.66,0,0,1-.82.41.64.64,0,0,1-.41-.82c.32-.91.6-1.84,1-2.75a.65.65,0,0,1,1.22.44Z" transform="translate(0 -0.01)"/><path class="cls-2" d="M56.7,59.47l-1.07,2.66a.64.64,0,0,1-.83.38.67.67,0,0,1-.38-.84L55.5,59a.65.65,0,0,1,.85-.35A.66.66,0,0,1,56.7,59.47Z" transform="translate(0 -0.01)"/><path class="cls-2" d="M58.8,54.71c-.41.87-.81,1.74-1.18,2.62a.65.65,0,0,1-1.19-.52c.38-.89.78-1.77,1.19-2.65a.66.66,0,0,1,.87-.31A.65.65,0,0,1,58.8,54.71Z" transform="translate(0 -0.01)"/><path class="cls-2" d="M61.09,50,59.8,52.61a.66.66,0,0,1-.87.3.65.65,0,0,1-.3-.87l1.3-2.6a.67.67,0,0,1,.88-.27A.65.65,0,0,1,61.09,50Z" transform="translate(0 -0.01)"/><path class="cls-2" d="M63.58,45.48c-.47.83-.95,1.66-1.4,2.51A.65.65,0,0,1,61,47.37c.45-.86.93-1.7,1.41-2.54a.65.65,0,0,1,.89-.23A.64.64,0,0,1,63.58,45.48Z" transform="translate(0 -0.01)"/><path class="cls-2" d="M66.24,41l-1.49,2.46a.65.65,0,0,1-1.12-.67l1.51-2.48a.67.67,0,0,1,.91-.2A.64.64,0,0,1,66.24,41Z" transform="translate(0 -0.01)"/><path class="cls-2" d="M69.11,36.67c-.54.79-1.09,1.58-1.6,2.39a.65.65,0,0,1-1.09-.71c.52-.82,1.07-1.61,1.62-2.41a.65.65,0,0,1,1.07.73Z" transform="translate(0 -0.01)"/><path class="cls-2" d="M72.14,32.45l-1.7,2.32a.66.66,0,0,1-.91.14.64.64,0,0,1-.14-.9l1.71-2.34a.65.65,0,0,1,.92-.12A.64.64,0,0,1,72.14,32.45Z" transform="translate(0 -0.01)"/><path class="cls-2" d="M75.37,28.38c-.61.74-1.22,1.47-1.8,2.24a.66.66,0,0,1-.91.1.65.65,0,0,1-.11-.91c.58-.77,1.2-1.51,1.82-2.26a.66.66,0,0,1,.92-.08A.65.65,0,0,1,75.37,28.38Z" transform="translate(0 -0.01)"/><path class="cls-2" d="M78.78,24.46,76.87,26.6a.65.65,0,1,1-1-.85l1.93-2.17a.65.65,0,0,1,1,.88Z" transform="translate(0 -0.01)"/><path class="cls-2" d="M82.39,20.72c-.69.67-1.37,1.34-2,2.05a.65.65,0,0,1-.94-.9c.66-.71,1.35-1.4,2-2.07a.64.64,0,0,1,.91,0A.65.65,0,0,1,82.39,20.72Z" transform="translate(0 -0.01)"/><path class="cls-2" d="M86.18,17.18l-2.12,1.93a.67.67,0,0,1-.92,0,.64.64,0,0,1,0-.92l2.15-2a.65.65,0,0,1,.86,1Z" transform="translate(0 -0.01)"/><path class="cls-2" d="M90.18,13.88c-.76.59-1.51,1.17-2.23,1.8a.65.65,0,0,1-.83-1c.73-.64,1.5-1.23,2.27-1.82a.64.64,0,0,1,.9.11A.65.65,0,0,1,90.18,13.88Z" transform="translate(0 -0.01)"/><path class="cls-3" d="M2.07,98.33H156.23a2.06,2.06,0,0,1,2,2.65L137.33,172a2.07,2.07,0,0,1-2,1.64H23.05a2,2,0,0,1-2-1.49L.13,101.13a2.07,2.07,0,0,1,1.94-2.8Zm5.45,7.26,17.74,61.82A1.79,1.79,0,0,0,27,168.7H131.35a1.78,1.78,0,0,0,1.72-1.29l17.74-61.82a1.79,1.79,0,0,0-1.72-2.29H9.24A1.79,1.79,0,0,0,7.52,105.59Z" transform="translate(0 -0.01)"/><path class="cls-2" d="M104.42,11.81c.12-1.2-.82-3.28-2.49-5.61a2,2,0,0,0,2.13-2.67,1.92,1.92,0,0,1,1.69.79.34.34,0,1,0,.53-.42,2.52,2.52,0,0,0-2.55-1l0,0h0a2.55,2.55,0,0,0-.41-2.72.34.34,0,0,0-.48-.05.35.35,0,0,0-.06.48,1.89,1.89,0,0,1,.4,1.82,2,2,0,0,0-3.08,1.48C98.18,1.72,96.36.34,95.16.19a2.61,2.61,0,0,0-2,.56,2.62,2.62,0,0,0-1,1.81,2.78,2.78,0,0,0,.6,2,2.76,2.76,0,0,0,1.81,1l.25,0A14.11,14.11,0,0,0,91.64,11a1.46,1.46,0,0,0,.27,1.32,1.49,1.49,0,0,0,1.24.57,14.23,14.23,0,0,0,5.92-1.94,2.17,2.17,0,0,0,0,.25,2.78,2.78,0,0,0,.6,2,2.71,2.71,0,0,0,1.81,1,2.63,2.63,0,0,0,2-.55,2.68,2.68,0,0,0,1-1.81Zm-8.64-.19-2.36-3c.23-.41.5-.82.78-1.22l2.93,3.68c-.45.19-.91.36-1.35.5ZM94.63,6.88a9.19,9.19,0,0,1,1-1L99,10.14a9.9,9.9,0,0,1-1.2.69L94.63,6.88Zm1.66-1.22,1.74,0L99.75,7.8c-.15.58-.29,1.16-.41,1.69l-3-3.83Zm2.6,0h.39l1,0c-.08.32-.17.65-.26,1,0,.12-.07.25-.1.38Zm2.36-2.54A1.37,1.37,0,1,1,101,5,1.38,1.38,0,0,1,101.25,3.08ZM94.69,4.91a2.1,2.1,0,0,1-1.82-2.28A2,2,0,0,1,95.08.87c1.1.14,3,1.73,5,4l-.79,0a40,40,0,0,1-4.57,0Zm-1.57,7.24a.83.83,0,0,1-.82-1,9.79,9.79,0,0,1,.76-1.82l2,2.51a9.55,9.55,0,0,1-1.94.33Zm8.41,1.34a2.07,2.07,0,0,1-1.81-2.27,39.65,39.65,0,0,1,1-4.46c.07-.26.14-.52.2-.77,1.81,2.38,2.92,4.65,2.81,5.75a1.92,1.92,0,0,1-.73,1.34,1.9,1.9,0,0,1-1.47.41Z" transform="translate(0 -0.01)"/></svg>