<svg xmlns="http://www.w3.org/2000/svg" viewBox="0 0 1927.8 1728.74"><defs><style>.cls-1{isolation:isolate;}.cls-2{fill:#f0f2f5;}.cls-3{fill:#fff;}.cls-4{fill:#e1e6eb;}.cls-5{fill:#303030;}.cls-6{fill:#8c24c7;}.cls-7{fill:#4f1972;}.cls-8{fill:#f9a21b;}.cls-9{fill:#1b1b2f;}.cls-10{fill:#ffc89f;}.cls-11{fill:#ff9a6c;}.cls-12{fill:#e43f5a;}.cls-13{fill:#112e4c;}.cls-14{opacity:0.4;mix-blend-mode:multiply;}.cls-15{fill:#1f4168;}.cls-16{fill:#1b1a2e;}</style></defs><g class="cls-1"><g id="FRONT"><path class="cls-2" d="M1461.55,556.17c1.52.45,3,.9,4.59,1.29,1.09.33,2.21.61,3.34.86a3.28,3.28,0,0,0,.68.19c.81.2,1.59.36,2.37.53a2.16,2.16,0,0,0,.57.12l1.17.25h0c1.34.3,2.68.6,4,.85.83.17,1.66.31,2.49.46h0c2.09.39,4.18.74,6.29,1,.69.13,1.42.21,2.11.31h.15c1.8.23,3.57.44,5.37.61q5.65.54,11.35.73c1.78.06,3.59.09,5.37.08a.16.16,0,0,1,.15,0c.73,0,1.43,0,2.16,0l1.9-.05c.85,0,1.67,0,2.49-.08,1.83-.06,3.65-.17,5.46-.29,2.06-.13,4.13-.29,6.2-.51h0l40.65,82.21,98-48.45-39-78.93v0c.34-.3.65-.6,1-.9l2.15-2.05c.68-.63,1.34-1.29,1.94-1.95.84-.83,1.65-1.65,2.44-2.51.34-.35.69-.71,1-1.07a.57.57,0,0,0,.19-.19c1-1,1.88-2,2.8-3l.66-.72c.69-.8,1.39-1.63,2.11-2.43.54-.61,1-1.22,1.52-1.83a1.72,1.72,0,0,0,.16-.2,9.49,9.49,0,0,0,1-1.19c.73-.89,1.43-1.78,2.16-2.7.13-.19.29-.39.45-.58a2.5,2.5,0,0,1,.26-.33c.7-.89,1.37-1.82,2.07-2.76.2-.26.39-.53.61-.81.67-.92,1.35-1.87,2-2.83.25-.33.45-.64.67-1,.77-1.1,1.52-2.22,2.23-3.34,1-1.54,2-3.14,3-4.75.72-1.18,1.41-2.33,2.1-3.54a2.6,2.6,0,0,1,.26-.45,5.64,5.64,0,0,0,.49-.85q1.23-2.12,2.32-4.23,1.39-2.55,2.61-5.15c.94-1.84,1.82-3.71,2.64-5.58l91.51,5.9,7-109.07-87.89-5.67c0-.18-.06-.38-.11-.55-.45-2-1-4.07-1.51-6.06-.43-1.52-.86-3-1.32-4.53-.14-.47-.29-.91-.43-1.37h0c-.42-1.34-.83-2.66-1.27-4s-.93-2.71-1.41-4h0c-.15-.41-.29-.83-.44-1.24,0-.12-.09-.24-.14-.36h0c-.35-1-.7-1.92-1.08-2.85-.21-.54-.43-1.07-.64-1.6h0c-.16-.38-.31-.77-.47-1.16-.07-.24-.18-.45-.25-.63-.23-.55-.49-1.09-.72-1.64h0c-.47-1.08-.93-2.15-1.42-3.23s-.95-2-1.44-3h0c-.36-.76-.7-1.53-1.08-2.3s-.8-1.69-1.25-2.5a7,7,0,0,0-.41-.82c-.36-.72-.75-1.45-1.15-2.15s-.91-1.69-1.38-2.54c-.27-.46-.53-.91-.76-1.37-.56-.94-1.08-1.85-1.64-2.76-.42-.7-.84-1.4-1.27-2.07a10.45,10.45,0,0,0-.82-1.31.4.4,0,0,0-.13-.21c-.4-.67-.82-1.34-1.27-2-.56-.92-1.17-1.8-1.79-2.69a7.32,7.32,0,0,0-.56-.8c-.75-1.1-1.5-2.14-2.28-3.21,0-.06,0-.12-.1-.19a1,1,0,0,0-.19-.27.86.86,0,0,0-.22-.28h0l50.89-76.34-91-60.62L1563,224.13h0a10.7,10.7,0,0,0-1.43-.44,174.35,174.35,0,0,0-27.67-5.94,180.07,180.07,0,0,0-22.38-1.44c-1.32,0-2.64.08-4,.11-1,0-2,0-3,.08h0c-1.31.05-2.61.12-3.92.22-.76,0-1.53.11-2.3.17h0c-.69.05-1.37.09-2.07.16l-.88.08c-.68.07-1.35.1-2,.17l-40.65-82.22-98,48.45,39,79h0a7.28,7.28,0,0,0-.56.52c-.93.85-1.83,1.73-2.74,2.6-.56.52-1.09,1-1.59,1.59-.31.31-.62.64-.91.94-.81.8-1.56,1.57-2.31,2.39a5.3,5.3,0,0,0-.57.61c-1.19,1.21-2.32,2.45-3.39,3.7-.88,1-1.71,2-2.54,3l-.15.18-1,1.22c-.35.44-.73.88-1.08,1.33-.73.89-1.46,1.8-2.16,2.72-.19.23-.36.48-.55.7-.6.78-1.18,1.53-1.75,2.31s-1.18,1.56-1.7,2.35a.71.71,0,0,0-.1.14c-.45.58-.89,1.2-1.32,1.84-.28.39-.54.78-.83,1.18-.71,1-1.42,2.07-2.1,3.13-1,1.57-2,3.15-3,4.75-.81,1.32-1.6,2.64-2.36,4q-1.38,2.4-2.68,4.82a3,3,0,0,1-.27.54,3.73,3.73,0,0,1-.2.4q-1.1,2.07-2.11,4.16a9.37,9.37,0,0,0-.4.85c-.78,1.55-1.49,3.12-2.2,4.68a1.2,1.2,0,0,0-.17.34h0l-91.52-5.89-7,109.07,87.91,5.66h0c.13.65.27,1.3.46,2,.34,1.57.73,3.11,1.16,4.63s.9,3.27,1.38,4.88a1.49,1.49,0,0,0,.12.39c.44,1.43.87,2.83,1.37,4.24,0,.15.1.27.12.39.41,1.34.88,2.68,1.38,4,.17.48.32.93.49,1.38.22.65.45,1.28.73,1.91.39,1.11.82,2.16,1.28,3.24a12,12,0,0,0,.58,1.39c.43,1.08.88,2.19,1.37,3.24.2.48.41,1,.64,1.42a.58.58,0,0,0,.1.21c.79,1.8,1.64,3.58,2.52,5.33.52,1.12,1.09,2.23,1.69,3.33.34.66.7,1.33,1.07,2a19.09,19.09,0,0,0,1,1.94c.61,1.09,1.21,2.15,1.84,3.22,0,.06,0,.09.08.15.71,1.24,1.45,2.46,2.19,3.65.26.48.58,1,.9,1.46s.59.88.88,1.34a2.14,2.14,0,0,0,.13.19c.69,1.09,1.39,2.18,2.13,3.26,1,1.55,2.1,3.11,3.29,4.64l-50.89,76.34,91,60.63,48.84-73.27Zm-23.46-129.93a81.94,81.94,0,1,1,109.75,37.12A82,82,0,0,1,1438.09,426.24Z" transform="translate(0 -17.76)"/><path class="cls-2" d="M1755.92,774.68c.62.45,1.24.89,1.89,1.32.44.33.91.63,1.38.92a1.37,1.37,0,0,0,.29.2c.33.22.66.42,1,.62a.79.79,0,0,0,.24.15l.49.3h0c.57.35,1.13.7,1.7,1l1.06.61h0c.89.51,1.78,1,2.7,1.48.29.17.61.32.91.48l.07,0c.78.39,1.55.77,2.35,1.13q2.49,1.15,5.06,2.15c.8.31,1.62.62,2.43.9a.06.06,0,0,1,.07,0c.33.11.65.23,1,.33l.88.28,1.14.36c.85.26,1.69.51,2.54.74s1.93.53,2.91.76h0l5.4,44,52.42-6.42-5.18-42.24h0l.58-.26,1.31-.59c.41-.18.81-.38,1.19-.58s1-.49,1.52-.75l.63-.33a.23.23,0,0,0,.11-.06c.6-.3,1.18-.62,1.76-.94a4.23,4.23,0,0,0,.42-.22c.44-.25.89-.52,1.35-.77s.67-.39,1-.59l.1-.07a4.91,4.91,0,0,0,.64-.38c.48-.29.94-.59,1.42-.89a2.9,2.9,0,0,1,.29-.19l.17-.11c.47-.3.92-.61,1.39-.93l.41-.27c.45-.31.91-.64,1.36-1a5.48,5.48,0,0,0,.46-.34c.53-.37,1-.76,1.56-1.16.71-.54,1.43-1.11,2.12-1.69.52-.42,1-.84,1.52-1.28l.2-.16a3.65,3.65,0,0,0,.36-.31c.6-.51,1.17-1,1.73-1.56s1.37-1.27,2-1.93,1.42-1.4,2.1-2.12l40.78,17.32,20.65-48.61-39.18-16.64a2.51,2.51,0,0,0,0-.27c.12-1,.21-2,.28-3,0-.76.1-1.52.13-2.28,0-.23,0-.46,0-.69h0c0-.68.05-1.35.06-2s0-1.39,0-2.08h0v-.63a1.15,1.15,0,0,0,0-.19h0c0-.49,0-1,0-1.47,0-.28,0-.56,0-.83h0l0-.61c0-.12,0-.23,0-.32,0-.29,0-.58-.07-.87h0c0-.56-.08-1.13-.13-1.7s-.11-1.07-.17-1.61h0c-.05-.41-.08-.81-.13-1.22s-.09-.9-.16-1.35c0-.14,0-.28-.06-.43,0-.39-.11-.79-.18-1.17s-.15-.92-.23-1.38c0-.25-.09-.5-.12-.74-.11-.52-.2-1-.31-1.52s-.16-.78-.25-1.15a4.18,4.18,0,0,0-.16-.73.21.21,0,0,0,0-.12c-.07-.37-.16-.74-.26-1.12s-.24-1-.38-1.51a2.81,2.81,0,0,0-.13-.45c-.16-.62-.34-1.22-.52-1.83,0,0,0-.06,0-.1a.53.53,0,0,0,0-.16.4.4,0,0,0-.06-.16h0L1921,656.08l-31.77-42.19-34,25.61h0l-.58-.43a84,84,0,0,0-11.67-7.13,85.8,85.8,0,0,0-10-4.23c-.6-.22-1.21-.39-1.82-.59s-.93-.31-1.4-.45h0l-1.82-.53-1.08-.28h0l-1-.25-.42-.11-1-.25-5.39-44-52.42,6.43,5.18,42.24h0a2,2,0,0,0-.33.14c-.56.24-1.12.5-1.67.75-.34.15-.66.3-1,.47l-.56.28c-.5.24-1,.47-1.44.72l-.36.19c-.73.36-1.45.75-2.14,1.14s-1.09.63-1.62.95l-.1.05-.67.39c-.23.15-.48.29-.71.43-.47.29-.95.59-1.42.9l-.36.23-1.17.78c-.4.25-.79.52-1.15.79l-.06,0-.9.63c-.19.13-.37.27-.57.4-.49.36-1,.72-1.46,1.1-.72.55-1.42,1.11-2.12,1.68s-1.16,1-1.72,1.45-1.34,1.17-2,1.77a1.94,1.94,0,0,1-.21.2,1.1,1.1,0,0,1-.16.15l-1.62,1.56c-.11.11-.23.21-.32.32-.6.59-1.18,1.19-1.76,1.79l-.13.12h0L1703.45,632l-20.65,48.61L1722,697.28h0c0,.31-.09.63-.11,1-.1.77-.16,1.54-.21,2.3s-.11,1.64-.15,2.45a1.28,1.28,0,0,0,0,.19c0,.73,0,1.43,0,2.15a1.21,1.21,0,0,1,0,.2c0,.68,0,1.37,0,2,0,.25,0,.48,0,.71s0,.66,0,1c0,.57,0,1.12.07,1.68a6,6,0,0,0,0,.73c0,.56.06,1.14.11,1.69,0,.26,0,.51.07.75a.13.13,0,0,0,0,.11c.07.95.17,1.9.29,2.84.06.59.14,1.19.24,1.79,0,.35.11.71.17,1.08a7.9,7.9,0,0,0,.17,1c.1.59.2,1.17.32,1.76,0,0,0,0,0,.08q.19,1,.42,2c0,.27.11.54.17.81s.13.5.19.76l0,.1c.14.61.28,1.22.45,1.83.22.87.46,1.75.76,2.64l-35.42,26.68,31.78,42.18,34-25.6Zm10.08-63a39.59,39.59,0,1,1,44.11,34.48A39.6,39.6,0,0,1,1766,711.68Z" transform="translate(0 -17.76)"/><path class="cls-2" d="M83.11,977.09c.7.51,1.41,1,2.14,1.5.51.37,1,.72,1.58,1a1.72,1.72,0,0,0,.32.23c.38.25.75.47,1.13.7a1,1,0,0,0,.27.17c.19.12.38.22.56.34h0c.64.4,1.28.8,1.93,1.17l1.21.7h0c1,.57,2,1.14,3.07,1.68.34.19.7.36,1,.54l.08,0c.89.45,1.77.88,2.67,1.3q2.83,1.31,5.75,2.44c.91.35,1.84.69,2.77,1a.06.06,0,0,1,.07,0c.38.13.74.26,1.13.37l1,.32,1.3.42c1,.29,1.92.57,2.88.83s2.19.61,3.3.87h0l6.13,50,59.58-7.3-5.88-48h0l.67-.3,1.48-.67a14.26,14.26,0,0,0,1.36-.66c.59-.27,1.16-.55,1.72-.85.25-.12.49-.25.72-.38a.32.32,0,0,0,.13-.06c.68-.34,1.34-.7,2-1.07a4.23,4.23,0,0,0,.47-.25l1.54-.88c.39-.21.77-.44,1.12-.67l.12-.07a5.64,5.64,0,0,0,.73-.44l1.61-1c.1-.08.22-.15.34-.23l.19-.12,1.58-1.06c.14-.09.29-.2.46-.3l1.55-1.1c.19-.13.35-.26.52-.39.6-.42,1.19-.87,1.77-1.32.81-.61,1.63-1.26,2.41-1.92.59-.48,1.15-1,1.73-1.45l.22-.19a3.58,3.58,0,0,0,.41-.35c.68-.58,1.33-1.17,2-1.77.79-.71,1.56-1.45,2.29-2.2s1.61-1.59,2.38-2.41L255,985.07l23.47-55.25-44.52-18.91c0-.1,0-.21,0-.31.14-1.14.24-2.28.32-3.41,0-.87.11-1.73.14-2.59,0-.26,0-.52,0-.79h0c0-.76.06-1.53.07-2.28s0-1.57,0-2.36h0c0-.24,0-.48,0-.72v-.21h0c0-.56,0-1.12-.05-1.68,0-.31,0-.63,0-.94h0l0-.69c0-.14,0-.26,0-.37,0-.33,0-.66-.07-1h0c0-.65-.09-1.29-.15-1.94s-.13-1.22-.19-1.83h0c0-.46-.09-.92-.15-1.39s-.1-1-.19-1.52a4.26,4.26,0,0,0-.06-.5c-.06-.44-.13-.89-.21-1.32s-.16-1.05-.25-1.57c-.06-.29-.11-.57-.15-.85-.11-.59-.22-1.15-.34-1.73s-.19-.88-.28-1.3a7,7,0,0,0-.19-.83.21.21,0,0,0,0-.13c-.08-.42-.18-.85-.3-1.28s-.27-1.14-.43-1.71a3.75,3.75,0,0,0-.15-.52c-.19-.71-.39-1.38-.59-2.08,0,0,0-.06,0-.11a.42.42,0,0,0,0-.18.48.48,0,0,0-.06-.18h0l40.25-30.32-36.11-47.95L196,823.44h0a7.5,7.5,0,0,0-.66-.49,95.9,95.9,0,0,0-13.27-8.1A98.43,98.43,0,0,0,170.75,810c-.68-.24-1.38-.44-2.07-.66-.53-.18-1.05-.35-1.59-.51h0c-.69-.21-1.38-.42-2.07-.6-.4-.12-.82-.22-1.23-.33h0l-1.1-.3-.48-.11-1.07-.29-6.13-50-59.58,7.3,5.88,48h0a3.52,3.52,0,0,0-.39.16c-.63.27-1.26.56-1.89.85-.38.17-.75.34-1.11.54l-.64.32c-.57.26-1.1.52-1.64.82a3,3,0,0,0-.4.21c-.84.41-1.65.85-2.43,1.3-.63.34-1.24.71-1.85,1.07l-.11.06-.77.44-.8.5c-.54.33-1.08.67-1.61,1l-.41.26c-.46.29-.89.58-1.33.88s-.9.59-1.31.9l-.07.06c-.34.22-.69.46-1,.72l-.65.45c-.55.41-1.11.82-1.66,1.25-.82.62-1.61,1.26-2.41,1.91s-1.31,1.08-2,1.64-1.53,1.34-2.27,2a1.31,1.31,0,0,1-.24.23l-.17.17c-.63.58-1.25,1.17-1.85,1.77-.12.12-.26.24-.37.37-.68.66-1.33,1.34-2,2l-.15.15h0L23.47,815,0,870.21l44.53,18.91h0c-.05.36-.1.72-.12,1.09-.11.88-.19,1.75-.24,2.62S44,894.7,44,895.62a.55.55,0,0,0,0,.22c0,.82-.06,1.63-.06,2.45,0,.08,0,.15,0,.22,0,.77,0,1.55,0,2.31,0,.28,0,.54,0,.8a10.65,10.65,0,0,0,0,1.13c0,.64,0,1.27.08,1.91a5.64,5.64,0,0,0,0,.82c0,.64.06,1.3.12,1.93,0,.29,0,.57.07.85a.27.27,0,0,0,0,.13c.08,1.08.2,2.16.34,3.22.06.67.15,1.36.27,2,0,.41.12.82.19,1.23a10.3,10.3,0,0,0,.19,1.2c.11.67.23,1.33.36,2,0,0,0,0,0,.09.14.77.3,1.54.47,2.29.05.3.12.61.2.92l.21.85,0,.13c.17.69.33,1.38.52,2.07.25,1,.52,2,.86,3L7.69,957.74l36.11,48,38.63-29.1Zm11.46-71.6a45,45,0,1,1,50.13,39.18A45,45,0,0,1,94.57,905.49Z" transform="translate(0 -17.76)"/><rect class="cls-2" x="692.95" y="163.32" width="31.59" height="95.37"/><rect class="cls-2" x="622.65" y="196.75" width="31.59" height="61.94"/><rect class="cls-2" x="552.35" y="163.32" width="31.59" height="95.37"/><rect class="cls-2" x="482.05" y="190.65" width="31.59" height="68.04"/><rect class="cls-2" x="411.75" y="201.33" width="31.59" height="57.36"/><rect class="cls-2" x="341.45" y="224.67" width="31.59" height="34.02"/><path class="cls-2" d="M1881.68,1208.84s-46,17.23-90,60.7c-41.74,41.26-64.64,80.53-64.64,80.53a243,243,0,0,0,154.66-141.23Z" transform="translate(0 -17.76)"/><path class="cls-2" d="M1769.23,1359.54A163.93,163.93,0,0,0,1699,1379h0a165,165,0,0,0,142-6.7A163.75,163.75,0,0,0,1769.23,1359.54Z" transform="translate(0 -17.76)"/><path class="cls-2" d="M1676.82,1228.28a164.83,164.83,0,0,0,33.2,138.27,165,165,0,0,0-33.2-138.27Z" transform="translate(0 -17.76)"/><path class="cls-2" d="M1765.12,1565.05c29.34-16.29,34.69-34.61,20.7-55.88a163.94,163.94,0,0,0-52.52-50.57s2.15,35.32,25.59,68.28C1770.6,1543.34,1772.48,1555.49,1765.12,1565.05Z" transform="translate(0 -17.76)"/><path class="cls-2" d="M1750.39,1429.36c-.68-.19-1.35-.38-2-.55l-3.47-.92c-1.17-.29-2.33-.55-3.5-.83l-1.75-.42-1.76-.37-3.52-.75q-7-1.38-14.18-2.37a252.38,252.38,0,0,0-28.67-2.08,202.66,202.66,0,0,0-28.41,1.38c.21-.28.42-.57.64-.85q9.6-12.7,19.84-24.93t21.08-23.9q5.4-5.87,11-11.54c3.72-3.79,7.49-7.54,11.38-11.16-3.92,3.59-7.71,7.32-11.46,11.08s-7.44,7.59-11.07,11.47q-10.87,11.66-21.15,23.86t-19.91,24.9q-2.68,3.52-5.31,7.1a85.66,85.66,0,0,0-1.68-9.51c-.77-3.21-1.67-6.4-2.71-9.53s-2.2-6.24-3.48-9.28-2.66-6.06-4.21-9c.7,1.5,1.37,3,2,4.52s1.27,3,1.88,4.58c1.21,3.06,2.35,6.16,3.37,9.29s2,6.29,2.81,9.48l.59,2.39c.19.81.35,1.62.52,2.42.37,1.53.59,3.08.89,4.62q-6.84,9.26-13.3,18.77c-1.51,2.19-3,4.42-4.41,6.64s-2.94,4.43-4.33,6.69l-4.24,6.75-4.11,6.84c-.68,1.14-1.38,2.27-2,3.42l-2,3.46-2,3.46c-.65,1.16-1.33,2.3-2,3.48l-3.8,7-.94,1.75-.91,1.77-1.82,3.55c-2.47,4.71-4.71,9.53-7,14.31-1.13,2.41-2.19,4.85-3.28,7.27l-1.63,3.63c-.54,1.22-1,2.45-1.54,3.68l-3,7.37-2.83,7.45-1.41,3.73-1.3,3.77-1.65,4.81h-.32q.3-9.81.68-19.6,1-25.18,2.54-50.33t3.71-50.26Q1596.5,1423,1598,1408a46,46,0,0,0,9.88,5c22.14,7.65,46-1.39,46-1.39a98.65,98.65,0,0,0-53.43-26.76l1.09-9.62,1.53-12.5.36-2.87c20.62,21.83,42.56,31.31,42.56,31.31h0a163.87,163.87,0,0,0-29.73-66.57,52.07,52.07,0,0,0-6.8-7.55l.65-4.21,1-6.23,1-6.21,1-6.21c.35-2.07.69-4.14,1.08-6.2l2.26-12.4c.36-2.07.77-4.12,1.18-6.18l1.22-6.18,1.22-6.18c.4-2.06.86-4.11,1.29-6.17l.24-1.1c1.36-.35,34.79-9.33,62.17-38,14-14.59,25.55-18.73,36.32-13.3-21.51-25.75-40.51-27.56-58.77-9.82a163.86,163.86,0,0,0-39.65,60.74l2.33-10.88q3.35-15,7.14-29.82l.13.08h0l-.08-.27q2.42-9.46,5-18.87h0s29.33-34.73,54.24-87.88c26.24-56,27.07-105.14,27.07-105.14a242.95,242.95,0,0,0-81.31,193c-1.76,6.22-3.43,12.46-5,18.71a294.61,294.61,0,0,0-28.19-62.52c-21.16-35.51-48.06-54.39-48.06-54.39a162.37,162.37,0,0,0,76.17,117.21q-3.86,14.86-7.28,29.83l-2.66,12.31c-.44,2.06-.9,4.11-1.31,6.17l-1.23,6.18-1.22,6.17c-.42,2.06-.83,4.12-1.2,6.19L1614,1288q-2.57,14.4-4.81,28.85c-14-12.38-31-10.45-52.49,8.32,11.49-3.68,22.28,2.22,33.79,18.82a138.23,138.23,0,0,0,12.62,15.57q-1.62,12.63-3.06,25.29a97.47,97.47,0,0,0-26.57-.41c-.44-.21,10.59,14.44,24.13,23.39q-1.5,15-2.79,30.1-2.1,25.11-3.63,50.27-2.12,34.95-3.06,69.95h-.64l-.34-5.95-.12-2.16-.07-1.09-.1-1.08-.4-4.32-.39-4.33-.2-2.16-.27-2.16-1.07-8.62-.13-1.08-.17-1.07-.34-2.15-.67-4.29-.67-4.29-.79-4.27c-.54-2.85-1-5.7-1.61-8.54l-1.8-8.5a586,586,0,0,0-19.12-66.78q-5.77-16.4-12.28-32.51t-13.76-31.91c-6.39-13.95-13.13-27.76-20.34-41.31a164.85,164.85,0,0,0,69.41-123.89,164.91,164.91,0,0,0-69.55,123.62c-3.63-6.8-7.36-13.55-11.25-20.21,2.92,5,5.7,10.08,8.43,15.18.95,1.76,1.87,3.54,2.8,5.31,0,0,0,.08,0,.11h0l0,0q2.61,5,5.17,10,7.83,15.49,15,31.32,5.46,12,10.52,24.19a205.86,205.86,0,0,0-27.09-8.7,262.15,262.15,0,0,0-28.21-5.5q-7.12-.92-14.3-1.46l-3.58-.22-1.8-.1-1.79-.07c-1.2,0-2.4-.1-3.6-.12l-3.59,0c-1.2,0-2.39,0-3.59,0s-2.4,0-3.59,0c-2.4.1-4.79.15-7.18.33-4.79.28-9.55.84-14.29,1.45a164.81,164.81,0,0,0-141.46,14.48c-1,0,41.06,22.69,72.31,19.68,39-3.76,69.15-34.16,69.15-34.16h0c4.75-.54,9.52-1,14.3-1.23,2.39-.17,4.78-.2,7.17-.29,1.2,0,2.39,0,3.59,0s2.39,0,3.59,0l3.59.07,3.58.15,1.79.07,1.79.12,3.58.23c4.77.38,9.53.9,14.27,1.53a261.29,261.29,0,0,1,28.19,5.35q7,1.73,13.84,3.83c4.49,1.38,9,2.86,13.33,4.58q1.61,3.85,3.17,7.73,6.49,16.11,12.2,32.51a587.93,587.93,0,0,1,19.25,66.7l1.82,8.49c.58,2.84,1.08,5.69,1.62,8.53l.8,4.27.68,4.29.68,4.29.34,2.14.17,1.07.14,1.08,1.13,8.61.28,2.15.21,2.16.43,4.33.42,4.32.11,1.08.07,1.08.14,2.17.37,5.94h-88.2v30.1h0v1.34h0v145.3H1676V1558.1h-87.42l1.68-4.79,1.32-3.76,1.44-3.72,2.88-7.43,3.09-7.34c.52-1.23,1-2.46,1.55-3.67l1.64-3.63c1.1-2.42,2.16-4.86,3.29-7.26,2.33-4.77,4.57-9.59,7.06-14.28l1.82-3.55.91-1.77,1-1.75,3.81-7c.63-1.17,1.3-2.32,2-3.47l2-3.45,2-3.46c.67-1.15,1.37-2.28,2-3.41l4.12-6.82,4.25-6.74c1.4-2.26,2.89-4.45,4.35-6.68s2.9-4.44,4.42-6.62c5.72-8.52,11.74-16.85,17.91-25,4.66-.54,9.35-.81,14-1s9.57-.21,14.36-.12q7.48.15,14.94.77a101.35,101.35,0,0,1,7.75,7.9c1.84,2.09,3.63,4.22,5.33,6.43a82.48,82.48,0,0,0-37.3,60.26,82.34,82.34,0,0,0,37.46-60.07c.59.77,1.16,1.54,1.73,2.32s1.13,1.54,1.68,2.33,1.12,1.55,1.63,2.36l1.57,2.41c.26.4.52.81.76,1.22l.74,1.23c2,3.25,3.78,6.66,5.52,10.08l-1.2-2.61c-.41-.87-.8-1.75-1.26-2.59l-1.34-2.55c-.43-.86-1-1.67-1.42-2.51a107.16,107.16,0,0,0-13.65-18.54c-1.29-1.41-2.64-2.79-4-4.13s-2.59-2.42-4-3.54q6.84.55,13.65,1.46,7.11,1,14.17,2.3l3.52.72,1.76.37,1.75.4,3.49.82,3.48.89,1.87.5a82.41,82.41,0,0,0,68.14,19.49,82.44,82.44,0,0,0-67.9-19.72Z" transform="translate(0 -17.76)"/><path class="cls-2" d="M1391.09,1121.06a243,243,0,0,0,110.39,178s-11.35-44-40.29-95.08C1430.7,1150.16,1391.09,1121.06,1391.09,1121.06Z" transform="translate(0 -17.76)"/><path class="cls-2" d="M1520.07,1334.37a164.89,164.89,0,0,0-134.85-45.11,165,165,0,0,0,134.85,45.11Z" transform="translate(0 -17.76)"/><path class="cls-2" d="M1502.6,1416a81.91,81.91,0,0,0-17.41-31.76c2.24-1.65,4.54-3.22,6.88-4.72a100.51,100.51,0,0,1,10-5.7c-1.77.75-3.48,1.63-5.18,2.52s-3.36,1.88-5,2.89a107.13,107.13,0,0,0-18.18,14.12c-.68.68-1.39,1.32-2,2l-2,2.08c-.67.69-1.29,1.43-1.91,2.16l-1.88,2.18c2.61-2.81,5.23-5.62,8.06-8.2l1-1c.35-.33.7-.65,1.07-1l2.16-1.9c.71-.63,1.48-1.21,2.21-1.82s1.48-1.22,2.25-1.79,1.52-1.18,2.3-1.76a82.31,82.31,0,0,0,19.7,68A81.92,81.92,0,0,0,1502.6,1416Z" transform="translate(0 -17.76)"/><path class="cls-2" d="M1406.3,1495.54c-4.48-11.2.64-22.38,16.39-35,31.53-25.33,43.2-58.73,43.2-58.73a164,164,0,0,0-64.3,34.37C1382.35,1452.8,1382.51,1471.88,1406.3,1495.54Z" transform="translate(0 -17.76)"/><path class="cls-2" d="M851.37,17.76h365.08A11.28,11.28,0,0,1,1227.72,29v84.62a11.28,11.28,0,0,1-11.27,11.28h-16.37c-.17,4.77.54,13.58,7.19,19.3,0,0-18.3-1.48-23.36-19.3H851.37a11.28,11.28,0,0,1-11.28-11.28V29A11.28,11.28,0,0,1,851.37,17.76Z" transform="translate(0 -17.76)"/><path class="cls-2" d="M568.88,938H824.53a7.9,7.9,0,0,1,7.89,7.9v59.26a7.89,7.89,0,0,1-7.89,7.89H813.06c-.12,3.34.38,9.51,5,13.52,0,0-12.82-1-16.36-13.52H568.88a7.89,7.89,0,0,1-7.89-7.89V945.92A7.9,7.9,0,0,1,568.88,938Z" transform="translate(0 -17.76)"/><path class="cls-2" d="M429.11,69.85H285.39a7.52,7.52,0,0,0-7.52,7.52v56.41a7.52,7.52,0,0,0,7.52,7.51H296.3c.11,3.18-.36,9.06-4.79,12.87,0,0,12.2-1,15.57-12.87h122a7.52,7.52,0,0,0,7.52-7.51V77.37A7.52,7.52,0,0,0,429.11,69.85Z" transform="translate(0 -17.76)"/><rect class="cls-3" x="359.26" y="1652.92" width="132.7" height="63.65"/><rect class="cls-2" x="191.97" y="1652.92" width="167.29" height="63.65"/><rect class="cls-2" x="359.26" y="1652.92" width="136.97" height="5.23"/><rect class="cls-2" x="432.57" y="1669.9" width="61.42" height="1.31"/><rect class="cls-2" x="359.26" y="1711.34" width="136.97" height="5.23"/><rect class="cls-3" x="208.83" y="1652.92" width="12.34" height="63.65"/><rect class="cls-3" x="336.8" y="1652.92" width="3.08" height="63.65"/><rect class="cls-3" x="326.44" y="1652.92" width="3.08" height="63.65"/><polygon class="cls-2" points="491.02 1694.43 477.17 1694.43 464.3 1671.21 478.15 1671.21 491.02 1694.43"/><path class="cls-3" d="M246.12,1693v19h-4.94v-8H239.7v8h-4.95v-19h4.95v6.8h1.48V1693Z" transform="translate(0 -17.76)"/><path class="cls-3" d="M253.05,1693v19h-4.94v-19Z" transform="translate(0 -17.76)"/><path class="cls-3" d="M265.52,1698.75h-4.6v-1.41a2.89,2.89,0,0,0-.17-1.25.66.66,0,0,0-.59-.27.76.76,0,0,0-.68.36,2.15,2.15,0,0,0-.22,1.11,3.16,3.16,0,0,0,.25,1.43,3.76,3.76,0,0,0,1.4,1.16,14.12,14.12,0,0,1,4.16,3.22,7.39,7.39,0,0,1,.86,4.05,7.09,7.09,0,0,1-.48,3,3.72,3.72,0,0,1-1.84,1.61,7.32,7.32,0,0,1-3.17.65,7.13,7.13,0,0,1-3.39-.75,3.72,3.72,0,0,1-1.84-1.91,10.13,10.13,0,0,1-.43-3.3v-1.25h4.59v2.31a3,3,0,0,0,.2,1.38.74.74,0,0,0,.68.3.82.82,0,0,0,.74-.38,2.24,2.24,0,0,0,.24-1.15,3.53,3.53,0,0,0-.46-2.2,14.14,14.14,0,0,0-2.31-1.73A22.31,22.31,0,0,1,256,1702a4.14,4.14,0,0,1-1-1.53,8.79,8.79,0,0,1,.17-5.68,3.71,3.71,0,0,1,1.8-1.58,7.19,7.19,0,0,1,3-.57,7.93,7.93,0,0,1,3.28.62,3.45,3.45,0,0,1,1.79,1.57,8.13,8.13,0,0,1,.45,3.21Z" transform="translate(0 -17.76)"/><path class="cls-3" d="M277.44,1693v3.8H274.5V1712h-4.94V1696.8h-2.93V1693Z" transform="translate(0 -17.76)"/><path class="cls-3" d="M289.86,1704.13c0,1.91,0,3.27-.13,4.06a4.52,4.52,0,0,1-.85,2.18,4.46,4.46,0,0,1-1.92,1.51,6.82,6.82,0,0,1-2.82.53,7,7,0,0,1-2.74-.5,4.58,4.58,0,0,1-2.84-3.67c-.09-.78-.14-2.15-.14-4.11v-3.25c0-1.91.05-3.26.14-4.06a4.51,4.51,0,0,1,2.76-3.69,6.89,6.89,0,0,1,2.82-.53,7.06,7.06,0,0,1,2.75.5,4.55,4.55,0,0,1,2.83,3.67,38.41,38.41,0,0,1,.14,4.11Zm-4.94-6.25a5.7,5.7,0,0,0-.15-1.69.58.58,0,0,0-.6-.37.69.69,0,0,0-.6.3,4.37,4.37,0,0,0-.2,1.76v8.88a8.9,8.9,0,0,0,.13,2,.59.59,0,0,0,.63.38.61.61,0,0,0,.65-.44,9.75,9.75,0,0,0,.14-2.13Z" transform="translate(0 -17.76)"/><path class="cls-3" d="M291.71,1693h3.5a26.84,26.84,0,0,1,4.74.27,3.28,3.28,0,0,1,2,1.38,6.27,6.27,0,0,1,.78,3.54,5.6,5.6,0,0,1-.55,3,2.91,2.91,0,0,1-2.18.92,3.78,3.78,0,0,1,2,1,3,3,0,0,1,.62,1.12,16.57,16.57,0,0,1,.13,2.82v5h-4.59v-6.32a4.36,4.36,0,0,0-.25-1.89q-.24-.36-1.26-.36V1712h-4.94Zm4.94,3.25v4.23a2.19,2.19,0,0,0,1.17-.23c.22-.15.34-.65.34-1.49v-1a1.58,1.58,0,0,0-.33-1.19A1.82,1.82,0,0,0,296.65,1696.25Z" transform="translate(0 -17.76)"/><path class="cls-3" d="M315.2,1693l-3.61,12.13V1712H307v-6.88L303.53,1693h4.55q1.07,5.57,1.2,7.49.41-3,1.38-7.49Z" transform="translate(0 -17.76)"/><rect class="cls-3" x="372.27" y="1553.53" width="113.92" height="54.65"/><rect class="cls-2" x="228.65" y="1553.53" width="143.62" height="54.65"/><rect class="cls-2" x="372.27" y="1553.53" width="117.59" height="4.49"/><rect class="cls-2" x="435.21" y="1568.11" width="52.73" height="1.12"/><rect class="cls-2" x="372.27" y="1603.69" width="117.59" height="4.49"/><rect class="cls-3" x="243.13" y="1561.38" width="10.59" height="38.94"/><rect class="cls-3" x="278.79" y="1561.38" width="70.97" height="38.94"/><polygon class="cls-2" points="485.39 1589.17 473.5 1589.17 462.45 1569.24 474.34 1569.24 485.39 1589.17"/><path class="cls-4" d="M270.27,1608.18H455a0,0,0,0,1,0,0v44.74a0,0,0,0,1,0,0H270.27a22.16,22.16,0,0,1-22.16-22.16v-.43A22.16,22.16,0,0,1,270.27,1608.18Z"/><path class="cls-3" d="M384.38,1611.85h74.57a0,0,0,0,1,0,0v37.39a0,0,0,0,1,0,0H384.38a18.69,18.69,0,0,1-18.69-18.69v0A18.69,18.69,0,0,1,384.38,1611.85Z"/><rect class="cls-4" x="365.68" y="1608.18" width="96.27" height="3.68"/><rect class="cls-4" x="417.21" y="1620.12" width="43.17" height="0.92"/><rect class="cls-4" x="365.68" y="1649.24" width="96.27" height="3.68"/><path class="cls-3" d="M351,1663.23H271.39a14.92,14.92,0,1,1,0-29.84H351a18.69,18.69,0,0,0,0,29.84Z" transform="translate(0 -17.76)"/><path class="cls-4" d="M340.7,1665.48a1,1,0,0,1-.6-.2,21.25,21.25,0,0,1-2.23-32,22.84,22.84,0,0,1,2.22-1.94,1,1,0,0,1,1.2,1.59,19.8,19.8,0,0,0-2,1.75,19.27,19.27,0,0,0,2,29,1,1,0,0,1,.19,1.4A1,1,0,0,1,340.7,1665.48Z" transform="translate(0 -17.76)"/><path d="M1392.64,1184c-.18-2-4.27-49.51,8.1-79.06l15,6.26c-10.84,25.88-7,70.9-6.9,71.35Z" transform="translate(0 -17.76)"/><path class="cls-5" d="M1550.38,1734.84s-27.39-222.3,43.58-457.1a65.55,65.55,0,0,0-45-82.15c-66.33-18.58-177-38.52-301.9-15.74a65.55,65.55,0,0,0-53.71,60.42c-6.16,99.81-13,330.66,46.15,494.57Z" transform="translate(0 -17.76)"/><path class="cls-5" d="M1549.13,1036.25q-5.94,25.7-9.88,50.37a48.12,48.12,0,0,1-54.1,40,693.19,693.19,0,0,0-72.07-6h0c-13.2-.42-27.1-.49-41.58-.08q-17.06.46-35.14,1.88l-3.32.27a48.2,48.2,0,0,1-52.12-52.81c1.72-17.09,3.55-31.86,5.17-43.59A48.08,48.08,0,0,1,1306.69,993l.11-.08a48.29,48.29,0,0,1,13.53-6.37q10.7-3.14,20.9-5.65c80.74-19.93,139-12.33,174.85-1.65A48.1,48.1,0,0,1,1549.13,1036.25Z" transform="translate(0 -17.76)"/><path d="M1392.64,1184s147.27-12.39,150.84,136-16.71,241.46-16.71,241.46S1551.25,1221.07,1392.64,1184Z" transform="translate(0 -17.76)"/><path d="M1371.49,1120.48q-17.06.46-35.14,1.88l-3.32.27a48.2,48.2,0,0,1-52.12-52.81c1.72-17.09,3.55-31.86,5.17-43.59A48.08,48.08,0,0,1,1306.69,993l.11-.08a48.29,48.29,0,0,1,13.53-6.37q10.7-3.14,20.9-5.65C1369.08,1007.85,1371.33,1104.24,1371.49,1120.48Z" transform="translate(0 -17.76)"/><path d="M1413.12,1114c-17,.09-33.91.34-50.84.88-8.47.2-17,.42-25.4,1l-3.17.24c-1.07,0-2.13.13-3.2.15s-2.14,0-3.2,0l-1.6-.08-1.59-.17a56.43,56.43,0,0,1-6.32-1.1,47.35,47.35,0,0,1-6.12-2,46.17,46.17,0,0,1-20.29-15.49,47.31,47.31,0,0,1-6.25-11.34,46.21,46.21,0,0,1-2.84-12.66,60.58,60.58,0,0,1,.6-12.87l1.56-12.64c1.13-8.41,2.38-16.81,3.86-25.17l.2,0-2.5,25.32-1.2,12.66c-.18,2.11-.41,4.23-.52,6.29-.07,1,0,2.07,0,3.11s.07,2.07.17,3.1a46.12,46.12,0,0,0,8.49,23.06A47.2,47.2,0,0,0,1312.1,1112a42.63,42.63,0,0,0,12.1,3.37l1.57.19,1.57.1c1.05.09,2.11.06,3.16.08,2.1,0,4.21-.24,6.33-.42l12.68-1.13c4.23-.33,8.46-.67,12.7-.91,8.48-.47,17-.59,25.47-.5s17,.42,25.45,1.08Z" transform="translate(0 -17.76)"/><path d="M1510.41,977.44a45.08,45.08,0,0,1,14.66,6.93,46.07,46.07,0,0,1,11.37,11.72,47.78,47.78,0,0,1,6.61,15,44.5,44.5,0,0,1,.91,16.38,77.1,77.1,0,0,1-1.65,8l-1.89,7.87-1.8,7.89c-.57,2.63-1.11,5.28-1.64,7.92-1.09,5.29-2,10.6-2.88,15.93l-.65,4-.3,2-.39,2a45.65,45.65,0,0,1-2.17,7.87,46.24,46.24,0,0,1-21.12,24.35,47.84,47.84,0,0,1-15.55,5.34c-1.37.16-2.74.34-4.12.47l-4.14.05c-2.75-.15-5.52-.43-8.16-.82-21.36-2.87-42.83-4.91-64.38-6.29v-.2a521.74,521.74,0,0,1,64.64,4.44c2.71.39,5.32.63,8,.76l4,0,3.94-.42a45.61,45.61,0,0,0,15-4.94,46.31,46.31,0,0,0,21-23.09c2-4.93,2.94-10.25,3.83-15.58l2.9-15.94,3-15.92,1.61-7.94c.59-2.65,1-5.26,1.36-7.89.09-1.32.23-2.64.29-4l-.08-4-.44-4c-.2-1.3-.5-2.6-.74-3.9a46.05,46.05,0,0,0-6.19-14.56,47.59,47.59,0,0,0-24.8-19.3Z" transform="translate(0 -17.76)"/><path d="M1576.18,1285.34a63.81,63.81,0,0,0,1.57-27.43,63.1,63.1,0,0,0-10.13-25.38,62,62,0,0,0-19.89-18.61,64.2,64.2,0,0,0-12.5-5.58c-2.17-.72-4.43-1.29-6.66-1.91l-6.7-1.82-13.46-3.5c-4.5-1.11-9-2.14-13.53-3.22s-9.06-2-13.59-2.94c-2.26-.5-4.54-.92-6.83-1.33l-6.84-1.25c-4.55-.87-9.13-1.6-13.72-2.27s-9.17-1.41-13.78-1.93-9.2-1.19-13.81-1.64l-13.85-1.27a679.59,679.59,0,0,0-111.06.09c-4.62.41-9.24.75-13.84,1.24l-13.8,1.66-6.9.82-6.86,1.07-13.74,2.14a63,63,0,0,0-44.56,29.62l-.17-.1a62.66,62.66,0,0,1,44.46-31.06l13.74-2.33,6.87-1.16,6.91-.91,13.83-1.77c4.62-.5,9.26-.85,13.88-1.28s9.26-.88,13.9-1.06l13.92-.73c2.32-.15,4.65-.13,7-.18l7-.12c4.65-.07,9.29-.19,13.94,0l13.94.23c4.64.17,9.28.44,13.92.66,2.32.12,4.64.21,7,.35l7,.57,6.94.57c2.32.19,4.63.36,6.94.64,18.49,1.81,36.87,4.48,55.18,7.52,9.15,1.54,18.27,3.3,27.38,5.11,4.54,1,9.09,1.93,13.62,3s9,2.11,13.55,3.25l6.73,1.79c2.25.61,4.49,1.16,6.74,1.88a60,60,0,0,1,12.86,5.74,62.81,62.81,0,0,1,30.17,45.35,62.31,62.31,0,0,1-2.42,27.64Z" transform="translate(0 -17.76)"/><path d="M1534.5,1720.32c-2.41-18.17-3.69-36.47-4.63-54.77-.4-9.15-.73-18.31-.92-27.48-.1-4.58-.17-9.16-.15-13.74s0-9.16,0-13.75c.58-36.65,2.73-73.24,5.67-109.76a1048.42,1048.42,0,0,1,14.78-108.92c.4-2.26.85-4.51,1.32-6.75l1.37-6.74c.94-4.48,1.76-9,2.83-13.45,2.06-8.93,4-17.88,6.35-26.75,4.36-17.8,9.57-35.38,15-52.87l.19.06q-14.85,52.9-25.06,106.88l-2.45,13.5c-.42,2.25-.8,4.51-1.16,6.77l-1.13,6.76c-1.58,9-2.88,18.07-4.25,27.12-2.52,18.12-4.87,36.28-6.73,54.49s-3.29,36.47-4.11,54.77l-.52,13.72c-.15,4.57-.2,9.15-.3,13.73q-.23,13.72-.17,27.45c0,36.6,1,73.22,4.21,109.7Z" transform="translate(0 -17.76)"/><path class="cls-6" d="M1511.69,1673c4,44.18-17.07,48.53-17.07,48.53-7.36,12-16.4,13.36-16.4,13.36H1081.39l-8.16-194-9.41-53-53.57,91.54c-32.69,54-86.9,49.53-86.9,49.53-13,4.33-30,14.34-30,14.34-78.71-17-57-73.47-57-73.47,26.46-11.85,96.77-104.64,96.77-104.64l36.14-89.6c-11.15-29.21,13.52-37.84,13.52-37.84,30.82-69,42.8-132.15,60.73-128,12.18-22.22,58.52-19,80.38-30.17-.78-16.83,9.23-24.16,23-20.88l.48.13c18.06,4.44,40.61,16.58,61.22,15.51,39.48-2,82.69-28,92.22-32.4.42-.2.83-.36,1.23-.51,13.28-5,16.07,13.68,16.07,13.68,24.31,25.37,139.76,38.59,146.24,51.26h0c38.19,3.07,69.68,142.64,70.28,194.3C1536.16,1540.86,1511.69,1673,1511.69,1673Z" transform="translate(0 -17.76)"/><path class="cls-7" d="M1219.55,1289.8s1.94,20.57-3.27,32.82l22-7.7s-2.77-29-12.22-34.16Z" transform="translate(0 -17.76)"/><path class="cls-7" d="M1132.38,1307.15s6.44-19.49,40.64-13.36l-11.86-22.85S1130.73,1273.38,1132.38,1307.15Z" transform="translate(0 -17.76)"/><path class="cls-7" d="M1117,1734.84c-36.75-15.82-30.2-54.93-37.5-92.49l13.27-4.07C1126.51,1659.17,1117,1734.84,1117,1734.84Z" transform="translate(0 -17.76)"/><path class="cls-3" d="M1160.3,1271.36c7,16.56,22.45,53.94,65.79,12.62,0,0-4.06-16.17-39.18,0C1186.91,1284,1171.12,1265.29,1160.3,1271.36Z" transform="translate(0 -17.76)"/><ellipse class="cls-8" cx="1305.86" cy="1010.45" rx="55.34" ry="41.86" transform="translate(235.94 2250.28) rotate(-87.34)"/><ellipse class="cls-8" cx="1305.86" cy="1010.45" rx="55.34" ry="41.86" transform="translate(235.94 2250.28) rotate(-87.34)"/><path class="cls-3" d="M1236.37,1321.56s6.13-62.63-49.46-37.58c0,0-45.65-28.86-54.53,23.17,0,0-3-75.23-8.53-127.67-.78-16.82,9.24-24.15,23-20.87l.48.13c18,4.44,40.62,16.58,61.22,15.52,39.48-2,82.7-28,92.21-32.41.43-.19.84-.36,1.24-.51,13.28-5,15.84,11.82,16.08,13.69a1,1,0,0,0,0,.17S1335.21,1268.69,1236.37,1321.56Z" transform="translate(0 -17.76)"/><path class="cls-9" d="M1068.84,961.5s-7.38,31.83-1,47.91,14.6,10.49,14.6,10.49-18.86-30.44-11.22-59Z" transform="translate(0 -17.76)"/><path class="cls-9" d="M1293.33,1041.89l62.61-56.61s8.23,35.7-13.1,61.19c-13.27,15.85-5.32,31.79-5.32,31.79s-18.72-1.73-13.43-20l0,0c-.67,1-7.12,6.55-7.44,24.52,0,0-6.86-.31-8.9-5.86a10,10,0,0,1,.43-7.45c-4.81,3.49-11.48,5.39-16,2.87l7.42-9.15a31.94,31.94,0,0,1-17.54,9.76c-14.4,3-22.44-3.52-22.44-3.52Z" transform="translate(0 -17.76)"/><path class="cls-10" d="M1288.94,1154.81l4.27-92-141-6.55-5.09,109.67a5.89,5.89,0,0,1-7.62,5.34l-.8-.24h0c-1,21,6.74,46.57,13.07,60.76,11.88,26.62,35.12,52.22,35.12,52.22l71.78-56a85.6,85.6,0,0,0,38.16-67.35h0l-.16.05A5.88,5.88,0,0,1,1288.94,1154.81Z" transform="translate(0 -17.76)"/><path class="cls-10" d="M1196.19,1157.06h0a94,94,0,0,0,98.25-89.53l5.32-114.7a94,94,0,0,0-89.53-98.25h0A94,94,0,0,0,1112,944.11l-5.33,114.7A94,94,0,0,0,1196.19,1157.06Z" transform="translate(0 -17.76)"/><path class="cls-11" d="M1148.28,1141.35l-.88,19c9.76.53,32.13-.09,49.78-14.25A108,108,0,0,1,1148.28,1141.35Z" transform="translate(0 -17.76)"/><path class="cls-9" d="M1141.76,983.39a8.46,8.46,0,1,0,8.85-8.06A8.46,8.46,0,0,0,1141.76,983.39Z" transform="translate(0 -17.76)"/><path class="cls-9" d="M1129.8,974.67a21.22,21.22,0,0,1,8.08-5.18,23.29,23.29,0,0,1,9.66-1.44,18.29,18.29,0,0,1,2.44.31l1.22.19c.4.08.79.21,1.18.32.79.25,1.57.47,2.34.73s1.49.67,2.22,1l1.1.52,1,.65,2,1.33a45.41,45.41,0,0,1,3.59,3.17c-1.45-.7-2.77-1.53-4.17-2.22l-2.12-1-1-.5-1.09-.37c-.73-.24-1.45-.49-2.16-.76l-2.22-.53c-.37-.07-.73-.2-1.1-.26l-1.12-.15a15.46,15.46,0,0,0-2.25-.23,27.7,27.7,0,0,0-9,.86A35,35,0,0,0,1129.8,974.67Z" transform="translate(0 -17.76)"/><circle class="cls-9" cx="1238.91" cy="987.9" r="8.46" transform="translate(-342.22 1074.42) rotate(-42.34)"/><path class="cls-9" d="M1218.5,978.79a21.3,21.3,0,0,1,8.08-5.18,23.29,23.29,0,0,1,9.66-1.44,18.27,18.27,0,0,1,2.44.3l1.22.2a9.8,9.8,0,0,1,1.18.32c.79.24,1.57.47,2.35.73s1.48.67,2.22,1l1.09.52,1,.65,2,1.33a43.47,43.47,0,0,1,3.59,3.17c-1.45-.7-2.77-1.53-4.17-2.23l-2.12-1-1-.49-1.09-.37c-.73-.24-1.45-.5-2.16-.76l-2.22-.53c-.37-.08-.73-.21-1.1-.26l-1.12-.15a15.47,15.47,0,0,0-2.25-.24,27.71,27.71,0,0,0-9,.87A34.57,34.57,0,0,0,1218.5,978.79Z" transform="translate(0 -17.76)"/><path class="cls-9" d="M1184.12,1052.08c-1.71-.76-3.4-1.57-5.11-2.38a9.86,9.86,0,0,1-3.85-4.24,17,17,0,0,1-1.05-11.26c.79-3.67,1.59-7.35,2.44-11a95.74,95.74,0,0,1,3.32-10.77c-.47,1.82-.94,3.63-1.35,5.46s-.84,3.65-1.22,5.48c-.69,3.68-1.49,7.34-2.2,11a20,20,0,0,0-.53,5.46,15,15,0,0,0,1.28,5.29,9.28,9.28,0,0,0,3.4,4.15C1180.86,1050.22,1182.51,1051.12,1184.12,1052.08Z" transform="translate(0 -17.76)"/><path class="cls-12" d="M1208.27,1066.06a18.07,18.07,0,0,1-2.37,5.34,17.77,17.77,0,0,1-10,7.36,16.92,16.92,0,0,1-12.53-1.33,16,16,0,0,1-7.69-8.63c1.72,0,3.29,0,4.75,0,2,0,3.73.11,5.35,0,.7,0,1.36-.09,2-.1s1.23-.1,1.82-.22a23.5,23.5,0,0,0,3.26-.67,36.91,36.91,0,0,0,6.84-2.8c1.46-.74,3-1.59,4.63-2.54q1.92-1.11,4.21-2.35A13.77,13.77,0,0,1,1208.27,1066.06Z" transform="translate(0 -17.76)"/><path class="cls-3" d="M1204.32,1062.54a13.44,13.44,0,0,1-9.81,11,13.32,13.32,0,0,1-10.35-1.3,12.87,12.87,0,0,1-3.74-3.36c2,0,3.73.11,5.35,0,.7,0,1.36-.09,2-.1s1.23-.1,1.82-.22a23.5,23.5,0,0,0,3.26-.67,36.91,36.91,0,0,0,6.84-2.8C1201.15,1064.34,1202.65,1063.49,1204.32,1062.54Z" transform="translate(0 -17.76)"/><path class="cls-9" d="M1130.89,951.11a12.25,12.25,0,0,1,2.71-5,17.64,17.64,0,0,1,2-2c.36-.3.74-.57,1.12-.84a9.94,9.94,0,0,1,1.18-.77,19.23,19.23,0,0,1,11-2.57,17.25,17.25,0,0,1,2.86.39l1.4.31a13.49,13.49,0,0,1,1.35.47,27.07,27.07,0,0,1,2.6,1.11c.8.48,1.59,1,2.34,1.53.38.26.74.55,1.1.83s.67.63,1,1c.64.66,1.24,1.36,1.81,2.07a15,15,0,0,1,1.4,2.41,15.34,15.34,0,0,1,1,2.65,35.47,35.47,0,0,1-5.33-.33c-.82,0-1.6-.11-2.34-.21-.38,0-.73-.11-1.09-.17s-.73,0-1.08-.06c-.71-.05-1.38-.14-2-.25s-1.32-.06-2-.15c-.32,0-.63-.1-1-.11l-.93,0-.92-.09a4.07,4.07,0,0,0-.92-.06c-2.45-.21-4.88-.22-7.65-.26S1134.79,951.07,1130.89,951.11Z" transform="translate(0 -17.76)"/><path class="cls-9" d="M1219.59,955.23a12.35,12.35,0,0,1,2.71-5,18.42,18.42,0,0,1,2-2c.36-.3.74-.57,1.12-.84a9.94,9.94,0,0,1,1.18-.77,19.18,19.18,0,0,1,11-2.57,17.28,17.28,0,0,1,2.85.39l1.4.31c.46.12.9.3,1.35.46.88.34,1.76.7,2.6,1.11s1.59,1,2.34,1.54c.38.26.74.55,1.1.83s.67.63,1,1c.64.66,1.23,1.36,1.8,2.07a17.77,17.77,0,0,1,2.43,5.06,35.47,35.47,0,0,1-5.33-.33c-.82,0-1.6-.12-2.34-.22-.38,0-.73-.1-1.09-.16s-.73,0-1.08-.06c-.71-.06-1.38-.14-2-.25s-1.32-.07-1.95-.15c-.32,0-.63-.11-.94-.12s-.63,0-.94,0l-.92-.09a4.07,4.07,0,0,0-.92-.06c-2.44-.21-4.88-.22-7.65-.26S1223.5,955.18,1219.59,955.23Z" transform="translate(0 -17.76)"/><path class="cls-9" d="M1256.94,897.94a27.65,27.65,0,0,0-32.73-17c-10.25,2.7-22.83,10.57-36.35,29.26a133.78,133.78,0,0,0-12.33,21.13c-6.3,13.29-25,45.39-62,55.53l-6.07,54.84-1.34-.67c-20.23-17.16-33.68-42.1-37.25-69.75-.27-2.09-.51-4.24-.73-6.43a14.52,14.52,0,0,1-5.42,12c-5.53,4.32-13.51,2-13.51,2s16-18.51,10.54-53.18c-4.94-31.32,9.34-50.63,38.16-64.65,0,0-20.64,1.68-23.37-17.52,0,0,44.09,21.93,76.62-13.12,39.93-43,88.18-33.83,97.28,7,0,0,11.41-22.53,28.25-8.2s33.25,37.16,61.12,50.62,3.43,88.7,45.75,107.69c0,0-23.62,9.16-30.12-16.83,0,0,21.39,57.78-59.23,92.24l8.31-54.45s-32.34-7.85-36.4-47.07C1263,931.14,1262.81,913.24,1256.94,897.94Z" transform="translate(0 -17.76)"/><path class="cls-9" d="M1248.16,837.21a29.92,29.92,0,0,1,2.08-5.87,30.7,30.7,0,0,1,3.26-5.42,23.49,23.49,0,0,1,4.59-4.65,17.86,17.86,0,0,1,6.11-3,17.08,17.08,0,0,1,6.93-.42,21.42,21.42,0,0,1,6.48,2,33.91,33.91,0,0,1,10.08,7.92,101.64,101.64,0,0,1,7.55,9.84c2.3,3.38,4.62,6.71,6.88,10.1s4.4,6.88,7.09,9.66a29.12,29.12,0,0,0,4.33,3.76c.81.53,1.61,1,2.42,1.55s1.66,1,2.53,1.42c6.86,3.63,14.46,6.22,22,8.72a52.54,52.54,0,0,1,6,2.25,26.31,26.31,0,0,1,5.77,3.6,19.9,19.9,0,0,1,4.57,5.34,21.12,21.12,0,0,1,2.48,6.48,40.39,40.39,0,0,1,.22,12.91c-.5,4.14-1.25,8.13-2,12.1-1.4,7.9-2.66,15.81-1.47,23.82l-.55.13a42.93,42.93,0,0,1-2.13-12.14,98.76,98.76,0,0,1,.4-12.3c.31-4.06.76-8.07.94-12a38.35,38.35,0,0,0-.81-11.25,17,17,0,0,0-2-4.73,15.67,15.67,0,0,0-3.41-3.73,23.08,23.08,0,0,0-4.54-2.73c-1.67-.78-3.38-1.32-5.38-2s-3.84-1.41-5.74-2.18l-2.86-1.15-2.83-1.26a76,76,0,0,1-11-5.88,34.42,34.42,0,0,1-9.22-8.79c-2.44-3.49-4.15-7.18-6.28-10.58a68.17,68.17,0,0,0-15.64-18,49.35,49.35,0,0,0-9.54-6.2,20.42,20.42,0,0,0-5-1.69,14.15,14.15,0,0,0-5.11,0,19,19,0,0,0-9.34,5.33,46.1,46.1,0,0,0-7.24,9.35Z" transform="translate(0 -17.76)"/><path class="cls-9" d="M1249.67,886.83a22.84,22.84,0,0,0-13.61-2.58,49.5,49.5,0,0,0-13.58,3.45,59.37,59.37,0,0,0-12.84,6.44,62.2,62.2,0,0,0-10.79,9.65l-2.39,2.72-2.32,2.78c-1.56,1.83-3.05,3.73-4.56,5.6s-3,3.8-4.35,5.77l-2.14,2.91-2.1,2.95c-5.67,7.8-11,15.85-16.63,23.87l-.3-.17a139.72,139.72,0,0,1,14-25.78,131.54,131.54,0,0,1,9.07-11.6,98.47,98.47,0,0,1,10.45-10.38c3.74-3.18,7.54-6.25,11.44-9.21a76.13,76.13,0,0,1,12.36-8.15,33.91,33.91,0,0,1,7.08-2.52c1.22-.32,2.47-.51,3.72-.72a34.28,34.28,0,0,1,3.79-.24,23.66,23.66,0,0,1,7.51,1.11,15.61,15.61,0,0,1,6.43,3.84Z" transform="translate(0 -17.76)"/><path class="cls-9" d="M1304.59,1008.64a52,52,0,0,1-19.13-2.52,43.82,43.82,0,0,1-8.93-4.07,35.7,35.7,0,0,1-7.73-6.12,42.77,42.77,0,0,1-9.49-16.93,77.16,77.16,0,0,1-3.36-19,86,86,0,0,1,1.1-19.29,138,138,0,0,0,1.93-18.71,75.38,75.38,0,0,0-1.38-18.56,45.41,45.41,0,0,0-2.84-8.85,25.73,25.73,0,0,0-5.08-7.8l.2-.28a17.29,17.29,0,0,1,3.59,3.29,28,28,0,0,1,2.85,4,34.49,34.49,0,0,1,2.22,4.37,44.55,44.55,0,0,1,1.68,4.61,63.62,63.62,0,0,1,2.39,19.33,105,105,0,0,1-2.45,19.19,122.55,122.55,0,0,0-2.44,18.7,48.6,48.6,0,0,0,2.65,18.61,36.81,36.81,0,0,0,4.33,8.3,43.17,43.17,0,0,0,6.1,7,50.69,50.69,0,0,0,7.29,5.59,53.87,53.87,0,0,0,8.27,4.18,79.14,79.14,0,0,0,18.24,4.64Z" transform="translate(0 -17.76)"/><path class="cls-9" d="M1060.86,930.2a46,46,0,0,1-2.19-5.36c-.59-1.83-1-3.71-1.41-5.59a57.55,57.55,0,0,1-.76-5.71,36.12,36.12,0,0,1,0-5.79,106.7,106.7,0,0,1,2.53-11.31c.84-3.72,1.58-7.45,2.61-11.22a24.86,24.86,0,0,1,.87-2.82,21.29,21.29,0,0,1,1.1-2.77c.42-.89.88-1.78,1.38-2.64s1.08-1.69,1.64-2.52a33,33,0,0,1,8.55-8.48,34.73,34.73,0,0,1,11-4.75,29.49,29.49,0,0,1,11.71-.59l0,.57a80.92,80.92,0,0,0-10.22,4.21,63.56,63.56,0,0,0-9,5.51,49.94,49.94,0,0,0-7.83,6.85l-1.69,2c-.56.68-1,1.43-1.6,2.12a49,49,0,0,0-3,4.49,29.48,29.48,0,0,0-2.4,5,26,26,0,0,0-1.26,5.38c-.56,3.67.15,7.44.38,11.06a50.21,50.21,0,0,1,.27,5.47c.1,1.83.07,3.66.12,5.51s0,3.7,0,5.57a48.53,48.53,0,0,1-.26,5.73Z" transform="translate(0 -17.76)"/><rect class="cls-10" x="1282.94" y="997.97" width="39.86" height="66.19" rx="17.49" transform="translate(2556.51 2103.68) rotate(-177.34)"/><path class="cls-11" d="M1303.28,1016.5a8.38,8.38,0,0,1,5.87,2.35,12.73,12.73,0,0,1,2.07,2.6,15.37,15.37,0,0,1,1.32,3,18.61,18.61,0,0,1-.73,13,14.17,14.17,0,0,1-4.11,5.41,9.91,9.91,0,0,1-3.12,1.76,4.08,4.08,0,0,1-2.3.1,3.38,3.38,0,0,1-1.94-1.5,7.1,7.1,0,0,1-.87-3.51,19.87,19.87,0,0,1,.19-3.2,30.08,30.08,0,0,1,1.51-6c0,2.06-.05,4.1.08,6.1a22.34,22.34,0,0,0,.34,2.9,5.73,5.73,0,0,0,.87,2.3.55.55,0,0,0,.46.26,1.86,1.86,0,0,0,.71-.17,8.34,8.34,0,0,0,2-1.42,12.87,12.87,0,0,0,3-4.37,19.53,19.53,0,0,0,1.22-10.95,13.06,13.06,0,0,0-2.06-5.18A9.19,9.19,0,0,0,1303.28,1016.5Z" transform="translate(0 -17.76)"/><path class="cls-11" d="M1298.63,1024.54a8.17,8.17,0,0,1-1.66-3.6,8.76,8.76,0,0,1,.11-4.06,6.29,6.29,0,0,1,1-2.06,4.46,4.46,0,0,1,2-1.55,4,4,0,0,1,4.19.87,6.09,6.09,0,0,0-2.86,1.45,5.61,5.61,0,0,0-1,2.21c-.26.93-.47,2-.71,3.12A26.24,26.24,0,0,1,1298.63,1024.54Z" transform="translate(0 -17.76)"/><path class="cls-9" d="M1353.88,969.49a31.84,31.84,0,0,1,5.51,9,43.56,43.56,0,0,1,1.75,5,26.63,26.63,0,0,1,1,5.16c.32,3.52-.07,7.09,0,10.54s.37,6.89.65,10.42l.14,2.66c0,.89,0,1.78,0,2.68a36,36,0,0,1-.7,5.31,51,51,0,0,1-1.28,5.26,35.28,35.28,0,0,1-2.08,5,37,37,0,0,1-2.83,4.63,36.4,36.4,0,0,1-3.51,4.11c-.63.64-1.28,1.27-1.94,1.86s-1.4,1.13-2.11,1.66a17.52,17.52,0,0,1-2.21,1.5c-.76.45-1.54.89-2.33,1.29l-.37-.42c3.86-5.9,7.35-11.32,9.86-17.26.72-1.43,1.27-2.94,1.95-4.4s1.21-3,1.68-4.56c.27-.77.51-1.54.71-2.34s.47-1.57.68-2.37.43-1.6.68-2.4l.61-2.44a28.18,28.18,0,0,0,.61-10.06c-.4-3.37-1.8-6.57-2.8-9.75-.51-1.6-.92-3.2-1.27-4.83s-.73-3.25-1.07-4.89c-.71-3.28-1.37-6.59-1.82-10.11Z" transform="translate(0 -17.76)"/><path class="cls-9" d="M1201,803c-4.13,1-8.08,2.17-12,3.43-1.93.65-3.86,1.27-5.76,2-.48.16-1,.35-1.43.5s-.94.38-1.42.55c-.94.36-1.92.65-2.88,1-1.91.7-3.92,1.24-5.84,2-1,.37-2,.74-2.89,1.18s-1.85,1-2.75,1.47c-.44.27-.9.53-1.33.81s-.85.6-1.26.92q-1.23.95-2.43,1.95a21.85,21.85,0,0,0-2.22,2.19c-.73.74-1.41,1.53-2.11,2.29-1.33,1.59-2.52,3.31-3.84,4.87s-2.81,3.28-4.25,4.89-3.13,3.07-4.83,4.49a34.86,34.86,0,0,1-5.54,3.77,26.66,26.66,0,0,1-13.17,3.58c-4.61-.06-9.37-1.65-12.28-5.12l.37-.42a19.38,19.38,0,0,0,11.57,1.11,26.63,26.63,0,0,0,5.42-1.7l.66-.26.64-.34,1.28-.65c.42-.23.86-.4,1.28-.66l1.24-.78c1.7-.92,3.26-2.14,4.93-3.21.85-.52,1.58-1.22,2.38-1.82s1.6-1.22,2.38-1.87c1.51-1.38,3-2.74,4.59-4.09q1.24-1.06,2.52-2.07c.85-.66,1.66-1.37,2.55-2,1.8-1.2,3.5-2.49,5.25-3.7.89-.6,1.76-1.21,2.61-1.84l1.27-1c.45-.29.88-.6,1.31-.9.87-.62,1.72-1.27,2.56-2s1.74-1.25,2.59-1.92a47,47,0,0,1,5.44-3.6,29.53,29.53,0,0,1,3-1.39c.49-.22,1-.41,1.51-.61l1.56-.49a44.75,44.75,0,0,1,6.35-1.51,39.28,39.28,0,0,1,6.5-.49,25,25,0,0,1,6.49.78Z" transform="translate(0 -17.76)"/><path class="cls-7" d="M1086.89,859.25a54.36,54.36,0,0,0,9,1.9,63.94,63.94,0,0,0,9.16.58,59.62,59.62,0,0,0,18-2.85,53.93,53.93,0,0,0,8.43-3.42c1.38-.63,2.68-1.43,4-2.15l1.94-1.22c.65-.39,1.3-.8,1.91-1.25a91.13,91.13,0,0,0,14-12.05,63,63,0,0,1-12.93,13.47c-1.22,1-2.55,1.84-3.85,2.73s-2.67,1.67-4.09,2.38a53,53,0,0,1-27.39,6.12A49,49,0,0,1,1086.89,859.25Z" transform="translate(0 -17.76)"/><path class="cls-7" d="M1062.34,977.08a16.69,16.69,0,0,0,3.5-4.79,27.79,27.79,0,0,0,2.1-5.48,38.59,38.59,0,0,0,1.13-5.76l.31-2.93.08-3a24.36,24.36,0,0,0,0-3l-.09-3c-.18-2-.33-4-.54-5.94s-.48-4-.8-5.95-.66-4-.9-6c.72,1.89,1.35,3.82,2,5.75s1,3.93,1.45,5.91.62,4,.94,6.05l.16,3.07a26.18,26.18,0,0,1,.06,3.07,36.38,36.38,0,0,1-2.11,12.15,23.93,23.93,0,0,1-2.83,5.51A13.72,13.72,0,0,1,1062.34,977.08Z" transform="translate(0 -17.76)"/><path class="cls-7" d="M1140.3,974.17a56.34,56.34,0,0,1-11.08,8.44,60.93,60.93,0,0,1-12.77,5.79,48.72,48.72,0,0,1-13.86,2.36,36.46,36.46,0,0,1-13.76-2.32,53.38,53.38,0,0,0,20.37-.46,57.19,57.19,0,0,0,6.57-1.73,86,86,0,0,0,12.6-5.18A116.7,116.7,0,0,0,1140.3,974.17Z" transform="translate(0 -17.76)"/><path class="cls-7" d="M1203,865.85c-8.35,3.75-15.06,10.15-20.24,17.45a96.56,96.56,0,0,0-7,11.55c-2.09,4-4,8.09-5.83,12.24-3.7,8.27-7.05,16.75-11.13,24.94a97,97,0,0,1-6.88,11.88,46.7,46.7,0,0,1-9.24,10.09,51.14,51.14,0,0,0,8.31-10.7,114,114,0,0,0,6.22-12c3.71-8.25,7-16.74,10.66-25.09s7.82-16.61,13.46-23.92a54.81,54.81,0,0,1,9.63-9.86A41.63,41.63,0,0,1,1203,865.85Z" transform="translate(0 -17.76)"/><path class="cls-7" d="M1203,865.85c2-1,4-1.82,6.1-2.7,2.13-.62,4.26-1.35,6.46-1.81,1.11-.19,2.22-.37,3.34-.53.55-.07,1.11-.2,1.67-.22l1.7-.06c1.13,0,2.27-.1,3.4,0l3.39.35a12.16,12.16,0,0,1,1.68.33l1.66.41a18.74,18.74,0,0,1,3.25,1.07c.53.21,1.07.4,1.59.63l1.51.81,1.5.8,1.4,1a25.28,25.28,0,0,1,8.68,10.14,32.71,32.71,0,0,0-9.64-8.66,34.08,34.08,0,0,0-12-4.28l-3.18-.38c-1.07-.11-2.15,0-3.22-.05l-1.61,0c-.54,0-1.08.1-1.61.13-1.08.12-2.16.22-3.24.31s-2.13.39-3.21.55l-3.23.58C1207.25,864.78,1205.13,865.36,1203,865.85Z" transform="translate(0 -17.76)"/><path class="cls-7" d="M1357.51,1003.65a101.56,101.56,0,0,0-1-13.13,52.42,52.42,0,0,0-3.71-12.41c-.82-2-1.7-4.06-2.5-6.15a66.92,66.92,0,0,1-2.08-6.38,61.55,61.55,0,0,1-2.08-13.18c1.16,4.29,2.29,8.54,3.76,12.66s3.26,8.09,5,12.19a54.52,54.52,0,0,1,2.2,6.38l.41,1.65c.13.55.21,1.11.32,1.67s.21,1.11.28,1.67l.15,1.69A50.45,50.45,0,0,1,1357.51,1003.65Z" transform="translate(0 -17.76)"/><path class="cls-7" d="M1319.75,998.71a61.25,61.25,0,0,1-17.3-11.2,72.7,72.7,0,0,1-13.31-15.93,74.14,74.14,0,0,1-8.33-19,78.82,78.82,0,0,1-2.91-20.43,116,116,0,0,0,4.59,19.91,87.24,87.24,0,0,0,3.77,9.42c.68,1.55,1.48,3,2.24,4.54s1.64,3,2.56,4.37a84.33,84.33,0,0,0,12.59,15.84,87.31,87.31,0,0,0,7.64,6.73A65.23,65.23,0,0,0,1319.75,998.71Z" transform="translate(0 -17.76)"/><path class="cls-7" d="M1251.67,848.72a24.26,24.26,0,0,1,.32-10.2,12.41,12.41,0,0,1,2.41-4.83,7.59,7.59,0,0,1,5-2.63,12.44,12.44,0,0,1,5.4.87,24.32,24.32,0,0,1,4.57,2.51,39.14,39.14,0,0,1,7.51,6.84c-2.82-1.86-5.56-3.76-8.43-5.34s-5.93-2.92-8.82-2.63a5.55,5.55,0,0,0-3.69,1.81,11.94,11.94,0,0,0-2.32,3.94A41,41,0,0,0,1251.67,848.72Z" transform="translate(0 -17.76)"/><path class="cls-7" d="M1247.51,857a35.51,35.51,0,0,0-5.88-9,42.72,42.72,0,0,0-8-7.12,51.81,51.81,0,0,0-19.6-8.07,58.27,58.27,0,0,0-21.27-.37,60.86,60.86,0,0,0-10.41,2.72,51.71,51.71,0,0,0-9.8,4.59,49.37,49.37,0,0,1,19.88-9,54,54,0,0,1,22-.13,56.62,56.62,0,0,1,10.62,3.25,45.53,45.53,0,0,1,9.59,5.59A36.07,36.07,0,0,1,1247.51,857Z" transform="translate(0 -17.76)"/><path class="cls-7" d="M1088.37,944.71a14.33,14.33,0,0,1-6.18-7.83c-.25-.82-.47-1.65-.67-2.49l-.33-2.56a26.48,26.48,0,0,1,.28-5.12,15,15,0,0,1,.49-2.49l.67-2.45c.26-.8.61-1.57.92-2.35a23.49,23.49,0,0,1,1-2.3c.8-1.47,1.57-3,2.47-4.34s1.92-2.71,3-4c-.61,1.55-1.29,3-2,4.52s-1.19,3-1.83,4.52-1,3-1.49,4.57a36.1,36.1,0,0,0-1,4.66,23.44,23.44,0,0,0,.18,9.33A18,18,0,0,0,1088.37,944.71Z" transform="translate(0 -17.76)"/><path class="cls-7" d="M1099.69,946.74a8.46,8.46,0,0,1-4.53.39,8.65,8.65,0,0,1-4.28-2.11,10.86,10.86,0,0,1-2.65-4,22.5,22.5,0,0,1-.67-2.26c-.12-.76-.2-1.53-.3-2.28l2-.14c0,1.4-.14,2.79-.28,4.19a40.49,40.49,0,0,1-.61,4.18,37.89,37.89,0,0,1-.72-4.17q-.27-2.09-.39-4.17l2-.13c.15.68.31,1.35.44,2s.37,1.31.63,1.93a12,12,0,0,0,2,3.37,9.27,9.27,0,0,0,3.23,2.24A13.18,13.18,0,0,0,1099.69,946.74Z" transform="translate(0 -17.76)"/><path class="cls-7" d="M1125,884.28a99.27,99.27,0,0,0-12.51,12.86,72.37,72.37,0,0,0-9.5,15,49.74,49.74,0,0,0-3.11,8.25c-.44,1.41-.72,2.85-1.05,4.29s-.5,2.9-.61,4.38-.16,2.94-.24,4.42,0,3,.2,4.44a60,60,0,0,0,1.47,8.86,42.77,42.77,0,0,1-2.57-8.71c-.33-1.49-.4-3-.58-4.54s-.14-3.06,0-4.6a41.28,41.28,0,0,1,1.36-9.1,49.06,49.06,0,0,1,3.12-8.65,61.43,61.43,0,0,1,4.55-8A68.3,68.3,0,0,1,1125,884.28Z" transform="translate(0 -17.76)"/><path class="cls-7" d="M1174.69,892.6a171.11,171.11,0,0,1-13.25,22.94,158.86,158.86,0,0,1-16.64,20.71,116.45,116.45,0,0,1-9.8,9,80,80,0,0,1-11.06,7.52,50.62,50.62,0,0,1-12.42,4.93,36.9,36.9,0,0,1-13.23.8,39.46,39.46,0,0,0,12.94-1.87,53.75,53.75,0,0,0,11.83-5.39,101.79,101.79,0,0,0,20.11-16.6c3.07-3.11,5.93-6.43,8.74-9.79s5.48-6.84,8.1-10.37,5.13-7.13,7.57-10.78S1172.4,896.37,1174.69,892.6Z" transform="translate(0 -17.76)"/><path class="cls-7" d="M1333.63,1043.49c-1.18,2.16-2.61,4.12-3.91,6.1a49.18,49.18,0,0,0-3.51,6.05,24.22,24.22,0,0,0-2.1,6.5,26.3,26.3,0,0,0-.11,7,14.58,14.58,0,0,1-1.65-7.21,18.13,18.13,0,0,1,1.82-7.31,27.15,27.15,0,0,1,4.16-6.15A44.19,44.19,0,0,1,1333.63,1043.49Z" transform="translate(0 -17.76)"/><path class="cls-7" d="M1339.21,926a247,247,0,0,0-.27,59.77c.37,2.46.68,4.94,1.07,7.39s.85,4.89,1.33,7.36.92,5,1.24,7.47.61,5,.71,7.56a43.24,43.24,0,0,1-1.57,15.16c-1.51,5-4.66,9.13-8.09,12.74a60,60,0,0,0,4-6.29,29.59,29.59,0,0,0,2.64-6.85,46.92,46.92,0,0,0,.87-14.64,139,139,0,0,0-2-14.73l-1.29-7.44c-.41-2.48-.67-5-1-7.48a203.59,203.59,0,0,1-1-30.13c.07-2.51.27-5,.41-7.52s.42-5,.71-7.5C1337.51,935.93,1338.18,931,1339.21,926Z" transform="translate(0 -17.76)"/><path class="cls-7" d="M1370.09,988.61a14.3,14.3,0,0,1-6.78-1.39,20.66,20.66,0,0,1-5.8-4,23.45,23.45,0,0,1-4.13-5.64,27,27,0,0,1-1.38-3.18,30.22,30.22,0,0,1-.84-3.34c.68.94,1.23,1.92,1.84,2.86l.94,1.37c.31.46.59.93.94,1.36a43.71,43.71,0,0,0,4.22,4.95A30.58,30.58,0,0,0,1370.09,988.61Z" transform="translate(0 -17.76)"/><path class="cls-7" d="M1286.63,891.79A110.08,110.08,0,0,1,1298.09,904a79,79,0,0,1,9.23,14.07,55.3,55.3,0,0,1,5.29,16,51,51,0,0,1-.07,16.76,74.85,74.85,0,0,0-1.66-16.43,66.59,66.59,0,0,0-5.57-15.36,107.24,107.24,0,0,0-8.62-14C1293.49,900.54,1290.05,896.19,1286.63,891.79Z" transform="translate(0 -17.76)"/><path class="cls-7" d="M1252,862.82a48.2,48.2,0,0,1,2-9.06,25.15,25.15,0,0,1,1.86-4.31,8.15,8.15,0,0,1,3.4-3.51,4.31,4.31,0,0,1,2.63-.27,6.53,6.53,0,0,1,2.33,1.07,20.38,20.38,0,0,1,3.56,3.25,23,23,0,0,1,4.36,8.51c.88,3,1.51,6,2.25,9,.37,1.48.78,2.93,1.26,4.37s1,2.86,1.56,4.25a67.8,67.8,0,0,0,9.44,15.66,47.72,47.72,0,0,1-11.24-14.86,48.76,48.76,0,0,1-3.17-8.86c-.84-3-1.36-6.07-2.18-9a23.12,23.12,0,0,0-3.62-8.05,20,20,0,0,0-3-3.22,3.73,3.73,0,0,0-3.71-.82,7.27,7.27,0,0,0-3.08,2.91,24.09,24.09,0,0,0-2,4.06A58,58,0,0,0,1252,862.82Z" transform="translate(0 -17.76)"/><path class="cls-7" d="M1302.15,851.06a21.85,21.85,0,0,0,3.21,5.34c.62.82,1.31,1.59,2,2.36s1.39,1.52,2.17,2.2a58.62,58.62,0,0,0,9.85,7.43c1.71,1.17,3.58,2.08,5.37,3.11s3.72,1.86,5.57,2.82l5.71,2.57c1.94.81,3.88,1.61,5.8,2.51-2.07-.42-4.12-.94-6.17-1.46s-4-1.3-6-2-3.93-1.63-5.85-2.53-3.81-1.93-5.59-3.11c-.89-.59-1.82-1.12-2.68-1.77l-2.57-1.92a45.47,45.47,0,0,1-4.67-4.43c-.74-.77-1.38-1.65-2-2.48s-1.24-1.76-1.77-2.69A17.23,17.23,0,0,1,1302.15,851.06Z" transform="translate(0 -17.76)"/><path class="cls-7" d="M1361.36,1597.5s14.33-4.65,24.41-13c0,0-22.15-5.51-9.73-38.78,0,0-32.09-99.3-9.69-186.52C1366.35,1359.19,1335,1493.17,1361.36,1597.5Z" transform="translate(0 -17.76)"/><path class="cls-7" d="M1063.82,1487.83l0-.1c-.85-3.12-23.66-88-20.46-172.88,0,0-15.69,40.8,6.36,128a118.15,118.15,0,0,1-6.25,76l-6.33,14.6Z" transform="translate(0 -17.76)"/><path class="cls-7" d="M1391.86,1584.57s44.16-7.07,85.59,18.8C1477.45,1603.37,1420.39,1554.1,1391.86,1584.57Z" transform="translate(0 -17.76)"/><path class="cls-7" d="M1195.84,1669.33s8.42,33.4-6.23,65.51H1162.3C1175.66,1732.49,1203.61,1710.53,1195.84,1669.33Z" transform="translate(0 -17.76)"/><path class="cls-7" d="M1092.79,1638.28s-9.2,6.74-15.46,0l-4.1-97.45Z" transform="translate(0 -17.76)"/><path class="cls-7" d="M999.54,1495.6a104.51,104.51,0,0,0-12.88-9.66q-3.37-2.18-6.87-4.13l-3.52-1.92-3.6-1.77c-1.18-.63-2.43-1.12-3.64-1.68s-2.44-1.1-3.69-1.57l-3.72-1.49-3.79-1.33c-2.52-.94-5.11-1.62-7.68-2.42-1.27-.44-2.6-.69-3.9-1.05s-2.61-.68-3.91-1c1.34.15,2.68.32,4,.5s2.7.33,4,.64c2.64.58,5.32,1.06,7.91,1.89a93.81,93.81,0,0,1,15.25,5.75,90.26,90.26,0,0,1,14,8.34A64.34,64.34,0,0,1,999.54,1495.6Z" transform="translate(0 -17.76)"/><path class="cls-7" d="M881.78,1554.1a28.35,28.35,0,0,1,12.2,1.74,39.58,39.58,0,0,1,10.89,6.05,48.37,48.37,0,0,1,4.54,4.28c.68.79,1.45,1.5,2.06,2.34s1.25,1.65,1.86,2.49a22.25,22.25,0,0,1,1.69,2.6l1.56,2.66c.91,1.85,1.74,3.74,2.52,5.62-1.18-1.68-2.23-3.43-3.36-5.11l-1.81-2.44a26.62,26.62,0,0,0-1.84-2.39c-.66-.76-1.32-1.52-2-2.29s-1.39-1.44-2.08-2.16a51.12,51.12,0,0,0-4.43-4,47.79,47.79,0,0,0-10.21-6.17A39.21,39.21,0,0,0,881.78,1554.1Z" transform="translate(0 -17.76)"/><path class="cls-7" d="M840.69,1569.08a93.06,93.06,0,0,1,20.37-2.71,87.44,87.44,0,0,1,20.58,1.79,71,71,0,0,1,10,3,57.17,57.17,0,0,1,9.26,4.71,46.56,46.56,0,0,1,8,6.57l1.73,1.94c.58.63,1,1.36,1.59,2a41.84,41.84,0,0,1,2.82,4.3,49.25,49.25,0,0,0-15-13.51,62.66,62.66,0,0,0-9.13-4.27,73.66,73.66,0,0,0-9.7-2.79,86.32,86.32,0,0,0-10-1.58c-3.36-.37-6.75-.53-10.14-.61s-6.79,0-10.19.21S844.08,1568.62,840.69,1569.08Z" transform="translate(0 -17.76)"/><path class="cls-7" d="M1184.09,1633.15a117.63,117.63,0,0,1,10.48,24.27,123.17,123.17,0,0,1,5.17,26,101.92,101.92,0,0,1,.28,13.31,87.45,87.45,0,0,1-1.5,13.21,81.74,81.74,0,0,1-8.91,24.88,98.39,98.39,0,0,0,4.53-12.36l.48-1.57.39-1.59c.26-1.06.55-2.11.79-3.18.41-2.15.9-4.27,1.18-6.44s.55-4.33.8-6.49.35-4.35.35-6.53a105.63,105.63,0,0,0-.39-13.07,123.11,123.11,0,0,0-1.73-13c-.78-4.3-1.79-8.56-2.93-12.78s-2.48-8.4-4-12.52A130,130,0,0,0,1184.09,1633.15Z" transform="translate(0 -17.76)"/><path class="cls-7" d="M1391.86,1584.57a132,132,0,0,1,35.69-.49,120.21,120.21,0,0,1,17.62,3.41,104.75,104.75,0,0,1,16.86,6.26c1.34.68,2.71,1.29,4,2L1470,1598a87.31,87.31,0,0,1,7.4,5.15,73.33,73.33,0,0,1,12.81,12.64l1.41,1.74,1.29,1.86c.83,1.24,1.75,2.43,2.51,3.72a80.32,80.32,0,0,1,4.26,7.91,91.89,91.89,0,0,1,6,16.83l-1.5-4.21a42.77,42.77,0,0,0-1.58-4.16l-1.77-4.07a18.28,18.28,0,0,0-1-2l-1-2a84.67,84.67,0,0,0-4.49-7.63c-.8-1.23-1.73-2.39-2.58-3.59l-1.31-1.78-1.43-1.68a75.48,75.48,0,0,0-12.76-12.12c-2.3-1.82-4.79-3.39-7.26-5l-3.84-2.18c-1.27-.73-2.63-1.31-3.94-2a116.38,116.38,0,0,0-33.82-9.93,158.32,158.32,0,0,0-17.68-1.53A141.06,141.06,0,0,0,1391.86,1584.57Z" transform="translate(0 -17.76)"/><path class="cls-7" d="M1451.6,1636.24a163.09,163.09,0,0,0-9.4-13.59,137,137,0,0,0-10.72-12.45c-1.89-2-3.89-3.85-5.94-5.65s-4.19-3.51-6.37-5.15a77.39,77.39,0,0,0-14.21-8.29,53.43,53.43,0,0,1,7.8,2.91,59.13,59.13,0,0,1,7.29,4.09,77,77,0,0,1,12.86,10.69c1.93,2,3.8,4.09,5.56,6.24s3.43,4.39,5,6.69A87.59,87.59,0,0,1,1451.6,1636.24Z" transform="translate(0 -17.76)"/><path class="cls-7" d="M1380.65,1537a124.72,124.72,0,0,1,13.68-23.85,129.57,129.57,0,0,1,18.38-20.57,107.83,107.83,0,0,1,10.84-8.59c1.87-1.35,3.86-2.53,5.81-3.77s4-2.32,6.08-3.3a85.31,85.31,0,0,1,26.19-8.33,103.66,103.66,0,0,0-13.09,4c-.53.2-1.07.38-1.6.59l-1.57.67c-1,.46-2.1.88-3.12,1.36-2,1-4.12,1.94-6.09,3.07s-3.93,2.27-5.88,3.42-3.82,2.45-5.64,3.81-3.64,2.71-5.43,4.1-3.5,2.89-5.17,4.44a149,149,0,0,0-18.46,20q-4.17,5.42-7.93,11.14A136.78,136.78,0,0,0,1380.65,1537Z" transform="translate(0 -17.76)"/><path class="cls-7" d="M1385.77,1584.49a76.26,76.26,0,0,1-19.33,11.88,93.43,93.43,0,0,1-21.85,6.54,94.5,94.5,0,0,1-22.78,1.07,96.24,96.24,0,0,1-22.28-4.39,134.6,134.6,0,0,0,22.37,2.83,110.5,110.5,0,0,0,11.22-.18c1.87-.08,3.73-.31,5.59-.48s3.71-.48,5.55-.82a108.21,108.21,0,0,0,21.58-6,111,111,0,0,0,10.25-4.65A79.18,79.18,0,0,0,1385.77,1584.49Z" transform="translate(0 -17.76)"/><path class="cls-7" d="M1304.14,1604.6c3.12,2.67,6.3,5.25,9.6,7.68s6.61,4.81,10,7.07a182.05,182.05,0,0,0,21.22,12.16c3.65,1.8,7.39,3.42,11.19,4.88a120,120,0,0,0,11.58,3.87,110.17,110.17,0,0,0,24.12,4c-2,0-4.11.16-6.16,0-1,0-2.06-.06-3.09-.14l-3.08-.26a92,92,0,0,1-12.19-2.15,115.32,115.32,0,0,1-23.25-8.46,146.17,146.17,0,0,1-21.22-12.68A134.56,134.56,0,0,1,1304.14,1604.6Z" transform="translate(0 -17.76)"/><path class="cls-7" d="M1295.4,1598.73a29.52,29.52,0,0,0-7.81-1.7,22.94,22.94,0,0,0-7.79.85,26.1,26.1,0,0,0-7.06,3.34c-.54.38-1.09.74-1.62,1.13l-1.54,1.23-3,2.68a19.57,19.57,0,0,1-7.43,3.82,21.58,21.58,0,0,1-8.23.48c-2.69-.42-5.34-.85-8-1.18s-5.38-.56-8.07-.8c-10.77-.8-21.56-1.41-32.26-.73a60.55,60.55,0,0,0-15.67,2.7,17.86,17.86,0,0,0-6.73,3.89l-.68.69-.58.78a8.1,8.1,0,0,0-1,1.69,3.72,3.72,0,0,0-.35.91l-.29,1c-.14.65-.2,1.32-.3,2h-.2a10.6,10.6,0,0,1,2.64-7.7,18.59,18.59,0,0,1,6.9-4.66,53.9,53.9,0,0,1,16.1-3.35,123.58,123.58,0,0,1,16.33,0c5.43.3,10.83.92,16.19,1.71s10.72,1.68,16.06,2.42a18.41,18.41,0,0,0,14.47-4.9c3.7-3.87,8.5-7.32,14-8.62a21.66,21.66,0,0,1,8.29-.42,25,25,0,0,1,7.78,2.58Z" transform="translate(0 -17.76)"/><path class="cls-7" d="M1092.79,1638.28q10.49-2.31,21-4.41l21-4.15,21-4.1,21-4.18c-6.82,2.18-13.74,4-20.7,5.7s-14,3.14-21,4.54-14.06,2.61-21.13,3.72S1099.9,1637.51,1092.79,1638.28Z" transform="translate(0 -17.76)"/><path class="cls-7" d="M1376,1545.71a359.92,359.92,0,0,1-11.61-45.79c-1.51-7.74-2.67-15.54-3.71-23.36s-1.82-15.67-2.39-23.53c-.29-3.94-.43-7.88-.61-11.82s-.23-7.89-.2-11.83c0-7.89.2-15.79.85-23.65s1.58-15.7,2.82-23.49l1.07-5.81c.36-1.94.82-3.86,1.23-5.78.76-3.87,1.88-7.65,2.86-11.46a283.66,283.66,0,0,0-6.44,46.64l-.18,2.94-.09,2.94-.22,5.88c-.06,3.93-.15,7.85-.07,11.78s.17,7.84.28,11.77.38,7.84.69,11.75a457,457,0,0,0,5.62,46.76q1.95,11.63,4.49,23.14T1376,1545.71Z" transform="translate(0 -17.76)"/><path class="cls-7" d="M1385.77,1584.49a15.55,15.55,0,0,1-5.31-2.09,17.73,17.73,0,0,1-4.4-3.8,18.94,18.94,0,0,1-3-5,24.26,24.26,0,0,1-1.5-5.66,33.35,33.35,0,0,1,.67-11.5,47.08,47.08,0,0,1,3.84-10.7c-.91,3.67-1.77,7.31-2.3,11-.14.91-.21,1.84-.33,2.75s-.15,1.83-.15,2.75a31.91,31.91,0,0,0,.25,5.45,22.22,22.22,0,0,0,3.77,10,20.73,20.73,0,0,0,8.49,6.84Z" transform="translate(0 -17.76)"/><path class="cls-7" d="M1428,1237.94a185.37,185.37,0,0,0-21.19,24.88c-3.2,4.41-6.2,9-9.08,13.57l-4.19,7c-1.32,2.38-2.58,4.79-3.87,7.19s-2.46,4.85-3.65,7.3l-1.76,3.68c-.28.62-.59,1.22-.86,1.85l-.79,1.88-3.15,7.53c-.56,1.25-1,2.54-1.44,3.82l-1.38,3.85c-2,5.09-3.38,10.35-5,15.58-.87,2.59-1.39,5.27-2.05,7.92s-1.27,5.32-1.93,8c.45-2.69.92-5.39,1.41-8.08s.89-5.41,1.62-8.06l2-8,.51-2c.17-.66.42-1.31.62-2l1.28-3.91a194.55,194.55,0,0,1,30.39-58.1c3.3-4.39,6.88-8.56,10.56-12.62A129.73,129.73,0,0,1,1428,1237.94Z" transform="translate(0 -17.76)"/><path class="cls-7" d="M1063.82,1487.83c-2.08-7-3.84-14.06-5.56-21.14-.84-3.54-1.6-7.11-2.4-10.66l-2.22-10.71c-2.85-14.3-5.05-28.72-6.93-43.18s-3-29-3.68-43.58a424.84,424.84,0,0,1,.3-43.71q.06,5.48.06,10.93v5.45l.2,5.46.33,10.9.64,10.89c.18,3.63.5,7.25.78,10.88s.52,7.25.9,10.86l1.12,10.85c.36,3.62.89,7.22,1.32,10.83,1.72,14.44,3.94,28.81,6.45,43.14l1.95,10.74,2.12,10.7C1060.61,1473.63,1062.17,1480.73,1063.82,1487.83Z" transform="translate(0 -17.76)"/><path class="cls-7" d="M1074.47,1502.75c3.69,6.67,7.77,13.11,12.1,19.38s8.87,12.37,13.7,18.24,9.84,11.59,15.2,17a212,212,0,0,0,16.83,15.31,158.17,158.17,0,0,0,38.64,23.7,130.41,130.41,0,0,0,44.19,10.22l-5.72-.17c-1,0-1.91-.05-2.86-.12l-2.85-.3c-1.9-.22-3.81-.36-5.7-.64l-5.66-1c-1.89-.28-3.73-.85-5.59-1.28s-3.74-.88-5.55-1.51l-5.48-1.74-5.37-2c-1.81-.64-3.54-1.46-5.29-2.24s-3.52-1.55-5.19-2.48l-5.1-2.68-5-2.92a173.11,173.11,0,0,1-18.78-13.25,214.17,214.17,0,0,1-32-32.88q-7.08-9-13.32-18.66A200.56,200.56,0,0,1,1074.47,1502.75Z" transform="translate(0 -17.76)"/><path class="cls-7" d="M1082.15,1493.38a47.57,47.57,0,0,0,7.26,6l1.95,1.32c.65.44,1.35.81,2,1.22s1.33.82,2,1.18l2.09,1.08a80.77,80.77,0,0,0,17.62,6.33l4.6.93,1.15.23,1.17.14,2.33.29,2.33.3,1.17.15,1.18.05,4.7.26a46.42,46.42,0,0,0,4.72,0l4.73,0c3.15-.15,6.3-.48,9.48-.62-1.56.29-3.12.57-4.69.83s-3.13.57-4.71.76l-4.77.38a42.36,42.36,0,0,1-4.78.2,76.71,76.71,0,0,1-9.58-.44l-2.38-.26-1.2-.13-1.18-.23-4.72-.91a69.51,69.51,0,0,1-17.9-6.9A47.91,47.91,0,0,1,1082.15,1493.38Z" transform="translate(0 -17.76)"/><path class="cls-7" d="M1037.11,1466.35a187.17,187.17,0,0,1-20.54-18.26,228.81,228.81,0,0,1-18.05-20.79c-1.37-1.84-2.81-3.63-4.11-5.53l-3.94-5.65c-1.29-1.9-2.46-3.88-3.69-5.82l-1.83-2.92c-.59-1-1.12-2-1.69-3l-3.33-6-3-6.2-1.46-3.12-1.28-3.19q-1.28-3.19-2.51-6.4c1,2.06,2,4.11,3,6.18l1.48,3.09,1.65,3,3.25,6,3.53,5.86a243.81,243.81,0,0,0,15.5,22.49q8.29,10.86,17.58,20.94l4.69,5c1.6,1.62,3.18,3.28,4.8,4.88C1030.38,1460.15,1033.71,1463.28,1037.11,1466.35Z" transform="translate(0 -17.76)"/><path class="cls-7" d="M1009.23,1425.37A135,135,0,0,1,996,1407.44a132.83,132.83,0,0,1-10.23-19.84,98.77,98.77,0,0,1-3.65-10.59,73.3,73.3,0,0,1-2.28-11,55.94,55.94,0,0,1-.38-11.2,46.09,46.09,0,0,1,2.14-10.94,57.29,57.29,0,0,0-.21,21.91,81.67,81.67,0,0,0,2.54,10.68,105.4,105.4,0,0,0,3.69,10.36,169.73,169.73,0,0,0,9.72,19.81q2.73,4.8,5.7,9.49C1005,1419.28,1007.1,1422.34,1009.23,1425.37Z" transform="translate(0 -17.76)"/><path class="cls-7" d="M1043,1307.43c-1-4.65-1.77-9.36-2.35-14.09s-1-9.48-1.23-14.24-.3-9.53-.06-14.31a86.87,86.87,0,0,1,1.72-14.2c-.19,4.77-.21,9.5-.16,14.23,0,1.18.07,2.36.08,3.55l.12,3.54c.06,2.37.18,4.73.3,7.1.2,4.73.51,9.45.78,14.19S1042.73,1302.67,1043,1307.43Z" transform="translate(0 -17.76)"/><rect class="cls-3" x="1236.94" y="1358.6" width="76.44" height="6.16"/><rect class="cls-3" x="1247.15" y="1369.28" width="56.02" height="90.25"/><rect class="cls-6" x="1256.76" y="1432.8" width="36.8" height="1.91"/><circle class="cls-6" cx="1275.16" cy="1385.86" r="8.15" transform="translate(-366.6 2290.75) rotate(-76.72)"/><rect class="cls-6" x="1265.15" y="1398.1" width="20.03" height="23.06"/><rect class="cls-6" x="1260.95" y="1437.12" width="28.42" height="1.91"/><circle class="cls-3" cx="1275.16" cy="1368.1" r="3.4"/><path class="cls-10" d="M1092.79,1638.28s29.48,12.9,25.18,84.4c0,0-13.93,2.22-25.63,7.34-11.4,5-33.58,4.17-58.3-16.29-28.27-23.39-46.3-32-46.3-32s-17.09-3.44-23.43-6.2a46.8,46.8,0,0,1-15.67,9.91s1.21,14.71-10.61,19.43a2.62,2.62,0,0,1-3.56-2.1c-.65-4.91-2.18-14.76-4.81-22.35a8.72,8.72,0,0,1,2.08-9.08,111.69,111.69,0,0,0,10.23-11.3,120.36,120.36,0,0,1-14.06,1.15s-3.75,6.36-14.43,13.38c0,0,5.33,27.77-18.13,28.81a2.63,2.63,0,0,1-2.73-2.89,65.22,65.22,0,0,0-.37-16.86s-1.29,9.67-9.88,13.9a2.61,2.61,0,0,1-3.73-2.11c-.69-6.93-2.61-23.07-6.37-34.74a12.5,12.5,0,0,1,1.84-11.33c5.74-7.66,16.18-22,22.76-33.09a23,23,0,0,1,14.33-10.64c15.78-3.88,46.76-12,66.07-20.42a23.1,23.1,0,0,1,22,1.89s54.29,36.31,72.62,48.06C1076.32,1638,1083.07,1642.12,1092.79,1638.28Z" transform="translate(0 -17.76)"/><path class="cls-10" d="M893.75,1621.35s1.06,16.9-14.09,24c0,0-9.3,2-4.65,12.61,0,0-1.21,10.83-12.93,9.82s-16.78-13.94-16.78-13.94-6.29,1.35-11.73-.81a86.79,86.79,0,0,1-41.12-.72s-4,20.31-22,17.18a3.29,3.29,0,0,1-2.67-4c.9-3.71,2.37-10.37,3.55-18.3,0,0-3.65-1.08-5.16-2.37,0,0,3.33,21.1-14.5,24.61a3.27,3.27,0,0,1-3.77-2.37l-2.39-8.64s-.29,4.17-5.09,6.63a3.26,3.26,0,0,1-4.58-1.82c-1.35-3.84-3.74-10.24-5.5-12.81,0,0,1.86,6.38-2.55,10.4a3.26,3.26,0,0,1-5.22-1.18,96.11,96.11,0,0,0-7.1-14,12.35,12.35,0,0,1-1.84-8,135.88,135.88,0,0,0,.93-21.2,7,7,0,0,1,3.18-6.34l6.07-4a127.49,127.49,0,0,0,1.38-14.27,7.08,7.08,0,0,1,6.35-6.85l22.26-2.22,26-12.17a19.64,19.64,0,0,1,9.58-1.82l20.6,1.28h0a19.74,19.74,0,0,1,17.6-3l8.72,2.71a71.5,71.5,0,0,1,22.21,13,71.44,71.44,0,0,0,14.22,10.08C879.94,1596.68,890.21,1604.81,893.75,1621.35Z" transform="translate(0 -17.76)"/><path class="cls-11" d="M1004.56,1648.29a19.41,19.41,0,0,1-4.13.84c-1.4.15-2.81.27-4.21.31-2.82.08-5.63,0-8.44-.17s-5.61-.49-8.38-.68-5.57-.41-8.36-.51-5.57-.19-8.36-.19a18.59,18.59,0,0,0-4,.24,13.46,13.46,0,0,0-3.76,1.36,16.22,16.22,0,0,0-3.27,2.43l-3.17,2.75c-2.16,1.79-4.28,3.63-6.46,5.39,1.95-2,4-4,6-5.93l3-2.91a17.46,17.46,0,0,1,3.33-2.73,13.45,13.45,0,0,1,4.06-1.65,19.89,19.89,0,0,1,4.31-.37c2.81,0,5.63,0,8.44.11s5.61.33,8.41.6,5.58.64,8.35,1,5.56.51,8.35.58A37,37,0,0,0,1004.56,1648.29Z" transform="translate(0 -17.76)"/><path class="cls-11" d="M984,1615.52a35.51,35.51,0,0,1-8.06,2.37,83.82,83.82,0,0,1-8.33,1.16,127.18,127.18,0,0,1-16.79.38c-5.57-.2-11.14-.53-16.71-.66a19,19,0,0,0-14.45,6.83c-6.52,9-13.08,18.06-19.78,27l-2.53,3.33a23.61,23.61,0,0,0-2.26,3.37,19.5,19.5,0,0,0-2.27,7.73,111.4,111.4,0,0,0-.54,16.65l-.15,0a85.42,85.42,0,0,1-.47-16.77,20.59,20.59,0,0,1,2.15-8.29,22.16,22.16,0,0,1,2.31-3.63l2.48-3.37c3.33-4.48,6.72-8.9,10.11-13.34l5.1-6.63,2.58-3.3c.87-1.09,1.69-2.21,2.65-3.27a20.94,20.94,0,0,1,15.06-6.77c5.59,0,11.17-.09,16.76-.11s11.12.06,16.66-.29c2.77-.15,5.54-.39,8.29-.77a44.26,44.26,0,0,0,8.13-1.74Z" transform="translate(0 -17.76)"/><path class="cls-11" d="M974,1592.89a22.33,22.33,0,0,1-10.93,4.33c-3.91.63-7.84.84-11.73,1.13s-7.78.58-11.65,1-7.71,1.14-11.56,1.91a70.62,70.62,0,0,1,11.39-3.06,107.42,107.42,0,0,1,11.71-1.38c3.92-.27,7.83-.41,11.68-.79A26.56,26.56,0,0,0,974,1592.89Z" transform="translate(0 -17.76)"/><path class="cls-11" d="M779.1,1601.6q-1.15,6.14-2.57,12.19c-.46,2-1,4-1.45,6s-1.06,4-1.48,6a41,41,0,0,0-.88,6.05c-.08,1-.12,2-.13,3s0,2.09-.07,3.13a51,51,0,0,1-1.74,12.36,53.65,53.65,0,0,0,.52-6.18c.08-2.07.08-4.13.05-6.2l-.07-3.09c0-1,0-2.11,0-3.16a41.24,41.24,0,0,1,.83-6.27c1-4.09,2.12-8,3.27-12S777.77,1605.55,779.1,1601.6Z" transform="translate(0 -17.76)"/><path class="cls-11" d="M810,1570.11a50,50,0,0,1-3.45,4.33c-1.22,1.39-2.46,2.75-3.8,4s-2.79,2.42-4.11,3.7-2.54,2.66-3.73,4.07-2.39,2.82-3.66,4.15-2.5,2.7-3.81,4a90.41,90.41,0,0,1-8.32,7.29l-.11-.11c2.29-2.92,4.75-5.65,7.3-8.31,1.27-1.32,2.61-2.58,3.94-3.86s2.68-2.52,4.07-3.73a53.34,53.34,0,0,0,4-3.84c1.24-1.36,2.36-2.83,3.56-4.23s2.53-2.67,3.86-3.94,2.71-2.5,4.18-3.64Z" transform="translate(0 -17.76)"/><path class="cls-11" d="M766.07,1644.78c-.28-3-.74-6-1.23-8.93-.23-1.49-.5-3-.7-4.46s-.35-3-.53-4.5v-.15l0-.09a44.78,44.78,0,0,0,4.2-10.12c.5-1.75,1-3.5,1.4-5.27a24.56,24.56,0,0,0,.68-5.26v-.62l.63-.16a24.09,24.09,0,0,0,3.57-1.25,26.26,26.26,0,0,0,3.4-1.79,27.87,27.87,0,0,0,3.13-2.29,30.23,30.23,0,0,0,2.81-2.74l.12.09a18.5,18.5,0,0,1-2.36,3.24,18.9,18.9,0,0,1-3,2.73,21.3,21.3,0,0,1-3.47,2.14,18.12,18.12,0,0,1-3.88,1.43l.64-.78a22.94,22.94,0,0,1-.94,5.6,41.33,41.33,0,0,1-1.85,5.25c-.72,1.7-1.5,3.37-2.25,5.05s-1.47,3.37-2.16,5.09l0-.24c.35,1.47.72,2.94,1,4.42s.53,3,.71,4.5a35.69,35.69,0,0,1,.11,9.12Z" transform="translate(0 -17.76)"/><path class="cls-11" d="M753.8,1582.83q-2.24,1.34-4.52,2.58a17.6,17.6,0,0,0-8.83,14.27l-.13,2.6c-.09,1.73-.19,3.46-.25,5.19-.13,3.47-.15,6.93-.22,10.4,0,1.74-.07,3.48-.21,5.22-.07.87-.14,1.74-.25,2.61s-.29,1.77-.35,2.54a10.08,10.08,0,0,0,.74,4.77c.59,1.63,1.13,3.29,1.65,5a96.13,96.13,0,0,1,4.13,20.41l-.15,0a206.39,206.39,0,0,0-5.5-20l-1.61-4.92a11.69,11.69,0,0,1-.67-5.42c.13-1,.32-1.74.45-2.59s.26-1.69.37-2.54c.21-1.71.42-3.43.58-5.15.33-3.44.54-6.9.55-10.36,0-1.73,0-3.46-.09-5.19l-.09-2.59a17.26,17.26,0,0,1,.14-2.69,15.85,15.85,0,0,1,4.94-9.36,16.45,16.45,0,0,1,4.46-2.92c1.58-.71,3.18-1.37,4.8-2Z" transform="translate(0 -17.76)"/><path class="cls-11" d="M723.78,1606.11c.18,3.87.18,7.76,0,11.64s-.48,7.75-1,11.61a16.21,16.21,0,0,0-.29,2.77,10.51,10.51,0,0,0,.39,2.67,10.19,10.19,0,0,0,1.07,2.5c.49.81,1,1.66,1.47,2.51a62.23,62.23,0,0,1,4.91,10.57c-1.81-3.44-3.84-6.72-5.91-10l-1.59-2.42a11.3,11.3,0,0,1-1.31-2.79,11.18,11.18,0,0,1-.49-3,16.82,16.82,0,0,1,.27-3c.57-3.8.94-7.65,1.34-11.49Z" transform="translate(0 -17.76)"/><path class="cls-11" d="M833.69,1608.88a82.73,82.73,0,0,0,4.63,14.6l.77,1.74.87,1.69a18,18,0,0,0,.91,1.67c.34.54.6,1.12,1,1.64a48.84,48.84,0,0,0,4.63,6.11,24.91,24.91,0,0,1-5.59-5.45,33.88,33.88,0,0,1-3.93-6.8,41.74,41.74,0,0,1-2.4-7.45A34.35,34.35,0,0,1,833.69,1608.88Z" transform="translate(0 -17.76)"/><path class="cls-11" d="M830.89,1597.2c-2.16,2.44-4.51,4.69-6.9,6.91s-4.93,4.26-7.51,6.26-5.25,3.87-8,5.64-5.61,3.36-8.5,4.89l.41-.63c-.19,2.79-.51,5.52-.92,8.26s-.94,5.45-1.6,8.14-1.4,5.35-2.27,8a67,67,0,0,1-3.15,7.64c.9-2.6,1.79-5.19,2.45-7.86s1.35-5.3,1.84-8,1-5.39,1.32-8.1.67-5.44.83-8.13l0-.44.38-.19c2.86-1.49,5.7-3,8.43-4.76,1.39-.82,2.72-1.73,4.08-2.61s2.68-1.8,4-2.75q4-2.81,7.71-5.9C826.05,1601.53,828.5,1599.4,830.89,1597.2Z" transform="translate(0 -17.76)"/><path class="cls-11" d="M847.25,1635.06a22.34,22.34,0,0,0-2,8.91,33.43,33.43,0,0,0,1.09,9,28.57,28.57,0,0,0,1.38,4.38,14.2,14.2,0,0,0,2.46,3.87,16.56,16.56,0,0,0,7.72,4.8,17.38,17.38,0,0,0,8.93.31,11.31,11.31,0,0,0,7-4.93,10.7,10.7,0,0,0,1.58-4,9.32,9.32,0,0,0-.4-4.33c-.83-2.88-2.58-5.68-3-8.84l.15,0c.88,3,2.8,5.47,3.95,8.5a10.7,10.7,0,0,1,.72,4.88,11.19,11.19,0,0,1-1.66,4.68,11.45,11.45,0,0,1-3.44,3.59,13.23,13.23,0,0,1-4.55,1.88,16.51,16.51,0,0,1-9.52-.87,21.18,21.18,0,0,1-7.8-5.3,20,20,0,0,1-2.79-3.85,31.23,31.23,0,0,1-1.86-4.39,23.82,23.82,0,0,1-1.11-9.45,17.9,17.9,0,0,1,3.09-8.92Z" transform="translate(0 -17.76)"/><path class="cls-11" d="M884.83,1606a16.09,16.09,0,0,1,2.58,10.75,14.94,14.94,0,0,1-1.73,5.44,18,18,0,0,1-1.52,2.43c-.54.77-1.08,1.46-1.59,2.22a67.9,67.9,0,0,0-5.32,9.51c-1.54,3.31-2.94,6.71-4.17,10.19a56,56,0,0,1,3.09-10.66,50.91,50.91,0,0,1,5.17-9.89c.52-.76,1.12-1.51,1.65-2.25a20.13,20.13,0,0,0,1.45-2.22,14.56,14.56,0,0,0,1.81-5,16.42,16.42,0,0,0,.09-5.33A17.75,17.75,0,0,0,884.83,1606Z" transform="translate(0 -17.76)"/><path class="cls-11" d="M896.87,1616.28q-2.52,4.76-5.3,9.37c-1.83,3.11-3.79,6-5.5,9.18s-3.36,6.25-4.93,9.48a66.11,66.11,0,0,1-5.43,9.31c1.6-3.22,2.95-6.52,4.37-9.8a85.28,85.28,0,0,1,4.69-9.73c.89-1.56,1.83-3.11,2.81-4.62l3-4.46C892.6,1622.05,894.69,1619.15,896.87,1616.28Z" transform="translate(0 -17.76)"/><ellipse cx="1298.89" cy="1018.54" rx="42.94" ry="27.32" transform="translate(221.22 2251.04) rotate(-87.34)"/><polygon points="1296.9 1043.67 1307.47 1043.91 1311.45 958.12 1299.88 957.86 1296.9 1043.67"/><ellipse class="cls-6" cx="1309.46" cy="1018.78" rx="42.94" ry="32.49" transform="translate(231.06 2261.82) rotate(-87.34)"/><path d="M1308.56,977.31h-.15a1.51,1.51,0,0,1-1.35-1.64c.09-.89,8.24-89.47-24.46-124.66-9.11-9.8-20.69-14.59-34.4-14.29a1.48,1.48,0,0,1-1.53-1.46,1.5,1.5,0,0,1,1.46-1.54c14.64-.33,26.95,4.79,36.67,15.25,33.62,36.18,25.61,123.3,25.25,127A1.5,1.5,0,0,1,1308.56,977.31Z" transform="translate(0 -17.76)"/><path d="M1315.52,977.9h-.15a1.5,1.5,0,0,1-1.35-1.64c.09-.92,8.26-92.91-26.76-127.18-10.23-10-23.33-14.17-38.92-12.37a1.5,1.5,0,0,1-.35-3c16.54-1.91,30.46,2.53,41.37,13.21,36,35.27,28,125.77,27.65,129.6A1.51,1.51,0,0,1,1315.52,977.9Z" transform="translate(0 -17.76)"/><path class="cls-3" d="M1314.43,1052.93c-.31,0-.62,0-.93,0-6.89-.32-13.2-4.15-17.75-10.79s-6.79-15.2-6.38-24.2,3.47-17.35,8.59-23.5,11.78-9.44,18.68-9.11,13.19,4.16,17.75,10.8,6.79,15.19,6.37,24.2h0c-.42,9-3.47,17.35-8.59,23.5C1327.25,1049.72,1321,1052.93,1314.43,1052.93Zm1.28-66.64c-6.26,0-12.25,3.09-17,8.77-5,6-8,14.12-8.36,22.91s1.8,17.16,6.2,23.58,10.4,10.06,17,10.36,12.92-2.8,17.86-8.74,7.95-14.12,8.36-22.91-1.79-17.16-6.2-23.59-10.4-10-17-10.36Z" transform="translate(0 -17.76)"/><path d="M1231.24,1081.54a107.11,107.11,0,0,1-11.81-.65l.33-3c46.36,5.16,75.77-22.36,76.06-22.64l2.07,2.17C1297.61,1057.69,1272.13,1081.54,1231.24,1081.54Z" transform="translate(0 -17.76)"/><path d="M1231.39,1087.05a112.8,112.8,0,0,1-12.57-.7,7,7,0,1,1,1.55-13.91,98.76,98.76,0,0,0,19.36.25,7,7,0,1,1,1.21,14C1237.78,1086.91,1234.59,1087.05,1231.39,1087.05Z" transform="translate(0 -17.76)"/><ellipse cx="1315.51" cy="1019.41" rx="24.74" ry="18.71" transform="translate(236.2 2268.48) rotate(-87.34)"/><polygon class="cls-13" points="1316.66 976.94 1322.71 976.94 1321.57 1026.37 1314.37 1026.36 1316.66 976.94"/><ellipse class="cls-5" cx="1321.57" cy="1019.41" rx="24.74" ry="18.71" transform="translate(241.96 2274.52) rotate(-87.34)"/><path class="cls-3" d="M1323.12,1036.91h-.47c-7.33-.34-12.93-8.42-12.48-18a20.34,20.34,0,0,1,4.41-12.07c2.67-3.2,6.09-4.88,9.68-4.71,7.33.34,12.93,8.42,12.48,18C1336.3,1029.5,1330.24,1036.91,1323.12,1036.91Zm.66-33.82a11,11,0,0,0-8.43,4.36,19.36,19.36,0,0,0-4.18,11.48c-.42,9.05,4.75,16.66,11.52,17s12.63-6.79,13-15.84-4.75-16.66-11.53-17Z" transform="translate(0 -17.76)"/><rect class="cls-3" x="680.81" y="1692.76" width="341.72" height="24.31"/><path class="cls-5" d="M805.25,1598.33l-11.16-.47h0l-604-25c-16.27-.67-29.56-14.54-31-32.36l-33.37-408.15c-1.65-20.28,12.49-37.94,31-38.71l599.93-25,11.12-.47c17.2-.71,31.91,13.51,33.45,32.36l37.53,459C840.44,1581,824.73,1599.14,805.25,1598.33Z" transform="translate(0 -17.76)"/><path class="cls-5" d="M505.28,1657l32.42-266.29H402.19l-34.63,284.4c-3.83,31.45,18.43,59.4,47.29,59.4H623.61v-4.14s-57-5.29-74.09-10.34C521.84,1711.86,501.45,1688.47,505.28,1657Z" transform="translate(0 -17.76)"/><path d="M805.25,1598.33l-11.16-.47c19.48.79,35.12-16.42,33.37-37.76l-37.52-459c-1.54-18.85-16.25-33.07-33.45-32.35l.11,0,11.12-.47c17.2-.71,31.91,13.51,33.45,32.36l37.53,459C840.44,1581,824.73,1599.14,805.25,1598.33Z" transform="translate(0 -17.76)"/><g class="cls-14"><polygon class="cls-15" points="532.96 1400.08 535.65 1569.42 513.9 1568.52 532.96 1400.08"/></g><circle class="cls-2" cx="459.6" cy="1449.39" r="19.82" transform="translate(-1056.38 1548.94) rotate(-76.83)"/><g class="cls-14"><rect class="cls-15" x="880.05" y="1692.76" width="142.48" height="24.31"/></g><path d="M431.26,1390.84a36.93,36.93,0,0,0-9.3,1.61,33.41,33.41,0,0,0-8.41,4.14,35.38,35.38,0,0,0-3.69,2.87l-1.66,1.66c-.56.53-1,1.17-1.53,1.76a33.9,33.9,0,0,0-4.82,7.94,35.18,35.18,0,0,0-2.37,9l-1.09,9.47c-.72,6.31-1.58,12.61-2.36,18.92l-2.57,18.89-1.3,9.44L391,1486c-1.64,12.6-3,25.23-4.41,37.87s-2.74,25.27-4.22,37.89-2.92,25.25-4.52,37.86q-4.65,37.83-10.14,75.58l-.2,0q3.69-38,8.3-75.8c1.47-12.63,3.08-25.23,4.69-37.84s3.27-25.2,5-37.8,3.37-25.19,4.81-37.82l1.09-9.47,1-9.48,2-19c.75-6.31,1.44-12.63,2.25-18.93l1.21-9.46a36.35,36.35,0,0,1,2.6-9.37,32.29,32.29,0,0,1,5.21-8.18c.55-.6,1-1.24,1.65-1.79l1.76-1.66a37.73,37.73,0,0,1,3.91-2.87,31.64,31.64,0,0,1,8.79-3.91,34.24,34.24,0,0,1,9.49-1.16Z" transform="translate(0 -17.76)"/><path d="M505.18,1657c1.43-14.77,3.05-29.52,4.72-44.27l2.58-22.1c.85-7.37,1.83-14.73,2.74-22.09l3-22.06,1.49-11,1.41-11c1.89-14.72,3.55-29.46,5.18-44.21s3.25-29.5,5-44.23l.65-5.53.32-2.76c.09-.92.12-1.8.18-2.7a31.36,31.36,0,0,0-1.35-10.64,34.58,34.58,0,0,0-4.8-9.58,31.77,31.77,0,0,0-7.72-7.45,33.16,33.16,0,0,0-4.66-2.69l-2.5-1a9.13,9.13,0,0,0-1.28-.42l-1.29-.36-1.3-.36-1.33-.22-1.33-.22-.67-.11-.67,0-2.69-.16-2.78,0-22.26-.18q-22.25-.23-44.51-.68v-.2q22.26-.47,44.51-.68l22.26-.18c7.44-.38,15.42,1.39,21.67,5.84a34,34,0,0,1,8.24,7.91,34.48,34.48,0,0,1,5.1,10.22,33.21,33.21,0,0,1,1.34,11.34c-.07,1-.12,1.91-.22,2.84l-.35,2.76-.69,5.52q-2.79,22.1-5.77,44.14c-2,14.71-3.89,29.42-5.58,44.16l-1.29,11.06-1.2,11.06-2.42,22.13c-.88,7.36-1.69,14.74-2.64,22.1l-2.8,22.08c-1.92,14.71-3.88,29.42-6,44.1Z" transform="translate(0 -17.76)"/><path d="M459.6,1429.57a20.32,20.32,0,0,1,8,39,20.34,20.34,0,0,1-15.91,0,20.3,20.3,0,0,1-12.37-19.2,20.33,20.33,0,0,1,20.32-19.82Zm0,0a19.88,19.88,0,0,0-7.57,1.54,19.27,19.27,0,0,0-11.75,18.28,19.33,19.33,0,0,0,38.64,0,19.27,19.27,0,0,0-11.75-18.28A19.85,19.85,0,0,0,459.6,1429.57Z" transform="translate(0 -17.76)"/><path class="cls-16" d="M756.48,1068.66a30.25,30.25,0,0,1,17,4.37,33.85,33.85,0,0,1,12.17,12.83,37.67,37.67,0,0,1,3.34,8.29,45.69,45.69,0,0,1,1.36,8.82l1.5,17.72,3,35.45c1,11.81,1.9,23.63,2.85,35.45l5.61,70.91c.91,11.82,1.9,23.64,2.9,35.45l3,35.44,6,70.88,5.83,70.9q3,35.44,5.67,70.9l.7,8.87c.2,3,.56,5.9.51,8.9a36.77,36.77,0,0,1-4.47,17.17,33,33,0,0,1-12.27,12.72,31.55,31.55,0,0,1-8.24,3.34,32.16,32.16,0,0,1-8.85.84v-.1a32.16,32.16,0,0,0,8.79-.94,31.43,31.43,0,0,0,8.13-3.41,33,33,0,0,0,12-12.69,36.25,36.25,0,0,0,4.29-16.94c0-2.93-.35-5.88-.57-8.84l-.76-8.86c-2-23.62-4-47.25-5.91-70.88l-5.77-70.9-5.61-70.91L805.84,1298c-.94-11.82-1.87-23.64-2.89-35.45l-6-70.88c-1-11.81-2-23.62-3-35.44l-2.81-35.46L789.8,1103a45,45,0,0,0-1.31-8.73,37,37,0,0,0-3.24-8.18,34.19,34.19,0,0,0-11.9-12.8,30.07,30.07,0,0,0-16.86-4.55Z" transform="translate(0 -17.76)"/><rect x="294.67" y="1428.41" width="2" height="172.19" transform="translate(-1220.25 1785.01) rotate(-89.72)"/><rect class="cls-2" x="365.86" y="1485.62" width="5.3" height="15.14" transform="translate(-1126.46 1836.64) rotate(-89.72)"/><path class="cls-2" d="M334.82,1495.67l-26.11-.12,0-5.3,26.11.13Zm-52.21-.25-26.11-.13,0-5.3,26.11.13Z" transform="translate(0 -17.76)"/><rect class="cls-2" x="220.19" y="1484.91" width="5.3" height="15.14" transform="matrix(0, -1, 1, 0, -1270.71, 1690.26)"/><rect x="649.35" y="1391.22" width="2" height="250.03" transform="translate(-869.04 2141.42) rotate(-89.72)"/><path class="cls-2" d="M984.58,373.37v28.89H200.82V373.37a34.88,34.88,0,0,1,34.88-34.89h714A34.88,34.88,0,0,1,984.58,373.37Z" transform="translate(0 -17.76)"/><circle class="cls-6" cx="592.7" cy="636.77" r="85.14" transform="translate(-276.67 587.85) rotate(-45)"/><polygon class="cls-3" points="578.49 660.12 542.48 626.87 554.19 614.2 578.06 636.24 630.99 583.72 643.14 595.97 578.49 660.12"/><path class="cls-3" d="M985.08,402.76H200.32V373.37A35.42,35.42,0,0,1,235.7,338h714a35.42,35.42,0,0,1,35.38,35.39Zm-783.76-1H984.08V373.37A34.42,34.42,0,0,0,949.7,339h-714a34.42,34.42,0,0,0-34.38,34.39Z" transform="translate(0 -17.76)"/><path class="cls-3" d="M949.7,875.09h-714a35.42,35.42,0,0,1-35.38-35.38V401.76H985.08v438A35.42,35.42,0,0,1,949.7,875.09ZM201.32,402.76v437a34.42,34.42,0,0,0,34.38,34.38h714a34.42,34.42,0,0,0,34.38-34.38V402.76Z" transform="translate(0 -17.76)"/><circle class="cls-6" cx="240.38" cy="370.37" r="9.6" transform="translate(-124.05 103.31) rotate(-22.64)"/><circle class="cls-6" cx="282.4" cy="370.37" r="9.6" transform="translate(-120.81 119.48) rotate(-22.64)"/><circle class="cls-6" cx="324.43" cy="370.37" r="9.6" transform="translate(-166.87 320.12) rotate(-45)"/><circle class="cls-3" cx="987.16" cy="438.97" r="240.79" transform="translate(-21.27 808.83) rotate(-45)"/><path class="cls-6" d="M987.16,214.59a223.63,223.63,0,1,1-87.34,17.63,222.89,222.89,0,0,1,87.34-17.63m0-16.41c-133,0-240.8,107.8-240.8,240.79s107.81,240.79,240.8,240.79S1228,572,1228,439,1120.14,198.18,987.16,198.18Z" transform="translate(0 -17.76)"/><path class="cls-6" d="M987.16,268.66a4.11,4.11,0,0,1-4.11-4.11V225.09a4.11,4.11,0,0,1,8.21,0v39.46A4.11,4.11,0,0,1,987.16,268.66Z" transform="translate(0 -17.76)"/><path class="cls-6" d="M987.16,656.44a4.11,4.11,0,0,1-4.11-4.11V612.87a4.11,4.11,0,0,1,8.21,0v39.46A4.11,4.11,0,0,1,987.16,656.44Z" transform="translate(0 -17.76)"/><path class="cls-6" d="M1200.77,442.82h-39.45a4.11,4.11,0,1,1,0-8.21h39.45a4.11,4.11,0,1,1,0,8.21Z" transform="translate(0 -17.76)"/><path class="cls-6" d="M813,442.82H773.54a4.11,4.11,0,1,1,0-8.21H813a4.11,4.11,0,1,1,0,8.21Z" transform="translate(0 -17.76)"/><path class="cls-6" d="M987.16,224.57a213.73,213.73,0,1,1-83.46,16.85,213,213,0,0,1,83.46-16.85m0-4.1c-120.68,0-218.51,97.83-218.51,218.5s97.83,218.5,218.51,218.5,218.5-97.82,218.5-218.5-97.83-218.5-218.5-218.5Z" transform="translate(0 -17.76)"/><path class="cls-6" d="M1125,304a2.05,2.05,0,0,1-1.45-3.5l14-13.95a2.05,2.05,0,0,1,2.91,2.9l-14,13.95A2,2,0,0,1,1125,304Z" transform="translate(0 -17.76)"/><path class="cls-6" d="M835.38,593.57a2.05,2.05,0,0,1-1.45-3.5l14-14a2.05,2.05,0,0,1,2.9,2.9l-13.95,14A2.05,2.05,0,0,1,835.38,593.57Z" transform="translate(0 -17.76)"/><path class="cls-6" d="M1138.93,593.57a2.05,2.05,0,0,1-1.45-.6l-14-14a2.05,2.05,0,1,1,2.9-2.9l14,14a2.05,2.05,0,0,1,0,2.9A2.08,2.08,0,0,1,1138.93,593.57Z" transform="translate(0 -17.76)"/><path class="cls-6" d="M849.33,304a2,2,0,0,1-1.45-.6l-14-13.95a2.05,2.05,0,0,1,2.9-2.9l13.95,13.95a2.05,2.05,0,0,1-1.45,3.5Z" transform="translate(0 -17.76)"/><path class="cls-6" d="M337.5,623.3H39.14a17.59,17.59,0,0,0-17.58,17.58v132a17.59,17.59,0,0,0,17.58,17.58H64.66c.27,7.44-.83,21.19-11.21,30.1,0,0,28.54-2.31,36.44-30.1H337.5a17.59,17.59,0,0,0,17.58-17.58v-132A17.59,17.59,0,0,0,337.5,623.3Z" transform="translate(0 -17.76)"/><circle class="cls-3" cx="90.18" cy="706.87" r="11.46" transform="translate(-497.35 285.87) rotate(-48.27)"/><circle class="cls-3" cx="155.61" cy="706.87" r="11.46" transform="translate(-467.66 321.13) rotate(-47.03)"/><circle class="cls-3" cx="221.03" cy="706.87" r="11.46" transform="matrix(0.16, -0.99, 0.99, 0.16, -512.18, 793.63)"/><circle class="cls-3" cx="286.45" cy="706.87" r="11.46" transform="translate(-415.93 391.83) rotate(-45)"/><path class="cls-6" d="M1601.82,449.9H1303.46a17.59,17.59,0,0,0-17.58,17.59v132A17.59,17.59,0,0,0,1303.46,617H1329c.27,7.45-.83,21.19-11.21,30.1,0,0,28.53-2.31,36.43-30.1h247.61a17.57,17.57,0,0,0,17.58-17.58v-132A17.58,17.58,0,0,0,1601.82,449.9Z" transform="translate(0 -17.76)"/><circle class="cls-3" cx="1354.51" cy="533.47" r="11.46" transform="translate(54.76 1171.4) rotate(-48.27)"/><circle class="cls-3" cx="1419.93" cy="533.47" r="11.46" transform="translate(61.71 1191.01) rotate(-47.03)"/><circle class="cls-3" cx="1485.35" cy="533.47" r="11.46" transform="matrix(0.16, -0.99, 0.99, 0.16, 720.05, 1895.98)"/><circle class="cls-3" cx="1550.78" cy="533.47" r="11.46" transform="translate(76.99 1235.05) rotate(-45)"/><path class="cls-3" d="M269,965.25s18.22-1.48,23.26-19.21h158a11.22,11.22,0,0,0,11.22-11.22V850.59a11.22,11.22,0,0,0-11.22-11.22H259.87a11.23,11.23,0,0,0-11.22,11.22v84.23A11.23,11.23,0,0,0,259.87,946h16.29C276.33,950.79,275.63,959.56,269,965.25Z" transform="translate(0 -17.76)"/><path class="cls-3" d="M269,965.25a29.57,29.57,0,0,0,3.86-1,32.42,32.42,0,0,0,3.71-1.39,31,31,0,0,0,6.72-4.06,28.9,28.9,0,0,0,2.9-2.64,30.15,30.15,0,0,0,2.44-3.07,33.48,33.48,0,0,0,3.63-7c-.17.64-.34,1.29-.53,1.93a12.6,12.6,0,0,1-.64,1.91l-.82,1.85a19.08,19.08,0,0,1-1,1.77,24.87,24.87,0,0,1-2.39,3.29,28,28,0,0,1-3,2.78,26,26,0,0,1-7.05,4A25.72,25.72,0,0,1,269,965.25Z" transform="translate(0 -17.76)"/><path class="cls-3" d="M276.16,946a23.35,23.35,0,0,1-.93,10.61,18.53,18.53,0,0,1-2.44,4.82,15.46,15.46,0,0,1-3.79,3.78,24.52,24.52,0,0,0,5.28-8.92A41.56,41.56,0,0,0,276.16,946Z" transform="translate(0 -17.76)"/><path class="cls-3" d="M292.26,946l75.46-.25,75.45-.09h4.72a22.82,22.82,0,0,0,4.63-.24,10.94,10.94,0,0,0,7.17-5.22,10.63,10.63,0,0,0,1.4-4.31l.06-1.14v-13l-.05-37.73,0-18.86V851.08a11.53,11.53,0,0,0-.77-4.45,10.75,10.75,0,0,0-6.29-6.12,12.16,12.16,0,0,0-4.47-.67h-4.72l-18.86,0L275,839.7H260.89a12.37,12.37,0,0,0-4.55.59,11,11,0,0,0-6.53,6.06,11.43,11.43,0,0,0-.87,4.48v4.72l-.05,37.73L248.77,931c0,1.56-.05,3.15,0,4.7a11.07,11.07,0,0,0,1.31,4.45,11.2,11.2,0,0,0,7.22,5.52A19.79,19.79,0,0,0,262,946h4.72l9.43,0-9.43,0H262a19.5,19.5,0,0,1-4.7-.29,11.23,11.23,0,0,1-8.72-10.07c-.1-1.59,0-3.15-.06-4.72l-.13-37.73,0-37.73v-4.72a11.73,11.73,0,0,1,.91-4.71,11.6,11.6,0,0,1,6.88-6.42,11.13,11.13,0,0,1,2.35-.54,19.48,19.48,0,0,1,2.4-.09H275L426,838.87l18.86,0h4.72a12.93,12.93,0,0,1,4.79.73,11.69,11.69,0,0,1,6.82,6.66,12.53,12.53,0,0,1,.82,4.79v4.71l0,9.44,0,18.86,0,37.73v13l-.06,1.21a11.61,11.61,0,0,1-9.15,10.13l-1.2.19-1.21,0h-7.08l-75.45-.09Z" transform="translate(0 -17.76)"/><circle class="cls-6" cx="292.45" cy="892.7" r="7.31" transform="translate(-635.52 1020.96) rotate(-80.8)"/><circle class="cls-6" cx="334.2" cy="892.7" r="7.31" transform="translate(-600.44 1062.18) rotate(-80.8)"/><circle class="cls-6" cx="375.96" cy="892.7" r="7.31" transform="translate(-565.36 1103.4) rotate(-80.8)"/><circle class="cls-6" cx="417.71" cy="892.7" r="7.31" transform="translate(-530.28 1144.61) rotate(-80.8)"/><path class="cls-3" d="M1504.36,896.36s18.21-1.47,23.25-19.21h158a11.22,11.22,0,0,0,11.22-11.22V781.71a11.22,11.22,0,0,0-11.22-11.22H1495.22A11.23,11.23,0,0,0,1484,781.71v84.22a11.22,11.22,0,0,0,11.22,11.22h16.29C1511.68,881.91,1511,890.68,1504.36,896.36Z" transform="translate(0 -17.76)"/><path class="cls-3" d="M1504.36,896.36a28.41,28.41,0,0,0,3.86-1,33,33,0,0,0,3.7-1.39,31,31,0,0,0,6.72-4.06,30.16,30.16,0,0,0,2.9-2.64,28.83,28.83,0,0,0,2.44-3.07,32.85,32.85,0,0,0,3.63-7.05c-.17.65-.34,1.29-.53,1.94a12.56,12.56,0,0,1-.63,1.91l-.83,1.85a18.12,18.12,0,0,1-1,1.77,24,24,0,0,1-2.39,3.29,28,28,0,0,1-3,2.78,26,26,0,0,1-7,4A25.41,25.41,0,0,1,1504.36,896.36Z" transform="translate(0 -17.76)"/><path class="cls-3" d="M1511.51,877.15a23.11,23.11,0,0,1-.93,10.62,18.66,18.66,0,0,1-2.43,4.82,15.6,15.6,0,0,1-3.79,3.77,24.76,24.76,0,0,0,5.28-8.91A42,42,0,0,0,1511.51,877.15Z" transform="translate(0 -17.76)"/><path class="cls-3" d="M1527.61,877.15l75.46-.24,75.46-.09h4.71a22.82,22.82,0,0,0,4.63-.24,10.91,10.91,0,0,0,8.58-9.53l0-1.14v-13l0-37.73,0-18.86V782.2a11.53,11.53,0,0,0-.77-4.45,10.75,10.75,0,0,0-6.29-6.12,11.93,11.93,0,0,0-4.47-.67h-4.71l-18.87,0-150.91-.17h-14.15a12.4,12.4,0,0,0-4.55.59,11,11,0,0,0-6.53,6.06,11.24,11.24,0,0,0-.86,4.48v4.72l0,37.73-.13,37.72c0,1.57,0,3.16,0,4.71a11.07,11.07,0,0,0,1.31,4.45,11.22,11.22,0,0,0,7.23,5.52,19.67,19.67,0,0,0,4.67.32h4.72l9.43,0-9.43,0-4.72,0a20,20,0,0,1-4.7-.29,11.38,11.38,0,0,1-7.36-5.55,11.25,11.25,0,0,1-1.36-4.52c-.1-1.59,0-3.15-.06-4.73l-.12-37.72,0-37.73v-4.72a11.8,11.8,0,0,1,.9-4.72,11.63,11.63,0,0,1,6.88-6.41,11.08,11.08,0,0,1,2.36-.54,21.43,21.43,0,0,1,2.39-.1h14.15L1661.3,770l18.87,0h4.71a13,13,0,0,1,4.8.73,11.7,11.7,0,0,1,6.81,6.66,12.34,12.34,0,0,1,.82,4.79v14.15l0,18.86,0,37.73v13l-.06,1.21a11.61,11.61,0,0,1-9.15,10.13l-1.2.19-1.21,0h-7.07l-75.46-.09Z" transform="translate(0 -17.76)"/><circle class="cls-3" cx="1527.8" cy="823.82" r="7.31" transform="translate(469.89 2182.17) rotate(-80.78)"/><circle class="cls-3" cx="1569.55" cy="823.82" r="7.31" transform="translate(504.95 2223.39) rotate(-80.78)"/><circle class="cls-3" cx="1611.31" cy="823.82" r="7.31" transform="translate(540.02 2264.6) rotate(-80.78)"/><circle class="cls-3" cx="1653.06" cy="823.82" r="7.31" transform="translate(575.09 2305.82) rotate(-80.78)"/><path class="cls-6" d="M895.25,525.24a7.34,7.34,0,0,1-3.26-6.41q0-.41.09-1.23h8.12a3.4,3.4,0,0,0,.82,2.74,3.87,3.87,0,0,0,2.92,1,4.53,4.53,0,0,0,2.81-.78,2.58,2.58,0,0,0,1-2.19,2.8,2.8,0,0,0-1.3-2.37,22.63,22.63,0,0,0-4-2,33.83,33.83,0,0,1-4.31-2.08,9.41,9.41,0,0,1-2.9-2.67A7,7,0,0,1,894,505a9.17,9.17,0,0,1,1.55-5.48,10.18,10.18,0,0,1,4.42-3.56,16.14,16.14,0,0,1,6.48-1.23,15.44,15.44,0,0,1,5.84,1,8.78,8.78,0,0,1,4,3,8.39,8.39,0,0,1,1.37,5.59h-8.3a2.46,2.46,0,0,0,0-.54,2.64,2.64,0,0,0-.89-2.08,3.52,3.52,0,0,0-2.44-.8,4.26,4.26,0,0,0-2.67.8,2.61,2.61,0,0,0-1,2.17,2.76,2.76,0,0,0,1.27,2.3,23.93,23.93,0,0,0,4,2.17,41.45,41.45,0,0,1,4.41,2.28,9.93,9.93,0,0,1,2.94,2.81,7.33,7.33,0,0,1,1.23,4.31,8.86,8.86,0,0,1-1.5,5.06,9.91,9.91,0,0,1-4.34,3.5,16.27,16.27,0,0,1-6.61,1.25A14.56,14.56,0,0,1,895.25,525.24Z" transform="translate(0 -17.76)"/><path class="cls-6" d="M931.73,501.31,930.59,508H941l-1,5.89H929.54L928.26,521h11.82L939,527.18H919.37l5.65-32h19.63l-1.1,6.16Z" transform="translate(0 -17.76)"/><path class="cls-6" d="M970.38,497.41a7.37,7.37,0,0,1,2.6,5.86,10.12,10.12,0,0,1-.18,2,11.39,11.39,0,0,1-2.78,5.71,12.24,12.24,0,0,1-6,3.56l5.15,12.68h-8.8l-4.52-12.09H954l-2.15,12.09h-7.8l5.66-32h13.1C966.12,495.15,968.65,495.9,970.38,497.41Zm-5.47,7.18a2.84,2.84,0,0,0-.94-2.26,4.15,4.15,0,0,0-2.76-.79h-4.84l-1.41,8h4.83a5.12,5.12,0,0,0,3.4-1.05,4.88,4.88,0,0,0,1.62-3C964.87,505.07,964.91,504.75,964.91,504.59Z" transform="translate(0 -17.76)"/><path class="cls-6" d="M985.35,495.15l3.7,24.18,12.18-24.18h8.3l-17,32h-9.76l-5.71-32Z" transform="translate(0 -17.76)"/><path class="cls-6" d="M1020.58,495.15l-5.66,32h-7.81l5.66-32Z" transform="translate(0 -17.76)"/><path class="cls-6" d="M1025.66,502.65a19.2,19.2,0,0,1,6.73-5.79,18.67,18.67,0,0,1,8.67-2.08,13.77,13.77,0,0,1,9.24,3,11.68,11.68,0,0,1,4,8.22h-8.58a5.24,5.24,0,0,0-2.17-3,6.85,6.85,0,0,0-3.85-1,8.84,8.84,0,0,0-6.26,2.49,11.53,11.53,0,0,0-3.37,6.64,12.22,12.22,0,0,0-.23,2.23,7,7,0,0,0,1.78,5.07,6.39,6.39,0,0,0,4.88,1.87,8.67,8.67,0,0,0,4.18-1,9.17,9.17,0,0,0,3.26-3h8.58a18.25,18.25,0,0,1-6.89,8.19,18.59,18.59,0,0,1-10.32,3,15.21,15.21,0,0,1-7.16-1.6,11.2,11.2,0,0,1-4.7-4.52,13.65,13.65,0,0,1-1.64-6.79,17.07,17.07,0,0,1,.32-3.38A19.84,19.84,0,0,1,1025.66,502.65Z" transform="translate(0 -17.76)"/><path class="cls-6" d="M1067.71,501.31l-1.14,6.66H1077l-1,5.89h-10.45l-1.28,7.16h11.82l-1.09,6.16h-19.62l5.65-32h19.63l-1.1,6.16Z" transform="translate(0 -17.76)"/><path class="cls-6" d="M956.89,450.23v20.15H892l0-16.86q28.83-47.16,34.27-58.37t5.44-17.48c0-3.22-.55-5.61-1.64-7.19a5.68,5.68,0,0,0-5-2.38,5.52,5.52,0,0,0-5,2.63q-1.65,2.63-1.64,10.44v11.24H892v-4.3a93.91,93.91,0,0,1,1-15.66,27.44,27.44,0,0,1,5-11.28,25.2,25.2,0,0,1,10.44-8.4,37.77,37.77,0,0,1,15.4-2.85q17.6,0,26.61,8.73t9,22.08q0,10.15-5.08,21.47t-29.89,48Z" transform="translate(0 -17.76)"/><path class="cls-6" d="M1025.51,352.19v77.24h8.4v20.15h-8.4v20.8H996v-20.8H961V429.43l25.48-77.24ZM996,429.43v-50.3l-13,50.3Z" transform="translate(0 -17.76)"/><path class="cls-6" d="M1086.78,429.43v8.92l-6.53,32h-10.17l7.28-33.59h-10.11v-7.36Z" transform="translate(0 -17.76)"/><polygon class="cls-6" points="1040.94 452.62 1038.13 452.62 1066.43 390.43 1069.25 390.4 1040.94 452.62"/><rect class="cls-3" x="117.98" y="1715.57" width="1621.44" height="13.16" rx="6.58"/><path class="cls-3" d="M929.76,940.78a54.88,54.88,0,0,1,84.55,66.59l15.72,19.24L1001,1024.3a54.87,54.87,0,1,1-71.2-83.52Z" transform="translate(0 -17.76)"/><path class="cls-3" d="M1030,1026.61c-1.23-1.66-2.49-3.31-3.78-4.93s-2.58-3.24-3.89-4.85-2.63-3.19-4-4.77-2.7-3.15-4.08-4.69q1.85,2.5,3.78,4.93c1.28,1.63,2.58,3.24,3.89,4.85s2.63,3.2,4,4.78S1028.65,1025.07,1030,1026.61Z" transform="translate(0 -17.76)"/><path class="cls-3" d="M1001,1024.3q3.62.43,7.25.77t7.26.63c2.43.19,4.85.37,7.28.53s4.85.29,7.28.38c-2.41-.29-4.83-.54-7.25-.77s-4.84-.43-7.27-.63-4.84-.37-7.27-.53S1003.39,1024.39,1001,1024.3Z" transform="translate(0 -17.76)"/><path class="cls-3" d="M1014.31,1007.37a55,55,0,0,0,5.73-19.26,55.43,55.43,0,0,0-1.56-20.07,54.81,54.81,0,0,0-8.74-18.16,55.58,55.58,0,0,0-14.69-13.83,54.41,54.41,0,0,0-9-4.66,55.34,55.34,0,0,0-29.9-3.29,54.56,54.56,0,0,0-19,6.95,56.43,56.43,0,0,0-8.22,6,54.58,54.58,0,0,0-7,7.34,55,55,0,0,0,79,75.95,55.26,55.26,0,0,1-17.44,9.92,54.61,54.61,0,0,1-62.53-20,55.51,55.51,0,0,1-5.06-8.66,54,54,0,0,1-5-19.32,54.64,54.64,0,0,1,11.59-37.47,52.65,52.65,0,0,1,6.9-7.26,55,55,0,0,1,8.09-5.89,53.89,53.89,0,0,1,18.72-6.9,54.76,54.76,0,0,1,63.59,59.32A56.4,56.4,0,0,1,1018,998,57.27,57.27,0,0,1,1014.31,1007.37Z" transform="translate(0 -17.76)"/><polygon class="cls-3" points="961.21 978.92 948.11 965.82 952.11 961.81 961.21 970.91 981.95 950.17 985.95 954.17 961.21 978.92"/></g></g></svg>